<svg width="118" height="36" viewBox="0 0 118 36" fill="none" xmlns="http://www.w3.org/2000/svg">
<g clip-path="url(#clip0_1785_10452)">
<path d="M63.5818 17.1365C70.9884 13.8476 72.0837 3.11499 61.5484 3.11499H49.3479L44.8391 11.7703H46.9609L41.5679 32.4565H55.7133C66.0331 32.5429 70.6743 20.646 63.5818 17.1365ZM55.7133 24.9264H52.1769L53.503 20.2527H56.8624C60.8409 21.0315 58.3657 25.0994 55.7133 24.9264ZM57.8351 14.9726H54.8293L55.7133 10.9047H59.0727C62.3188 11.6837 59.5151 15.1458 57.8351 14.9726Z" fill="#005FAF"/>
<path d="M92.544 14.169L97.1758 6.16418L90.9084 2.96362L90.0909 3.95139C86.7099 2.19922 69.0055 4.6185 67.897 21.7165C68.5596 36.0597 84.9762 33.4796 86.5865 32.5695L91.1016 23.4317C86.6795 26.2833 77.6249 27.6522 77.2418 19.0863C78.0361 12.0225 86.5548 9.38458 92.544 14.169ZM115.657 3.11501H101.418L96.8919 11.5113H99.217L88.4862 32.4565H98.873L101.005 27.4046H107.381L107.54 32.4565H117.102L115.657 3.11501ZM103.894 20.6026L107.381 12.4541L107.54 20.6026H103.894Z" fill="#005FAF"/>
<path d="M26.7373 31.0557L27.2904 30.8986L26.6838 30.0779L26.7373 31.0557ZM17.6563 30.916L17.5493 31.6496C17.8246 31.6233 18.1635 31.8556 18.2986 31.3352C18.2885 30.9296 17.9731 30.9073 17.6563 30.916ZM22.0632 30.8986C22.0173 30.6988 21.8469 30.5517 21.4208 30.6892L21.5635 31.4399C21.9136 31.364 22.0936 31.1612 22.0632 30.8986ZM12.1079 30.2841L11.9375 30.9512C12.2113 30.9624 12.532 31.1798 12.7137 30.7845C12.7259 30.5368 12.7363 30.2901 12.1079 30.2841ZM21.6885 31.9991L21.8135 32.7677C22.1058 32.7749 22.3724 32.6029 22.2951 32.2438C22.2206 31.8983 21.9242 31.9529 21.6885 31.9991Z" fill="#005FAF"/>
<path d="M33.2906 3.51065C23.8433 -1.20109 12.5607 -1.07004 3.55933 3.30515C-1.08231 11.3048 -1.2301 22.4976 3.55933 32.4109C13.4761 37.3239 24.4442 37.0003 33.3604 32.6164C37.5508 24.1998 38.2428 14.072 33.2906 3.51065ZM17.3352 27.3977L16.7752 27.4039C16.6365 25.889 16.2667 24.6158 15.4732 23.6414C11.8347 19.1744 4.3969 22.5375 6.30806 14.9459C7.30179 11.0648 18.6367 8.77583 17.3352 27.3977ZM6.32149 19.8996C7.11597 21.4827 12.0935 21.7421 13.8214 22.954C16.5622 24.8761 16.1688 27.4046 16.1688 27.4046H15.5224C14.2498 23.5858 10.6782 26.6094 7.81741 25.581C6.02135 24.9555 4.71733 22.2447 6.32149 19.8996ZM15.3903 32.3486L15.658 30.2701L16.1397 30.3051L15.9254 32.5931C15.7095 33.601 14.1745 33.4662 13.9808 32.5057L14.2305 30.1304L14.8014 30.218L14.5517 32.2089C14.5834 32.8678 15.2585 32.8284 15.3903 32.3486ZM12.8271 32.9162L12.278 32.7864C12.3424 32.3422 12.8806 31.4383 11.8169 31.4383L11.5208 32.6196L10.915 32.5085L11.5586 29.6725C13.1318 29.8403 13.2695 30.2689 13.3007 30.729C13.2386 31.0859 13.1415 31.3351 12.8274 31.3961C13.195 31.7227 12.8317 32.4072 12.8271 32.9162ZM9.3397 29.7397C9.18836 29.9363 8.88542 30.623 8.84156 31.1703C8.79492 31.7503 9.36403 31.6282 9.50574 31.5604C9.62007 31.5061 9.70499 31.0402 9.70499 31.0402L9.30649 30.9102L9.43932 30.5203L10.3362 30.8129L9.9045 32.2762L9.5392 32.1784L9.57241 31.9508C9.12523 32.1503 8.30667 32.0007 8.2106 31.4956C8.11452 31.0899 8.40554 29.8596 8.87477 29.2848C9.33082 28.7259 10.4419 29.2722 10.4691 29.6099C10.4959 29.9465 10.3603 30.3252 10.3603 30.3252L9.94202 30.248C9.94202 30.248 9.96762 30.1264 10.0041 29.9348C10.0427 29.7318 9.50194 29.5285 9.3397 29.7397ZM17.4956 32.1213L17.3887 33.3791L16.9428 33.3617L17.1032 30.3748C18.2169 30.3974 18.8552 30.5483 18.8339 31.3182C18.7675 32.37 17.8974 32.1335 17.4956 32.1213ZM18.6057 27.4044H17.8597C17.7935 24.8178 18.3015 20.0867 16.9133 16.605C15.8616 13.9656 13.1998 12.7783 12.6099 10.6461C11.676 7.27135 13.2654 3.61985 18.6057 3.33866C23.2355 3.804 24.6579 7.30311 23.8682 10.561C22.5104 13.8184 21.1524 13.3503 19.4618 16.595C18.081 20.0733 18.6067 24.6302 18.6057 27.4044ZM26.8798 32.1913L26.3624 32.366L26.2017 29.3618L26.8083 29.2047L28.307 31.6847L27.8966 31.9468L27.397 31.2484L26.8261 31.4579L26.8798 32.1913ZM20.8437 27.4044H20.2469C20.7387 20.7615 29.2653 22.2047 30.0445 19.8996C31.3922 22.1848 30.9077 24.1117 29.5005 25.0995C26.0037 27.555 22.6506 23.2823 20.8437 27.4044ZM24.0076 30.7593L24.2753 32.1392C24.4419 32.4571 24.5549 32.3983 24.8105 32.3663C25.1068 32.1563 25.045 31.9518 24.9889 31.685L25.5063 31.6153C25.6412 32.6149 25.1557 32.7169 24.7927 32.7854C24.0142 32.84 23.8616 32.6916 23.6509 31.7026C23.5282 30.8561 23.3163 29.9621 24.0434 29.7988C25.2369 29.6204 25.1664 30.1463 25.2744 30.5148L24.757 30.6024C24.6743 30.2857 24.5554 30.1602 24.2931 30.1835C24.054 30.291 23.9559 30.4649 24.0076 30.7593ZM22.9193 32.1913C22.9442 32.6263 22.7933 32.9152 22.5089 33.0123L21.2956 33.2567L20.814 30.3748C21.0629 30.3351 22.2835 29.8973 22.5801 30.6895C22.7264 31.1732 22.5748 31.3467 22.4017 31.5626C22.73 31.6659 22.8407 31.916 22.9193 32.1913ZM19.8038 17.729C22.5066 10.2786 28.6913 11.5952 30.063 14.9461C31.9423 21.6701 25.8911 19.8261 22.0151 22.5834C20.5501 23.8308 19.7792 25.2618 19.7678 27.4312H19.1036C19.0638 23.0617 18.9916 19.9676 19.8038 17.729Z" fill="#005FAF"/>
</g>
<defs>
<clipPath id="clip0_1785_10452">
<rect width="117.257" height="36" fill="white"/>
</clipPath>
</defs>
</svg>
