<svg width="231" height="296" viewBox="0 0 231 296" fill="none" xmlns="http://www.w3.org/2000/svg">
<g clip-path="url(#clip0_2215_10386)">
<path opacity="0.5" d="M135.131 13.394C133.334 11.4499 130.403 10.1381 127.851 9.6202C109.76 5.94671 102.223 44.2774 103.932 53.2828C105.641 62.2882 103.47 64.8921 88.5219 67.553C73.5736 70.2139 79.3745 79.8138 80.4859 85.1321C81.5974 90.4505 84.5253 95.2008 73.4063 98.9036C62.2872 102.606 65.5349 106.212 65.5349 106.212C65.5349 106.212 82.3402 128.753 82.0806 122.199C81.8209 115.645 84.9762 106.208 102.4 107.715C109.904 108.364 121.791 106.234 125.342 98.4607C126.17 96.6507 126.943 93.8225 126.74 91.8119C126.459 89.0231 124.974 86.662 124.322 83.9865C122.8 77.7524 129.041 74.1387 132.817 70.592C134.789 68.7403 136.766 66.8357 138.374 64.6419C141.711 60.0871 141.356 54.6927 138.965 49.7863C137.819 47.4336 136.135 44.877 135.842 42.2094C135.527 39.344 136.585 35.622 137.104 32.7836C137.51 30.5578 138.002 28.3511 138.161 26.0869C138.456 21.877 138.134 16.6437 135.131 13.394Z" fill="white"/>
<g opacity="0.8">
<g opacity="0.8">
<path opacity="0.8" d="M62.5982 117.263C62.4676 117.292 62.3325 117.22 62.2847 117.089C62.2324 116.946 62.3041 116.788 62.4453 116.735C62.5321 116.702 71.2164 113.417 81.1945 107.447C90.3886 101.946 102.594 92.975 108.527 81.4784C113.482 71.8763 118.941 55.649 123.507 36.9575C127.6 20.1966 129.493 7.65413 128.959 5.21077C128.926 5.062 129.019 4.91493 129.166 4.88168C129.313 4.84843 129.458 4.94254 129.49 5.09131C130.115 7.9494 127.72 22.0044 124.035 37.09C119.46 55.822 113.983 72.0943 109.009 81.7337C103.016 93.3486 90.7211 102.388 81.4625 107.927C71.4432 113.921 62.7211 117.219 62.6338 117.252C62.6221 117.256 62.6099 117.26 62.5982 117.263Z" fill="white"/>
</g>
<g opacity="0.8">
<path opacity="0.8" d="M123.061 40.2518C122.915 40.2845 122.778 40.227 122.744 40.0788C122.7 39.8827 118.233 20.4451 109.984 15.1195C109.857 15.0378 109.822 14.876 109.903 14.7476C109.983 14.6191 110.152 14.5858 110.279 14.6675C118.717 20.1149 123.092 39.1451 123.274 39.9542C123.308 40.1024 123.209 40.2191 123.062 40.2518C123.062 40.2518 123.061 40.2518 123.061 40.2518Z" fill="white"/>
</g>
<g opacity="0.8">
<path opacity="0.8" d="M117.03 61.3433C116.921 61.3675 116.804 61.3224 116.741 61.221C116.661 61.092 116.699 60.9218 116.826 60.8406C116.881 60.8057 122.417 57.2877 129.04 54.5925C137.989 50.9505 144.557 50.4603 148.562 53.1364C148.688 53.2203 148.722 53.3911 148.639 53.5184C148.556 53.6458 148.388 53.6807 148.262 53.5968C139.048 47.4405 117.334 61.168 117.116 61.3078C117.089 61.3247 117.06 61.3365 117.03 61.3433Z" fill="white"/>
</g>
<g opacity="0.8">
<path opacity="0.8" d="M89.6726 102.508C89.6443 102.515 89.6143 102.517 89.5831 102.513C89.4336 102.496 89.3262 102.36 89.3429 102.208C89.3518 102.129 90.2159 94.1482 89.6287 85.5463C89.0899 77.6595 87.1912 67.6218 81.2019 64.5901C81.0673 64.5219 81.0128 64.3563 81.0801 64.2199C81.1474 64.0835 81.3108 64.0283 81.4454 64.0965C86.4395 66.6244 89.3757 73.8305 90.1725 85.5153C90.7624 94.1662 89.8934 102.189 89.8845 102.269C89.8711 102.39 89.7833 102.484 89.6726 102.508Z" fill="white"/>
</g>
<g opacity="0.8">
<path opacity="0.8" d="M102.448 91.0883C102.334 91.1143 102.212 91.0624 102.152 90.9537C102.079 90.8207 102.125 90.6528 102.256 90.5784C103.208 90.0397 125.639 77.4143 133.452 79.9084C133.596 79.954 133.675 80.109 133.63 80.2543C133.585 80.3997 133.432 80.4803 133.289 80.4347C125.697 78.0116 102.753 90.9294 102.522 91.0602C102.498 91.0737 102.473 91.0827 102.448 91.0883Z" fill="white"/>
</g>
</g>
<path d="M161.116 31.2075C159.777 28.9152 157.196 26.992 154.815 25.9258C137.936 18.3703 122.392 54.1388 122.137 63.3059C121.882 72.473 119.207 74.5383 104.045 73.8575C88.8832 73.1768 92.4956 83.8209 92.445 89.257C92.3938 94.6931 94.2381 99.9732 82.592 101.149C70.9458 102.325 73.3461 106.558 73.3461 106.558C73.3461 106.558 84.9389 132.251 86.0853 125.795C87.2318 119.34 92.3276 110.818 109.016 116.112C116.204 118.392 128.264 118.92 133.392 112.111C134.586 110.525 135.944 107.933 136.176 105.926C136.497 103.142 135.552 100.511 135.486 97.7558C135.332 91.3358 142.197 89.1764 146.641 86.5426C148.961 85.1676 151.298 83.7414 153.336 81.9523C157.567 78.2377 158.373 72.8934 157.086 67.5784C156.469 65.0297 155.372 62.1648 155.655 59.496C155.959 56.6295 157.788 53.2282 158.9 50.5707C159.772 48.4863 160.724 46.4402 161.363 44.2651C162.551 40.2191 163.354 35.0394 161.116 31.2075Z" fill="#EFCBAB"/>
<g opacity="0.8">
<g opacity="0.8">
<path opacity="0.8" d="M68.1189 116.702C67.9849 116.702 67.8681 116.602 67.8498 116.464C67.8292 116.313 67.9332 116.173 68.0822 116.153C68.1734 116.14 77.3536 114.838 88.3703 111.199C98.5214 107.845 112.353 101.765 120.601 91.8418C127.489 83.5543 136.285 68.9094 144.734 51.6627C152.311 36.1973 156.838 24.3677 156.838 21.8652C156.838 21.713 156.959 21.5896 157.11 21.5896C157.26 21.5896 157.381 21.713 157.381 21.8652C157.381 24.7926 152.04 37.9887 145.221 51.9084C136.754 69.1928 127.931 83.8778 121.016 92.1973C112.685 102.222 98.7504 108.351 88.5288 111.727C77.467 115.38 68.2468 116.687 68.155 116.7C68.1433 116.701 68.1311 116.702 68.1189 116.702Z" fill="white"/>
</g>
<g opacity="0.8">
<path opacity="0.8" d="M143.596 54.8223C143.446 54.8223 143.324 54.7152 143.324 54.563C143.323 54.3619 143.112 34.3946 136.197 27.3858C136.091 27.2781 136.091 27.1074 136.197 26.9992C136.303 26.8916 136.475 26.8933 136.582 27.0009C143.655 34.1698 143.862 53.7285 143.868 54.558C143.869 54.7101 143.748 54.8217 143.598 54.8217C143.597 54.8222 143.596 54.8223 143.596 54.8223Z" fill="white"/>
</g>
<g opacity="0.8">
<path opacity="0.8" d="M133.204 74.0491C133.092 74.0491 132.988 73.9787 132.948 73.866C132.897 73.7228 132.97 73.5645 133.112 73.5132C133.173 73.4907 139.329 71.271 146.371 70.0922C155.886 68.4997 162.403 69.4622 165.742 72.9531C165.846 73.0624 165.843 73.2371 165.735 73.343C165.628 73.449 165.455 73.4462 165.351 73.3368C157.669 65.3051 133.539 73.9437 133.296 74.0322C133.266 74.0441 133.235 74.0491 133.204 74.0491Z" fill="white"/>
</g>
<g opacity="0.8">
<path opacity="0.8" d="M97.703 108.237C97.6735 108.237 97.644 108.232 97.6146 108.222C97.4722 108.173 97.3966 108.015 97.4456 107.871C97.4711 107.796 100.019 100.194 101.283 91.6671C102.442 83.849 102.732 73.6326 97.5317 69.359C97.415 69.2632 97.3972 69.0896 97.4917 68.9707C97.5862 68.8524 97.758 68.8344 97.8742 68.9302C102.21 72.4938 103.538 80.1732 101.82 91.7555C100.549 100.331 97.9866 107.973 97.9604 108.049C97.9215 108.165 97.8159 108.237 97.703 108.237Z" fill="white"/>
</g>
<g opacity="0.8">
<path opacity="0.8" d="M112.615 99.8909C112.497 99.8909 112.389 99.8137 112.354 99.6942C112.311 99.5483 112.392 99.3945 112.536 99.3511C113.58 99.0338 138.177 91.6289 145.272 95.7774C145.402 95.8534 145.447 96.0225 145.371 96.1543C145.296 96.2862 145.129 96.3318 144.999 96.2552C138.105 92.2239 112.946 99.8024 112.693 99.8791C112.667 99.887 112.64 99.8909 112.615 99.8909Z" fill="white"/>
</g>
</g>
<path d="M109.813 21.9457L75.4318 0.379177C74.0256 -0.444668 71.94 0.486243 70.3782 0.882387C68.8097 1.28022 67.487 2.2889 66.7091 3.68301L45.4997 41.5878C44.004 44.2672 43.5798 47.4059 44.4416 50.2747L68.6435 130.832C70.1797 135.945 75.6708 138.255 80.7377 135.963L131.281 113.111C135.601 111.156 137.89 105.792 136.496 101.154L114.52 28.0022C113.751 25.4411 112.072 23.2693 109.813 21.9457ZM80.3902 35.019C76.5026 36.2294 72.3671 34.0469 71.1911 30.1323C70.0151 26.2176 72.2625 22.1153 76.1729 20.9809C80.0411 19.8584 84.0816 22.0702 85.2347 25.9093C86.3884 29.7479 84.2361 33.8215 80.3902 35.019Z" fill="#D4386D"/>
<path d="M112.289 21.1878L98.457 13.075L77.6745 0.8543C76.2767 0.0349635 74.6148 -0.209598 73.0652 0.184292C71.5079 0.578746 70.194 1.58178 69.4217 2.96913L59.0183 21.6702L48.4936 40.6744C47.0113 43.3398 46.6838 46.4402 47.5423 49.2988L71.6535 129.554C73.1842 134.649 78.6036 136.951 83.6299 134.675L97.0436 128.603L120.429 118.016L133.694 112.026C137.985 110.085 140.303 104.711 138.915 100.09L117.019 27.2094C116.253 24.6562 114.535 22.507 112.289 21.1878ZM78.8338 20.2096C82.673 19.095 86.6874 21.3011 87.8367 25.1267C88.9854 28.9507 86.8526 33.0079 83.0356 34.1958C79.1774 35.3983 75.0685 33.2192 73.8965 29.3186C72.7255 25.4197 74.9529 21.3349 78.8338 20.2096Z" fill="#DB5381"/>
<path d="M103.573 38.3093L83.6989 44.4425L77.9331 84.9895L85.9619 81.9578L85.9463 121.771L109.494 60.9143L97.8682 65.0431L103.573 38.3093Z" fill="white"/>
<path opacity="0.1" d="M117.02 27.2094L138.916 100.09C140.304 104.711 137.985 110.085 133.694 112.026L120.462 118.006L97.0593 128.599C101.987 117.516 102.084 108.578 100.597 101.717C97.3401 86.662 86.8438 83.281 86.1465 68.9567C85.2825 51.2153 100.827 45.4748 101.349 27.5114C101.464 23.5675 100.848 18.714 98.4243 13.0857L112.29 21.1878C114.536 22.5069 116.253 24.6561 117.02 27.2094Z" fill="#F4E3E0"/>
<path d="M102.73 139.168C102.73 140.575 101.875 141.717 100.818 141.717C99.7625 141.717 98.9062 140.575 98.9062 139.168C98.9062 137.76 99.7625 136.619 100.818 136.619C101.875 136.619 102.73 137.76 102.73 139.168Z" fill="url(#paint0_linear_2215_10386)"/>
<path d="M103.263 139.192C103.263 140.6 102.407 141.741 101.351 141.741C100.295 141.741 99.439 140.6 99.439 139.192C99.439 137.784 100.295 136.643 101.351 136.643C102.407 136.643 103.263 137.784 103.263 139.192Z" fill="url(#paint1_linear_2215_10386)"/>
<path d="M102.152 139.243C102.152 139.833 101.794 140.311 101.351 140.311C100.908 140.311 100.55 139.833 100.55 139.243C100.55 138.653 100.908 138.176 101.351 138.176C101.794 138.176 102.152 138.653 102.152 139.243Z" fill="url(#paint2_linear_2215_10386)"/>
<path d="M100.819 136.081V138.88C100.819 139.291 101.147 139.624 101.553 139.624C101.787 139.624 102.008 139.51 102.145 139.318L104.629 135.871L100.819 136.081Z" fill="#C9CED6"/>
<path d="M123.199 136.933C123.199 138.341 122.343 139.482 121.287 139.482C120.231 139.482 119.375 138.341 119.375 136.933C119.375 135.525 120.231 134.384 121.287 134.384C122.344 134.384 123.199 135.525 123.199 136.933Z" fill="url(#paint3_linear_2215_10386)"/>
<path d="M123.732 136.957C123.732 138.365 122.876 139.506 121.82 139.506C120.764 139.506 119.908 138.365 119.908 136.957C119.908 135.55 120.764 134.408 121.82 134.408C122.876 134.408 123.732 135.55 123.732 136.957Z" fill="url(#paint4_linear_2215_10386)"/>
<path d="M122.621 137.008C122.621 137.598 122.262 138.076 121.82 138.076C121.377 138.076 121.019 137.598 121.019 137.008C121.019 136.419 121.377 135.941 121.82 135.941C122.262 135.94 122.621 136.418 122.621 137.008Z" fill="url(#paint5_linear_2215_10386)"/>
<path d="M121.288 133.845V136.644C121.288 137.055 121.616 137.388 122.022 137.388C122.256 137.388 122.476 137.275 122.614 137.083L125.098 133.636L121.288 133.845Z" fill="#C9CED6"/>
<path d="M100.533 136.516C100.281 136.516 100.064 136.324 100.035 136.065C100.004 135.786 100.202 135.534 100.477 135.503L124.718 132.734C126.037 132.504 127.137 131.488 127.492 130.149L136.995 88.1424C137.536 86.1019 139.297 84.634 141.376 84.4892L148.749 84.0434C149.026 84.0243 149.263 84.2401 149.279 84.5202C149.296 84.8002 149.085 85.0408 148.809 85.0577L141.44 85.5029C139.792 85.6179 138.394 86.7849 137.964 88.4055L128.461 130.413C128.005 132.133 126.591 133.439 124.859 133.74L100.59 136.512C100.571 136.515 100.552 136.516 100.533 136.516Z" fill="#D8DEE8"/>
<path d="M116.747 117.741C116.529 117.741 116.328 117.596 116.265 117.373L110.557 97.1297C110.48 96.8598 110.634 96.5786 110.901 96.5014C111.167 96.4248 111.445 96.5809 111.521 96.8502L117.229 117.094C117.305 117.364 117.151 117.645 116.885 117.722C116.839 117.734 116.792 117.741 116.747 117.741Z" fill="#C2C2C2"/>
<path d="M122.587 116.894C122.348 116.894 122.137 116.721 122.093 116.475L118.573 96.4226C118.524 96.1459 118.706 95.8822 118.979 95.8331C119.254 95.783 119.512 95.9684 119.56 96.2445L123.081 116.297C123.129 116.573 122.947 116.837 122.675 116.886C122.645 116.892 122.616 116.894 122.587 116.894Z" fill="#C2C2C2"/>
<path d="M126.215 116.237C126.209 116.237 126.201 116.237 126.194 116.236C125.917 116.225 125.703 115.988 125.714 115.708L126.527 95.868C126.538 95.5874 126.76 95.3654 127.048 95.3817C127.325 95.3935 127.54 95.6302 127.528 95.9103L126.716 115.75C126.705 116.023 126.483 116.237 126.215 116.237Z" fill="#C2C2C2"/>
<path d="M108.782 118.482C108.573 118.482 108.377 118.347 108.307 118.134L101.605 97.8825C101.517 97.6165 101.658 97.3286 101.921 97.239C102.183 97.1505 102.467 97.2931 102.555 97.5591L109.258 117.811C109.345 118.077 109.204 118.365 108.942 118.454C108.889 118.473 108.835 118.482 108.782 118.482Z" fill="#D8DEE8"/>
<path d="M165.998 86.8227C165.971 86.8227 165.943 86.8216 165.915 86.8193L149.418 85.4449C148.867 85.3993 148.456 84.9085 148.502 84.3489C148.547 83.7893 149.031 83.3723 149.583 83.4197L166.08 84.7941C166.631 84.8397 167.042 85.3305 166.996 85.8901C166.953 86.4204 166.515 86.8227 165.998 86.8227Z" fill="url(#paint6_linear_2215_10386)"/>
<path d="M120.039 142.427C120.039 143.835 119.182 144.976 118.126 144.976C117.071 144.976 116.214 143.835 116.214 142.427C116.214 141.019 117.07 139.878 118.126 139.878C119.183 139.878 120.039 141.019 120.039 142.427Z" fill="url(#paint7_linear_2215_10386)"/>
<path d="M120.571 142.451C120.571 143.859 119.716 145 118.659 145C117.603 145 116.747 143.859 116.747 142.451C116.747 141.044 117.603 139.902 118.659 139.902C119.716 139.902 120.571 141.044 120.571 142.451Z" fill="url(#paint8_linear_2215_10386)"/>
<path d="M119.46 142.503C119.46 143.093 119.102 143.57 118.659 143.57C118.217 143.57 117.858 143.092 117.858 142.503C117.858 141.913 118.217 141.435 118.659 141.435C119.102 141.434 119.46 141.913 119.46 142.503Z" fill="url(#paint9_linear_2215_10386)"/>
<path d="M118.127 139.34V142.139C118.127 142.55 118.456 142.883 118.861 142.883C119.096 142.883 119.316 142.77 119.454 142.577L121.937 139.13L118.127 139.34Z" fill="#BFC8D6"/>
<path d="M137.76 140.629C137.76 142.037 136.904 143.178 135.848 143.178C134.792 143.178 133.936 142.037 133.936 140.629C133.936 139.221 134.792 138.08 135.848 138.08C136.905 138.08 137.76 139.221 137.76 140.629Z" fill="url(#paint10_linear_2215_10386)"/>
<path d="M138.293 140.653C138.293 142.061 137.437 143.202 136.381 143.202C135.325 143.202 134.469 142.061 134.469 140.653C134.469 139.246 135.325 138.104 136.381 138.104C137.437 138.104 138.293 139.246 138.293 140.653Z" fill="url(#paint11_linear_2215_10386)"/>
<path d="M137.182 140.704C137.182 141.294 136.823 141.772 136.381 141.772C135.938 141.772 135.58 141.294 135.58 140.704C135.58 140.114 135.938 139.637 136.381 139.637C136.823 139.637 137.182 140.114 137.182 140.704Z" fill="url(#paint12_linear_2215_10386)"/>
<path d="M135.849 137.542V140.341C135.849 140.752 136.177 141.085 136.583 141.085C136.817 141.085 137.037 140.972 137.175 140.78L139.659 137.333L135.849 137.542Z" fill="#BFC8D6"/>
<path d="M92.341 98.6934C92.0808 98.6934 91.8606 98.4894 91.8412 98.2218C91.8212 97.9417 92.0291 97.6983 92.3054 97.6786L135.477 94.5291C135.518 94.5269 135.558 94.528 135.597 94.5353L153.47 97.6205C153.743 97.6679 153.926 97.9299 153.879 98.2066C153.833 98.4827 153.578 98.6692 153.301 98.6219L135.488 95.5468L92.3772 98.6923C92.3655 98.6929 92.3533 98.6934 92.341 98.6934Z" fill="#D8DEE8"/>
<path d="M147.802 119.177C147.777 119.177 147.751 119.175 147.725 119.171L130.138 116.436L103.382 119.047C103.106 119.073 102.861 118.869 102.834 118.59C102.808 118.31 103.01 118.062 103.285 118.035L130.104 115.419C130.146 115.415 130.188 115.417 130.228 115.423L147.877 118.168C148.151 118.21 148.339 118.47 148.296 118.747C148.259 118.998 148.045 119.177 147.802 119.177Z" fill="#C9CED6"/>
<path d="M129.948 92.3416C129.773 92.3805 129.607 92.2278 129.582 92.0542C129.145 88.9521 127.897 85.5745 126.094 83.2472C124.479 81.1644 123.235 80.2611 120.88 79.847C120.877 79.8464 120.825 79.8453 120.823 79.8447C115.88 79.3116 115.607 90.9977 115.648 92.6127C115.715 95.2257 115.509 93.1948 115.313 93.4146C115.115 93.6343 114.964 94.3967 114.926 93.01C114.824 89.3184 115.188 79.497 120.769 79.0778C120.77 79.0778 120.803 79.0772 120.806 79.0778C123.456 79.4395 124.879 80.4454 126.677 82.749C128.562 85.1642 129.851 88.6332 130.271 91.8615C130.295 92.0464 130.179 92.2842 129.983 92.3332C129.972 92.3366 129.959 92.3394 129.948 92.3416Z" fill="url(#paint13_linear_2215_10386)"/>
<path d="M107.107 119.282C109.766 120.218 113.002 120.684 115.763 121.65C116.727 117.389 118.404 113.278 119.748 109.131C117.158 103.412 114.954 97.5145 112.041 91.9521C111.357 92.1494 110.685 92.3421 109.992 92.5416C109.713 101.838 107.869 109.11 106.091 117.989C105.939 118.75 106.327 119.007 107.107 119.282Z" fill="#B35734"/>
<path opacity="0.3" d="M119.747 109.131C117.158 103.411 114.954 97.5157 112.041 91.9517C111.642 92.0965 111.233 92.1252 110.841 92.3461C110.848 93.6044 111.104 96.9736 111.227 97.9265C111.739 101.916 113.272 105.861 112.707 109.428C112.246 112.346 110.587 113.161 110.592 115.799C110.596 118.643 112.943 120.227 115.2 121.476C115.414 121.53 115.578 121.586 115.77 121.649C116.717 117.39 118.41 113.277 119.747 109.131Z" fill="#AA2835"/>
<path d="M112.041 91.9528C121.183 92.0819 128.987 91.4496 137.984 90.0347C141.84 99.7591 144.481 109.001 147.365 119.012C137.253 119.425 125.703 120.022 115.77 121.65C113.498 112.262 114.015 101.592 112.041 91.9528Z" fill="#B35734"/>
<g opacity="0.3">
<path opacity="0.3" d="M137.984 90.0347C133.477 90.7323 129.451 91.2451 124.796 91.5928C124.073 91.6469 124.256 92.7665 124.29 93.5712C124.488 98.281 133.177 98.1052 134.524 103.699C135.531 107.875 131.31 112.742 128.187 114.589C124.924 116.519 121.973 115.765 119.355 117.98C118.213 118.946 117.821 120.029 117.353 121.404C126.895 120.019 137.693 119.403 147.365 119.012C144.495 108.993 141.821 99.7636 137.984 90.0347Z" fill="url(#paint14_linear_2215_10386)"/>
</g>
<path d="M120.434 94.013C120.059 93.2889 120.463 95.1045 120.003 93.5008C119.133 90.4669 117.773 85.1728 119.546 81.6565C120.059 80.6377 121.244 79.7039 122.358 79.4092C128.097 77.89 132.04 87.5068 133.312 91.2986C133.741 92.5761 133.378 92.0092 133.089 91.7939C132.801 91.5792 133.446 93.9077 132.508 91.2045C131.858 89.3303 127.489 78.1706 122.569 80.2156C121.671 80.5886 120.725 81.4063 120.227 82.0521C118.339 84.5016 120.252 91.8182 120.543 92.8477C121.306 95.5446 120.41 92.8725 120.517 94.008C120.533 94.1708 120.496 94.1342 120.434 94.013Z" fill="url(#paint15_linear_2215_10386)"/>
<path d="M121.425 94.0225C121.467 94.5882 121.09 95.079 120.523 95.1174C119.955 95.1557 119.524 94.7111 119.481 94.1493C119.439 93.5875 119.804 93.0961 120.372 93.0634C120.939 93.0307 121.382 93.4573 121.425 94.0225Z" fill="url(#paint16_linear_2215_10386)"/>
<path d="M134.194 92.0582C134.222 92.6262 133.862 93.1807 133.309 93.3221C132.756 93.4636 132.331 93.0454 132.301 92.4853C132.27 91.9252 132.645 91.3701 133.202 91.2648C133.761 91.1588 134.167 91.4896 134.194 92.0582Z" fill="url(#paint17_linear_2215_10386)"/>
<path d="M141.324 104.584C138.569 101.963 135.518 99.4614 132.521 97.1167C132.265 96.9155 132.133 96.9414 131.877 97.102C130.584 97.9101 129.044 98.7677 127.766 99.5442C127.337 99.8051 127.23 100.138 127.567 100.55C130.029 103.568 132.647 106.711 135.05 109.792C135.31 110.125 135.569 110.144 135.913 109.886C137.665 108.57 139.64 107.08 141.291 105.645C141.68 105.307 141.703 104.945 141.324 104.584ZM131.563 100.071C131.24 100.355 130.821 100.12 130.593 99.8164C130.364 99.5121 130.242 99.0298 130.556 98.7379C130.87 98.446 131.289 98.6764 131.517 98.9802C131.745 99.2839 131.885 99.7871 131.563 100.071Z" fill="#D8DEE8"/>
<path d="M141.321 104.471C138.566 101.847 135.51 99.355 132.511 97.0069C132.254 96.8057 132.126 96.8361 131.87 96.9962C130.575 97.8014 129.04 98.6641 127.761 99.4401C127.331 99.7004 127.224 100.031 127.561 100.444C130.025 103.465 132.644 106.606 135.05 109.688C135.31 110.022 135.569 110.04 135.912 109.782C137.665 108.463 139.639 106.969 141.289 105.53C141.676 105.192 141.7 104.833 141.321 104.471ZM131.555 99.963C131.233 100.247 130.814 100.014 130.586 99.71C130.358 99.4063 130.235 98.9217 130.547 98.6286C130.86 98.3356 131.281 98.5678 131.508 98.871C131.736 99.1747 131.878 99.6796 131.555 99.963Z" fill="#F4F7FA"/>
<path d="M129.769 98.3012C129.742 98.3068 129.711 98.286 129.695 98.2595C129.375 97.7152 128.979 97.1241 128.48 96.7589C127.108 95.753 125.553 95.6843 123.964 95.6234C122.374 95.5631 121.072 95.4566 119.926 94.3161C119.631 94.0231 119.331 93.5858 119.459 93.1784C119.51 93.0155 119.742 93.0082 119.889 92.9958C119.918 92.9936 119.966 93.0302 119.97 93.0787C119.974 93.1277 119.917 93.1485 119.896 93.1621C119.818 93.2133 119.596 93.1029 119.593 93.2793C119.585 93.6495 119.688 93.8653 120.076 94.2434C121.094 95.238 122.451 95.4268 123.979 95.46C125.568 95.4944 127.196 95.6037 128.58 96.622C129.085 96.9928 129.512 97.6132 129.834 98.1722C129.854 98.2077 129.833 98.2719 129.805 98.2871C129.779 98.3023 129.795 98.2956 129.769 98.3012Z" fill="#26264F"/>
<path d="M130.546 99.5105C130.497 99.5601 130.492 99.5551 130.483 99.4903C130.474 99.4255 130.374 99.5776 130.506 99.3302C130.637 99.0828 131.069 98.5447 130.897 97.9558C130.791 97.5935 130.807 97.2007 130.166 96.7933C128.794 95.9205 126.646 95.3355 124.938 94.8233C123.892 94.5094 122.721 94.1099 121.714 93.6794C121.485 93.5819 121.352 93.5261 121.139 93.4478C121.093 93.4309 121.076 93.3869 121.09 93.3436C121.104 93.3002 121.142 93.2754 121.189 93.2912C121.408 93.3667 121.543 93.427 121.777 93.5261C122.775 93.9505 123.951 94.3528 124.988 94.661C126.698 95.1687 128.889 95.774 130.261 96.6491C130.94 97.0818 130.941 97.531 131.055 97.9271C131.238 98.565 130.77 99.1747 130.628 99.4333C130.487 99.6909 130.595 99.461 130.546 99.5105Z" fill="#26264F"/>
<path d="M141.32 104.472C138.562 101.838 135.513 99.3691 132.51 97.0001C132.253 96.7973 132.122 96.8931 131.872 96.9816C131.76 97.0216 131.625 97.1529 131.51 97.2075C131.643 97.5823 131.863 98.0218 132.075 98.3278C133.174 99.9129 135.314 99.9788 135.947 101.616C136.504 103.06 135.14 104.122 135.082 105.849C135.052 106.707 135.594 108.604 136.391 109.407C138.017 108.205 139.788 106.854 141.288 105.531C141.676 105.19 141.701 104.835 141.32 104.472Z" fill="white"/>
<path d="M107.011 103.207C106.961 103.207 106.912 103.2 106.865 103.185L92.1961 98.6714C91.9314 98.5896 91.7819 98.3056 91.8619 98.0374C91.9425 97.7692 92.2239 97.6182 92.4874 97.6987L107.062 102.183L153.337 97.6148C153.618 97.5844 153.858 97.7917 153.885 98.0712C153.912 98.3507 153.711 98.5992 153.435 98.6263L107.059 103.204C107.043 103.206 107.027 103.207 107.011 103.207Z" fill="#D8DEE8"/>
<path d="M115.913 122.25C115.721 122.25 115.544 122.138 115.46 121.959L106.557 102.916C106.439 102.663 106.545 102.36 106.796 102.239C107.046 102.12 107.345 102.227 107.463 102.481L116.216 121.202L147.753 118.163C148.033 118.136 148.274 118.342 148.3 118.621C148.326 118.9 148.124 119.148 147.848 119.175L115.96 122.247C115.945 122.25 115.929 122.25 115.913 122.25Z" fill="#D8DEE8"/>
<path d="M115.914 122.25C115.874 122.25 115.832 122.245 115.791 122.235L103.212 119.034C103.077 118.999 102.961 118.909 102.894 118.785L91.9019 98.4291C91.769 98.1829 91.8585 97.8741 92.1009 97.7394C92.3439 97.6053 92.6486 97.6954 92.7815 97.9411L103.668 118.102L116.035 121.249C116.304 121.318 116.467 121.594 116.4 121.866C116.343 122.096 116.138 122.25 115.914 122.25Z" fill="#D8DEE8"/>
<path d="M110.249 110.134C110.201 110.134 110.154 110.127 110.107 110.113L96.2918 106.009C96.026 105.93 95.8737 105.648 95.9515 105.378C96.0293 105.109 96.309 104.955 96.5737 105.033L110.299 109.11L151.094 105.505C151.374 105.476 151.612 105.687 151.637 105.967C151.661 106.246 151.457 106.492 151.181 106.517L110.292 110.131C110.278 110.133 110.263 110.134 110.249 110.134Z" fill="#D8DEE8"/>
<path d="M113.624 117.353C113.579 117.353 113.533 117.347 113.489 117.335L100.254 113.577C99.9872 113.501 99.8315 113.221 99.9066 112.951C99.9811 112.68 100.258 112.523 100.524 112.599L113.672 116.331L149.097 113.19C149.372 113.161 149.615 113.373 149.64 113.652C149.664 113.932 149.46 114.178 149.184 114.203L113.668 117.351C113.653 117.352 113.639 117.353 113.624 117.353Z" fill="#D8DEE8"/>
<path d="M122.425 121.623C122.209 121.623 122.01 121.48 121.944 121.26L116.267 101.955C116.188 101.686 116.339 101.403 116.605 101.323C116.869 101.242 117.149 101.395 117.228 101.665L122.906 120.969C122.985 121.238 122.834 121.522 122.568 121.602C122.52 121.616 122.472 121.623 122.425 121.623Z" fill="#D8DEE8"/>
<path d="M128.705 121.017C128.466 121.017 128.255 120.844 128.212 120.597L124.807 101.039C124.759 100.763 124.941 100.499 125.213 100.45C125.485 100.402 125.747 100.586 125.794 100.862L129.199 120.42C129.247 120.697 129.065 120.96 128.793 121.009C128.764 121.015 128.734 121.017 128.705 121.017Z" fill="#D8DEE8"/>
<path d="M135.788 120.201C135.524 120.201 135.303 119.992 135.288 119.721L134.215 100.301C134.199 100.02 134.411 99.7809 134.687 99.7652C134.966 99.7545 135.2 99.9641 135.216 100.244L136.289 119.664C136.305 119.945 136.093 120.184 135.817 120.2C135.808 120.2 135.798 120.201 135.788 120.201Z" fill="#D8DEE8"/>
<path d="M142.5 119.439C142.491 119.439 142.482 119.439 142.473 119.438C142.196 119.424 141.984 119.185 141.999 118.904L143.02 99.1741C143.034 98.8941 143.268 98.6788 143.547 98.6935C143.824 98.7081 144.035 98.947 144.021 99.2277L143 118.958C142.986 119.229 142.765 119.439 142.5 119.439Z" fill="#D8DEE8"/>
<path d="M112.109 121.282C111.922 121.282 111.743 121.176 111.657 120.994L102.481 101.664C102.361 101.411 102.466 101.108 102.715 100.986C102.965 100.865 103.265 100.971 103.385 101.224L112.561 120.554C112.681 120.807 112.576 121.11 112.327 121.232C112.256 121.266 112.182 121.282 112.109 121.282Z" fill="#D8DEE8"/>
<path d="M107.011 119.985C106.827 119.985 106.65 119.882 106.562 119.704L96.8211 99.9286C96.6972 99.6773 96.7978 99.3724 97.0458 99.2473C97.2938 99.1211 97.5951 99.2242 97.718 99.475L107.459 119.25C107.583 119.501 107.482 119.806 107.234 119.931C107.162 119.967 107.086 119.985 107.011 119.985Z" fill="#D8DEE8"/>
<path d="M118.031 140.122C117.967 140.122 117.905 140.11 117.846 140.087L100.35 136.48C100.092 136.376 99.9659 136.081 100.068 135.82C100.171 135.559 100.462 135.431 100.719 135.535L118.097 139.094L139.988 136.383C141.546 136.191 142.823 135.074 143.24 133.541L155.24 89.3882C155.788 87.3731 157.538 85.9176 159.594 85.7666L165.962 85.2989C166.235 85.2825 166.478 85.4888 166.498 85.7688C166.518 86.0489 166.31 86.2923 166.035 86.3126L159.667 86.7803C158.033 86.9004 156.642 88.0567 156.207 89.6582L144.206 133.811C143.681 135.743 142.073 137.149 140.11 137.393L118.092 140.119C118.071 140.121 118.051 140.122 118.031 140.122Z" fill="#D8DEE8"/>
</g>
<mask id="mask0_2215_10386" style="mask-type:alpha" maskUnits="userSpaceOnUse" x="0" y="90" width="231" height="206">
<rect y="90" width="231" height="206" fill="url(#paint18_linear_2215_10386)"/>
</mask>
<g mask="url(#mask0_2215_10386)">
<path d="M138.32 161.25C139.286 160.184 140.255 159.119 141.222 158.054C142.289 158.143 159.871 159.872 166.185 173.334C167.053 175.185 170.253 182.01 167.202 187.348C162.087 196.296 141.775 196.927 130.225 187.896C121.151 180.798 117.373 167.645 121.024 164.369C125.441 160.406 142.995 168.888 144.331 169.534C147.015 170.83 149.508 172.278 149.807 171.886C150.316 171.22 143.999 165.869 138.32 161.25Z" fill="#E14757"/>
<path d="M30.9828 284.86C30.9828 284.86 31.3737 282.469 29.7393 281.557C28.1068 280.644 19.7431 278.669 15.9337 279.438C12.1247 280.209 15.8372 282.521 18.3787 283.749C20.9203 284.976 26.7609 287.453 28.1368 287.502C29.5103 287.55 30.9828 284.86 30.9828 284.86Z" fill="#DB5381"/>
<path d="M38.5978 287.449C36.0062 286.168 33.7796 285.205 32.1062 284.524C28.4044 283.015 26.818 282.631 25.2754 282.455C23.9297 282.302 20.9154 282.111 20.7735 282.739C20.6299 283.376 23.581 284.272 31.1438 287.899C32.2421 288.425 35.7309 290.11 35.7309 290.11L38.5978 287.449Z" fill="#FFB27D"/>
<path d="M144.09 240.523C150.312 244.793 150.799 252.47 152.073 266.155C153.141 277.635 154.877 294.584 157.668 315.927C159.255 330.883 160.841 345.839 162.427 360.794C159.83 361.28 157.231 361.767 154.634 362.254C150.037 356.265 144.079 346.894 141.219 334.472C138.849 324.182 141.035 322.362 139.007 310.585C137.892 304.109 136.534 300.617 125.581 273.653C116.869 252.204 115.197 248.186 117.646 244.213C121.966 237.206 136.18 235.094 144.09 240.523Z" fill="#214D63"/>
<path opacity="0.4" d="M150.262 345.63C150.724 341.289 153.378 336.445 151.885 328.295C150.124 318.677 144.92 317.173 143.69 308.075C142.509 299.332 146.927 297.85 146.419 289.114C145.828 278.965 139.661 277.442 135.216 266.148C131.162 255.844 131.524 244.99 132.729 237.555C126.472 237.614 120.241 240.047 117.633 244.294C115.194 248.264 116.858 252.28 125.533 273.715C136.44 300.66 137.79 304.151 138.9 310.623C140.919 322.393 138.741 324.209 141.102 334.494C143.952 346.908 149.882 356.274 154.459 362.258C155.315 362.097 156.17 361.936 157.028 361.775C151.307 355.188 149.811 349.885 150.262 345.63Z" fill="#0D44D2"/>
<path d="M31.0427 289.841C45.2937 302.527 71.7172 322.953 89.1259 315.417C98.3306 311.431 99.9116 301.836 120.198 258.777C125.077 248.422 129.285 239.853 132.284 233.829C120.66 233.241 109.034 232.651 97.4103 232.063C92.5183 245.355 89.789 256.347 88.2184 263.718C84.467 281.338 84.2402 292.902 77.7735 294.804C74.6121 295.735 72.0063 293.756 66.7964 291.13C59.9754 287.693 49.6874 283.651 35.209 281.761C33.8218 284.453 32.4332 287.147 31.0427 289.841Z" fill="#214D63"/>
<path d="M-38.1595 155.939C-36.444 135.275 -8.4044 120.429 8.54096 125.219C20.7489 128.668 21.8718 140.804 34.4872 141.999C45.7233 143.062 47.906 133.724 61.297 134.665C71.773 135.401 74.6663 141.415 85.3123 139.929C89.615 139.327 91.7892 137.977 97.8976 137.881C102.609 137.81 106.852 137.8 110.811 140.512C111.496 140.982 117.08 144.91 117.099 151.015C117.121 157.95 110.287 162.003 108.358 163.146C101.951 166.947 95.7598 166.07 91.8983 166.415C70.9089 168.286 71.057 202.704 43.6694 218.168C28.4817 226.743 7.46997 227.996 -0.94083 219.715C-1.84659 218.823 -7.45711 213.299 -7.12345 206.394C-6.86469 201.039 -3.23081 199.078 -4.40215 195.851C-6.04628 191.316 -13.5239 191.217 -20.1192 188.035C-31.4271 182.579 -39.1504 167.873 -38.1595 155.939Z" fill="#214D63"/>
<path d="M84.4625 167.814C92.918 166.208 103.415 164.348 114.359 163.449C137.887 161.514 139.373 172.756 137.383 183.628C135.355 194.722 137.465 203.792 138.25 207.012C139.513 212.2 141.395 216.198 145.162 224.193C151.702 238.082 154.96 240.946 153.364 245.106C151.036 251.171 141.18 252.728 139.443 252.968C130.653 254.182 127.74 249.589 120.234 250.173C111.512 250.851 110.878 257.408 99.9235 263.779C86.9925 271.301 68.6984 273.352 58.376 265.852C54.3898 262.957 51.2743 258.51 52.3357 256.731C53.7796 254.308 61.6449 259.042 68.1387 255.376C72.4405 252.946 71.277 249.577 76.1059 245.18C81.9177 239.888 86.4935 242.135 90.4645 238.678C96.6569 233.285 92.569 221.68 88.9153 202.003C87.3997 193.853 85.5672 182.197 84.4625 167.814Z" fill="#DB5381"/>
<path d="M84.5657 168.019C72.3689 170.899 70.642 184.147 58.3068 188.999C50.8331 191.939 38.7681 192.068 18.6918 179.47C16.5537 180.971 14.4156 182.473 12.278 183.977C17.7483 197.63 26.2104 204.285 30.2438 206.999C53.2936 222.51 89.1012 215.224 105.042 195.268C110.045 189.006 112.237 182.563 113.287 178.402C105.538 172.14 94.8177 165.598 84.5657 168.019Z" fill="#DB5381"/>
<path d="M109.902 153.833C109.019 153.442 108.014 153.99 107.91 154.917C107.623 157.479 106.845 161.894 104.795 163.341C101.846 165.425 96.7834 165.695 96.2883 166.395C95.7948 167.093 112.747 171.925 122.186 166.536C122.251 166.499 122.315 166.454 122.375 166.407L122.89 165.995C123.911 165.182 123.292 163.566 121.957 163.561C119.91 163.552 114.451 163.08 112.687 161.148C112.484 160.926 112.019 158.974 111.995 158.68L111.729 155.426C111.688 154.924 111.363 154.478 110.886 154.267L109.902 153.833Z" fill="#FFB27D"/>
<path d="M107.057 155.718C104.834 153.977 105.345 151.124 105.75 150.428C106.325 149.438 107.576 148.64 108.439 148.525C111.029 148.183 116.528 154.138 114.368 156.506C111.958 159.15 108.561 157.581 108.561 157.581C108.285 157.672 107.666 157.831 106.955 157.623C106.749 157.561 105.847 157.294 105.799 156.778C105.76 156.37 106.264 155.881 107.057 155.718Z" fill="#FFB27D"/>
<path d="M16.9168 181.256L15.2943 179.273C15.2943 179.273 19.1626 168.858 14.0274 168.262C8.89004 167.665 10.8211 170.075 11.6404 171.246C12.4592 172.415 12.4729 176.725 11.9082 178.146C11.344 179.569 13.706 183.515 13.706 183.515L16.9168 181.256Z" fill="#FFB27D"/>
<path opacity="0.5" d="M77.8431 261.528C80.4654 258.948 77.5099 255.395 80.2828 251.565C82.8204 248.059 86.6596 249.15 91.9841 246.534C98.3839 243.39 102.504 237.067 103.918 231.95C104.926 228.301 104.317 226.149 99.0494 209.399C94.0314 193.447 92.7485 189.561 90.4779 189.438C86.3458 189.212 85.4047 201.792 77.7156 203.225C73.373 204.035 71.9627 200.34 66.0642 199.37C56.0495 197.725 51.1268 206.893 41.1368 208.447C38.5841 208.844 35.3684 208.777 31.4441 207.522C48.6293 218.205 72.3001 216.832 89.6745 207.31C92.9832 223.856 95.844 233.903 90.2195 238.802C86.2519 242.257 81.6772 240.01 75.8661 245.302C71.0389 249.698 72.2001 253.065 67.9017 255.494C61.4102 259.159 53.548 254.428 52.1043 256.849C51.1422 258.462 53.6245 262.256 57.0653 265.11C58.5223 264.173 60.1833 263.383 62.069 262.881C69.277 260.965 74.748 264.573 77.8431 261.528Z" fill="#E14757"/>
<path d="M158.855 129.115L158.775 126.755L161.661 125.466C162.305 125.177 163.072 125.33 163.56 125.842C166.14 128.553 173.61 137.59 172.27 150.162C172.2 150.822 171.71 151.362 171.043 151.516C169.833 151.791 168.481 151.916 168.481 151.916L158.855 129.115Z" fill="#6A3E2D"/>
<path d="M138.601 150.611L137.426 157.848C137.426 157.848 136.782 159.836 136.839 160.713C135.661 161.449 133.465 161.23 133.465 161.23L132.216 152.157L138.373 150.508L138.601 150.611Z" fill="url(#paint19_linear_2215_10386)"/>
<path d="M140.801 159.398L139.297 156.798C139.297 156.798 137.711 154.719 134.545 154.903C131.377 155.088 131.759 156.69 131.759 156.69L133.894 156.891C133.894 156.891 135.274 157.012 136.559 158.668C138.207 160.291 139.654 160.906 139.654 160.906L140.801 159.398Z" fill="#FFB27D"/>
<path d="M126.477 147.866C126.477 147.866 150.561 137.591 158.604 126.789C170.22 134.688 168.407 152.119 168.407 152.119C168.407 152.119 139.598 151.15 128.826 154.507C126.027 152.804 126.477 147.866 126.477 147.866Z" fill="#B35734"/>
<path d="M178.978 154.585C178.352 154.09 178.009 153.291 178.155 152.472C182.162 129.891 167.955 121.073 167.815 120.989C166.736 120.343 166.389 118.976 167.041 117.94C167.692 116.904 169.095 116.59 170.175 117.238C170.875 117.656 187.183 127.772 182.654 153.287C182.441 154.487 181.262 155.278 180.017 155.053C179.625 154.983 179.272 154.816 178.978 154.585Z" fill="white"/>
<path d="M178.019 110.557C178.776 109.354 180.406 108.988 181.659 109.74C182.472 110.226 201.41 121.973 196.151 151.605C195.905 152.999 194.533 153.918 193.091 153.657C192.632 153.575 192.221 153.381 191.882 153.112C191.156 152.536 190.756 151.609 190.926 150.659C195.579 124.435 179.079 114.194 178.919 114.097C177.664 113.347 177.262 111.759 178.019 110.557Z" fill="white"/>
</g>
<defs>
<linearGradient id="paint0_linear_2215_10386" x1="98.7535" y1="137.408" x2="99.8229" y2="138.295" gradientUnits="userSpaceOnUse">
<stop stop-color="#AA80F9"/>
<stop offset="0.9964" stop-color="#6165D7"/>
</linearGradient>
<linearGradient id="paint1_linear_2215_10386" x1="99.4395" y1="139.192" x2="103.263" y2="139.192" gradientUnits="userSpaceOnUse">
<stop stop-color="#AA80F9"/>
<stop offset="0.9964" stop-color="#6165D7"/>
</linearGradient>
<linearGradient id="paint2_linear_2215_10386" x1="100.55" y1="139.243" x2="102.152" y2="139.243" gradientUnits="userSpaceOnUse">
<stop stop-color="#40447E"/>
<stop offset="0.9964" stop-color="#3C3B6B"/>
</linearGradient>
<linearGradient id="paint3_linear_2215_10386" x1="119.222" y1="135.173" x2="120.292" y2="136.06" gradientUnits="userSpaceOnUse">
<stop stop-color="#AA80F9"/>
<stop offset="0.9964" stop-color="#6165D7"/>
</linearGradient>
<linearGradient id="paint4_linear_2215_10386" x1="119.908" y1="136.957" x2="123.732" y2="136.957" gradientUnits="userSpaceOnUse">
<stop stop-color="#AA80F9"/>
<stop offset="0.9964" stop-color="#6165D7"/>
</linearGradient>
<linearGradient id="paint5_linear_2215_10386" x1="121.019" y1="137.008" x2="122.621" y2="137.008" gradientUnits="userSpaceOnUse">
<stop stop-color="#40447E"/>
<stop offset="0.9964" stop-color="#3C3B6B"/>
</linearGradient>
<linearGradient id="paint6_linear_2215_10386" x1="148.498" y1="85.1189" x2="167" y2="85.1189" gradientUnits="userSpaceOnUse">
<stop stop-color="#40447E"/>
<stop offset="0.9964" stop-color="#3C3B6B"/>
</linearGradient>
<linearGradient id="paint7_linear_2215_10386" x1="116.062" y1="140.667" x2="117.131" y2="141.554" gradientUnits="userSpaceOnUse">
<stop stop-color="#AA80F9"/>
<stop offset="0.9964" stop-color="#6165D7"/>
</linearGradient>
<linearGradient id="paint8_linear_2215_10386" x1="116.748" y1="142.451" x2="120.571" y2="142.451" gradientUnits="userSpaceOnUse">
<stop stop-color="#AA80F9"/>
<stop offset="0.9964" stop-color="#6165D7"/>
</linearGradient>
<linearGradient id="paint9_linear_2215_10386" x1="117.858" y1="142.502" x2="119.46" y2="142.502" gradientUnits="userSpaceOnUse">
<stop stop-color="#40447E"/>
<stop offset="0.9964" stop-color="#3C3B6B"/>
</linearGradient>
<linearGradient id="paint10_linear_2215_10386" x1="133.783" y1="138.869" x2="134.853" y2="139.756" gradientUnits="userSpaceOnUse">
<stop stop-color="#AA80F9"/>
<stop offset="0.9964" stop-color="#6165D7"/>
</linearGradient>
<linearGradient id="paint11_linear_2215_10386" x1="134.469" y1="140.653" x2="138.293" y2="140.653" gradientUnits="userSpaceOnUse">
<stop stop-color="#AA80F9"/>
<stop offset="0.9964" stop-color="#6165D7"/>
</linearGradient>
<linearGradient id="paint12_linear_2215_10386" x1="135.58" y1="140.704" x2="137.182" y2="140.704" gradientUnits="userSpaceOnUse">
<stop stop-color="#40447E"/>
<stop offset="0.9964" stop-color="#3C3B6B"/>
</linearGradient>
<linearGradient id="paint13_linear_2215_10386" x1="108.727" y1="86.937" x2="121.351" y2="86.3954" gradientUnits="userSpaceOnUse">
<stop stop-color="#311944"/>
<stop offset="1" stop-color="#893976"/>
</linearGradient>
<linearGradient id="paint14_linear_2215_10386" x1="125.824" y1="101.328" x2="142.267" y2="139.432" gradientUnits="userSpaceOnUse">
<stop stop-color="#AA80F9"/>
<stop offset="0.9964" stop-color="#6165D7"/>
</linearGradient>
<linearGradient id="paint15_linear_2215_10386" x1="127.639" y1="75.2359" x2="121.934" y2="123.282" gradientUnits="userSpaceOnUse">
<stop stop-color="#311944"/>
<stop offset="1" stop-color="#893976"/>
</linearGradient>
<linearGradient id="paint16_linear_2215_10386" x1="130.597" y1="74.5259" x2="115.18" y2="103.465" gradientUnits="userSpaceOnUse">
<stop stop-color="#311944"/>
<stop offset="1" stop-color="#893976"/>
</linearGradient>
<linearGradient id="paint17_linear_2215_10386" x1="141.073" y1="77.1915" x2="124.469" y2="108.36" gradientUnits="userSpaceOnUse">
<stop stop-color="#311944"/>
<stop offset="1" stop-color="#893976"/>
</linearGradient>
<linearGradient id="paint18_linear_2215_10386" x1="-47.8997" y1="58.9522" x2="95.313" y2="364.929" gradientUnits="userSpaceOnUse">
<stop stop-color="#4F5C8E"/>
<stop offset="0.397905" stop-color="#213360"/>
<stop offset="0.875393" stop-color="#000C36"/>
</linearGradient>
<linearGradient id="paint19_linear_2215_10386" x1="144.825" y1="151.59" x2="122.259" y2="163.311" gradientUnits="userSpaceOnUse">
<stop stop-color="#AB316D"/>
<stop offset="1" stop-color="#792D3D"/>
</linearGradient>
<clipPath id="clip0_2215_10386">
<rect width="123" height="145" fill="white" transform="translate(44)"/>
</clipPath>
</defs>
</svg>
