<svg width="144" height="36" viewBox="0 0 144 36" fill="none" xmlns="http://www.w3.org/2000/svg">
<path d="M61.6751 23.9703C61.6751 30.2775 58.524 33.6549 52.1552 33.6549C49.2411 33.6549 46.2604 33.138 43.8886 31.2073L46.7004 26.9332C48.2589 28.2775 49.9862 29.1049 52.0529 29.1049C55.1358 29.1049 56.5921 27.3824 56.5921 25.0042V23.3841H56.5239C55.3712 25.0042 53.4069 25.5905 51.8824 25.5905C47.004 25.5905 43.7847 22.0067 43.7847 16.9398C43.7847 12.4939 46.6306 8.21973 51.3061 8.21973C54.1861 8.21973 56.1505 9.63343 56.9297 10.839H56.9979V8.63261H61.6735V23.9703H61.6751ZM52.9344 21.0405C55.2381 21.0405 56.9995 19.0752 56.9995 16.9051C56.9995 14.735 55.2381 12.7697 52.9344 12.7697C50.6308 12.7697 48.8693 14.735 48.8693 16.9051C48.8693 19.0752 50.6308 21.0405 52.9344 21.0405Z" fill="#414042"/>
<path d="M74.2779 8.21973C79.3593 8.21973 83.426 11.6665 83.426 17.0075C83.426 22.3502 79.3609 25.7953 74.2779 25.7953C69.1965 25.7953 65.1313 22.3485 65.1313 17.0075C65.1313 11.6665 69.1965 8.21973 74.2779 8.21973ZM74.2779 21.247C76.8186 21.247 78.343 19.5244 78.343 17.0075C78.343 14.4922 76.8186 12.768 74.2779 12.768C71.7372 12.768 70.2127 14.4906 70.2127 17.0075C70.2127 19.5244 71.7372 21.247 74.2779 21.247Z" fill="#414042"/>
<path d="M86.8809 8.63261H91.5564V10.839H91.6246C92.4038 9.63343 94.3682 8.21973 96.6719 8.21973C101.55 8.21973 104.77 11.8035 104.77 16.8704C104.77 21.5228 101.924 25.7969 97.2482 25.7969C95.1475 25.7969 93.1831 25.2106 92.0304 23.5905H91.9623V33.2404H86.8809V8.63261ZM95.6215 21.247C98.1622 21.247 99.6866 19.5244 99.6866 17.0075C99.6866 14.4922 98.1622 12.768 95.6215 12.768C93.0808 12.768 91.5564 14.4906 91.5564 17.0075C91.5564 19.5244 93.0808 21.247 95.6215 21.247Z" fill="#414042"/>
<path d="M118.082 23.28H118.013C116.897 25.0719 114.862 25.7952 112.796 25.7952C109.713 25.7952 106.935 24.0033 106.935 20.626C106.935 14.8357 113.846 14.7333 118.082 14.7333C118.082 12.9067 116.591 11.7341 114.83 11.7341C113.169 11.7341 111.781 12.4922 110.697 13.7325L107.985 10.9067C109.849 9.1148 112.559 8.21802 115.236 8.21802C121.165 8.21802 122.757 11.2849 122.757 16.8687V25.3824H118.082V23.28ZM116.828 18.0413C115.27 18.0413 111.814 18.1784 111.814 20.4542C111.814 21.6945 113.101 22.2808 114.219 22.2808C116.218 22.2808 118.082 21.2122 118.082 19.1445V18.0413H116.828Z" fill="#414042"/>
<path d="M135.428 28.1057C134.073 31.6549 133.293 33.6549 128.449 33.6549C127.162 33.6549 125.874 33.4484 124.655 33.0339L125.332 28.7944C126.111 29.1396 126.856 29.3113 127.704 29.3113C130.008 29.3113 130.381 28.3122 131.092 26.4856L131.464 25.5211L124.248 8.63257H129.736L133.97 19.6962H134.039L137.664 8.63257H142.881L135.428 28.1057Z" fill="#414042"/>
<path d="M37.5633 19.247C37.3783 11.7259 32.9771 10.4724 28.3567 10.4724C23.7348 10.4724 13.007 10.4724 10.5426 10.4724C7.95647 10.4724 8.44999 7.49472 10.1887 7.49472C16.4731 7.49472 30.1068 7.5261 30.1068 7.5261C30.1068 7.5261 30.2919 4.20322 26.2868 2.63757C22.2818 1.06862 6.94019 0.128902 3.73549 5.08184C0.530802 10.0331 0.96264 22.2561 1.763 26.7069C2.56336 31.1578 5.76805 33.9786 11.0053 34.3535C16.2426 34.7301 29.1815 35.2305 32.8797 33.351C36.5763 31.47 37.7468 26.7697 37.5633 19.247ZM31.49 23.0967V25.6582C31.49 26.304 30.9754 26.8275 30.3406 26.8275C29.7058 26.8275 29.1912 26.304 29.1912 25.6582V23.0967C28.5045 22.6921 28.0402 21.9373 28.0402 21.0719C28.0402 19.7788 29.0694 18.7317 30.3406 18.7317C31.6118 18.7317 32.641 19.7788 32.641 21.0719C32.641 21.9373 32.1783 22.6921 31.49 23.0967Z" fill="#2ABBDD"/>
</svg>
