<svg width="184" height="37" viewBox="0 0 184 37" fill="none" xmlns="http://www.w3.org/2000/svg">
<path d="M39.0777 19.3885C39.4219 18.8176 39.6469 18.1913 39.8837 17.5269C40.1305 16.8372 40.3841 16.1237 40.7887 15.4672C41.321 14.6046 42.1052 13.8879 43.0203 13.3885V7.96722C43.0203 7.28223 42.4326 6.72726 41.7072 6.72726H36.4566C35.7313 6.72726 35.1436 7.28223 35.1436 7.96722V14.4239H28.3062C27.5809 14.4239 26.9932 14.9788 26.9932 15.6638V20.6237C26.9932 21.3087 27.5809 21.8636 28.3062 21.8636H35.0915C36.727 21.6813 38.2583 20.7426 39.0777 19.3885Z" fill="#3EBFB8"/>
<path d="M50.9168 14.2954H43.7328C43.1213 14.7122 42.5982 15.246 42.2182 15.8635C41.8418 16.4744 41.6014 17.1505 41.3469 17.8668C41.0942 18.578 40.8309 19.3144 40.4208 19.9955C39.3976 21.6925 37.4765 22.8656 35.4282 23.0782V28.964C35.4282 29.687 36.0468 30.2727 36.8103 30.2727H42.3384C43.1018 30.2727 43.7204 29.687 43.7204 28.964V22.1477H50.9168C51.6803 22.1477 52.2989 21.5619 52.2989 20.839V15.6041C52.2989 14.8829 51.6803 14.2954 50.9168 14.2954Z" fill="black"/>
<path d="M62.6381 18.9825H57.2888V24.1585H54.8296V12.1061H57.2888V16.9404H62.6381V12.1061H65.1058V24.1585H62.6381V18.9825Z" fill="black"/>
<path d="M68.8754 20.4078C68.8698 20.8468 68.9402 21.2302 69.0867 21.558C69.2331 21.8803 69.4444 22.1304 69.7205 22.3082C70.0022 22.4804 70.3402 22.5666 70.7346 22.5666C71.1571 22.5666 71.5261 22.4777 71.8416 22.2998C72.1628 22.122 72.3853 21.8303 72.5092 21.4247H74.7318C74.636 22.0359 74.3881 22.5582 73.9881 22.9916C73.5938 23.4251 73.1149 23.7557 72.5515 23.9835C71.9881 24.2113 71.4022 24.3252 70.7937 24.3252C69.9317 24.3252 69.1712 24.1474 68.512 23.7918C67.8585 23.4306 67.3486 22.9222 66.9824 22.2665C66.6162 21.6108 66.4331 20.8384 66.4331 19.9494C66.4331 19.0881 66.5993 18.3129 66.9317 17.6239C67.2641 16.9293 67.7458 16.382 68.3768 15.9819C69.0134 15.5763 69.7768 15.3735 70.667 15.3735C71.5571 15.3735 72.3036 15.5596 72.9064 15.9319C73.5149 16.2986 73.9712 16.8126 74.2755 17.4739C74.5853 18.1296 74.7403 18.888 74.7403 19.7493V20.4078H68.8754ZM68.8669 18.9575H72.4332C72.4332 18.613 72.3684 18.2963 72.2388 18.0073C72.1092 17.7184 71.912 17.4905 71.6473 17.3238C71.3881 17.1571 71.0613 17.0738 70.667 17.0738C70.2839 17.0738 69.9571 17.1655 69.6867 17.3489C69.4219 17.5267 69.2191 17.76 69.0782 18.049C68.9374 18.3379 68.8669 18.6408 68.8669 18.9575Z" fill="black"/>
<path d="M78.8196 24.3252C78.2619 24.3252 77.7605 24.2224 77.3154 24.0169C76.8703 23.8113 76.5182 23.514 76.259 23.125C75.9999 22.7305 75.8703 22.2526 75.8703 21.6914C75.8703 20.7468 76.228 20.0299 76.9435 19.541C77.659 19.0464 78.7886 18.7908 80.3323 18.7741L81.4225 18.7575V18.2407C81.4225 17.8462 81.3042 17.5433 81.0675 17.3322C80.8366 17.1155 80.476 17.0099 79.9858 17.0155C79.6253 17.021 79.2816 17.1044 78.9548 17.2655C78.6337 17.4266 78.414 17.7073 78.2957 18.1073H76.2421C76.2759 17.485 76.459 16.9738 76.7914 16.5737C77.1238 16.1681 77.5745 15.868 78.1436 15.6735C78.7182 15.4735 79.3689 15.3735 80.0957 15.3735C80.9915 15.3735 81.7098 15.4846 82.2507 15.7069C82.7915 15.9236 83.1831 16.2375 83.4253 16.6487C83.6676 17.0543 83.7887 17.5378 83.7887 18.099V24.1585H81.7267L81.5239 22.6749C81.2253 23.2973 80.8506 23.7279 80.3999 23.9668C79.9548 24.2058 79.4281 24.3252 78.8196 24.3252ZM79.6478 22.7249C79.8732 22.7249 80.0901 22.686 80.2985 22.6082C80.5126 22.5249 80.7013 22.4165 80.8647 22.2832C81.0337 22.1443 81.169 21.9887 81.2704 21.8164C81.3718 21.6442 81.4225 21.4663 81.4225 21.283V20.0077L80.5351 20.0244C80.1239 20.0299 79.7408 20.08 79.3858 20.1744C79.0309 20.2633 78.7436 20.4106 78.5238 20.6162C78.3098 20.8218 78.2027 21.0996 78.2027 21.4497C78.2027 21.8498 78.3436 22.1637 78.6253 22.3915C78.9069 22.6138 79.2478 22.7249 79.6478 22.7249Z" fill="black"/>
<path d="M88.4239 24.3086C87.7816 24.3086 87.2717 24.2336 86.8943 24.0835C86.5168 23.9335 86.2379 23.7362 86.0576 23.4917C85.8773 23.2417 85.7618 22.9666 85.7111 22.6666C85.6604 22.361 85.6351 22.0526 85.6351 21.7414V11.7727H88.052V21.4413C88.052 21.7581 88.1196 22.0165 88.2548 22.2165C88.3957 22.411 88.6577 22.5304 89.0408 22.5749L89.4549 22.5999V24.1002C89.2858 24.1558 89.114 24.203 88.9394 24.2419C88.7647 24.2864 88.5929 24.3086 88.4239 24.3086Z" fill="black"/>
<path d="M95.9484 17.2322H94.0047L94.0216 21.8247C94.0216 22.0359 94.047 22.1943 94.0977 22.2998C94.154 22.3999 94.2385 22.4665 94.3512 22.4999C94.4695 22.5277 94.6188 22.5416 94.7991 22.5416H95.9737V24.0419C95.8611 24.0919 95.6836 24.1391 95.4413 24.1836C95.2047 24.228 94.8723 24.2502 94.4441 24.2502C93.6779 24.2502 93.0836 24.153 92.661 23.9585C92.2441 23.764 91.954 23.4917 91.7906 23.1417C91.6272 22.7916 91.5455 22.386 91.5455 21.9248V17.2322H90.1258V15.5402H91.63L92.2469 12.9396H94.0047V15.5318H95.9484V17.2322Z" fill="black"/>
<path d="M97.7713 24.1585V11.7727H100.222V16.7821C100.363 16.582 100.54 16.3848 100.754 16.1903C100.968 15.9902 101.236 15.8235 101.557 15.6902C101.878 15.5568 102.27 15.4901 102.732 15.4901C103.29 15.4901 103.797 15.5985 104.253 15.8152C104.715 16.0264 105.084 16.3348 105.36 16.7404C105.642 17.146 105.783 17.6406 105.783 18.224V24.1585H103.307V18.5824C103.307 18.1935 103.163 17.8962 102.876 17.6906C102.594 17.4794 102.25 17.3739 101.845 17.3739C101.58 17.3739 101.323 17.4211 101.076 17.5156C100.828 17.61 100.625 17.7545 100.467 17.949C100.315 18.1379 100.239 18.3741 100.239 18.6574V24.1585H97.7713Z" fill="black"/>
<path d="M108.813 26.9091C108.215 26.9091 107.793 26.8591 107.545 26.7591C107.303 26.6646 107.182 26.6174 107.182 26.6174V25.0671L108.044 25.1004C108.421 25.1226 108.725 25.1032 108.956 25.0421C109.187 24.9865 109.362 24.9115 109.48 24.817C109.604 24.7226 109.692 24.6225 109.742 24.517C109.793 24.4169 109.83 24.3364 109.852 24.2752L110.013 23.8001L106.615 15.5402H109.058L111.154 21.1579L113.275 15.5402H115.683L112.142 24.2086C111.838 24.942 111.517 25.5033 111.179 25.8922C110.841 26.2812 110.475 26.5479 110.08 26.6924C109.692 26.8369 109.269 26.9091 108.813 26.9091Z" fill="black"/>
<path d="M116.452 24.1585V15.5402H118.869V16.7571C119.134 16.3792 119.489 16.0541 119.934 15.7819C120.385 15.5096 120.951 15.3735 121.633 15.3735C121.931 15.3735 122.235 15.4262 122.545 15.5318C122.855 15.6374 123.145 15.793 123.416 15.9986C123.692 16.1986 123.914 16.4514 124.083 16.7571C124.365 16.3625 124.734 16.0347 125.19 15.7735C125.652 15.5068 126.165 15.3735 126.728 15.3735C127.055 15.3735 127.385 15.4262 127.717 15.5318C128.055 15.6374 128.365 15.8097 128.647 16.0486C128.928 16.2875 129.154 16.607 129.323 17.0071C129.497 17.4016 129.585 17.8906 129.585 18.4741V24.1585H127.117V18.7741C127.117 18.4296 127.047 18.1546 126.906 17.949C126.771 17.7378 126.596 17.5878 126.382 17.4989C126.173 17.4044 125.951 17.3572 125.714 17.3572C125.495 17.3572 125.272 17.4016 125.047 17.4905C124.821 17.5739 124.63 17.71 124.472 17.899C124.314 18.0879 124.235 18.3352 124.235 18.6408V24.1585H121.776V18.5574C121.776 18.2963 121.706 18.0768 121.565 17.899C121.424 17.7211 121.247 17.5878 121.033 17.4989C120.824 17.4044 120.61 17.3572 120.39 17.3572C120.165 17.3572 119.94 17.4044 119.714 17.4989C119.489 17.5878 119.3 17.7295 119.148 17.924C118.996 18.1129 118.92 18.3518 118.92 18.6408V24.1585H116.452Z" fill="black"/>
<path d="M133.278 20.4078C133.272 20.8468 133.343 21.2302 133.489 21.558C133.636 21.8803 133.847 22.1304 134.123 22.3082C134.405 22.4804 134.743 22.5666 135.137 22.5666C135.56 22.5666 135.929 22.4777 136.244 22.2998C136.565 22.122 136.788 21.8303 136.912 21.4247H139.134C139.039 22.0359 138.791 22.5582 138.391 22.9916C137.996 23.4251 137.517 23.7557 136.954 23.9835C136.391 24.2113 135.805 24.3252 135.196 24.3252C134.334 24.3252 133.574 24.1474 132.915 23.7918C132.261 23.4306 131.751 22.9222 131.385 22.2665C131.019 21.6108 130.836 20.8384 130.836 19.9494C130.836 19.0881 131.002 18.3129 131.334 17.6239C131.667 16.9293 132.148 16.382 132.779 15.9819C133.416 15.5763 134.179 15.3735 135.069 15.3735C135.96 15.3735 136.706 15.5596 137.309 15.9319C137.917 16.2986 138.374 16.8126 138.678 17.4739C138.988 18.1296 139.143 18.888 139.143 19.7493V20.4078H133.278ZM133.269 18.9575H136.836C136.836 18.613 136.771 18.2963 136.641 18.0073C136.512 17.7184 136.315 17.4905 136.05 17.3238C135.791 17.1571 135.464 17.0738 135.069 17.0738C134.686 17.0738 134.36 17.1655 134.089 17.3489C133.824 17.5267 133.622 17.76 133.481 18.049C133.34 18.3379 133.269 18.6408 133.269 18.9575Z" fill="black"/>
<path d="M143.594 24.3252C142.422 24.3252 141.509 23.9279 140.856 23.1333C140.202 22.3332 139.876 21.2218 139.876 19.7993C139.876 18.8992 140.008 18.1184 140.273 17.4572C140.538 16.796 140.929 16.2847 141.447 15.9236C141.966 15.5568 142.6 15.3735 143.349 15.3735C143.664 15.3735 143.957 15.4096 144.228 15.4818C144.504 15.5485 144.755 15.643 144.98 15.7652C145.205 15.8874 145.402 16.0291 145.571 16.1903C145.74 16.3514 145.879 16.5237 145.986 16.7071V11.7727H148.462V24.1585H146.67L146.391 22.3915C146.312 22.6305 146.202 22.8638 146.062 23.0917C145.921 23.3195 145.74 23.5279 145.521 23.7168C145.301 23.9002 145.031 24.0474 144.709 24.1585C144.394 24.2697 144.022 24.3252 143.594 24.3252ZM144.135 22.5749C144.755 22.5749 145.217 22.361 145.521 21.9331C145.831 21.5052 145.986 20.7829 145.986 19.766C145.98 19.177 145.91 18.688 145.774 18.299C145.639 17.9101 145.436 17.6211 145.166 17.4322C144.901 17.2377 144.563 17.1405 144.152 17.1405C143.617 17.1405 143.171 17.3433 142.817 17.7489C142.462 18.149 142.284 18.8214 142.284 19.766C142.284 20.7273 142.45 21.4358 142.783 21.8914C143.115 22.3471 143.566 22.5749 144.135 22.5749Z" fill="black"/>
</svg>
