<svg width="348" height="212" viewBox="0 0 348 212" fill="none" xmlns="http://www.w3.org/2000/svg">
<mask id="mask0_1816_11083" style="mask-type:alpha" maskUnits="userSpaceOnUse" x="0" y="0" width="348" height="212">
<rect width="348" height="212" rx="16" fill="#62A9E2"/>
</mask>
<g mask="url(#mask0_1816_11083)">
<path d="M312.927 182.503L313.027 181.952C313.472 181.824 313.917 181.697 314.362 181.548C315.285 181.251 315.408 180.222 314.651 179.681C314.306 179.437 313.95 179.203 313.594 178.98C313.728 178.28 313.861 177.59 313.995 176.89C314.073 176.508 313.95 176.126 313.583 175.924C313.261 175.733 312.771 175.765 312.493 176.041C311.981 176.561 311.459 177.081 310.936 177.601C310.313 177.335 309.679 177.091 309.022 176.879C308.633 176.752 308.155 176.932 307.91 177.229C307.632 177.569 307.621 177.961 307.799 178.354C308.066 178.927 308.333 179.5 308.6 180.063C308.366 180.339 308.132 180.614 307.91 180.89C307.876 180.901 307.854 180.922 307.821 180.933C307.509 181.092 307.32 181.4 307.276 181.718C307.242 181.771 307.209 181.814 307.165 181.867C307.009 182.089 307.098 182.387 307.298 182.546C307.42 182.641 307.565 182.673 307.698 182.652C307.943 182.822 308.255 182.875 308.6 182.832C309 182.779 309.401 182.716 309.801 182.652C310.101 183.299 310.402 183.957 310.702 184.605C311.058 185.358 312.482 185.241 312.627 184.392C312.749 183.766 312.816 183.14 312.927 182.503Z" fill="#F5B452"/>
<path d="M95.2431 23.7883L94.8203 23.4063C94.9538 22.9818 95.0873 22.5574 95.2097 22.1223C95.4544 21.2203 94.6201 20.5624 93.7301 20.8701C93.3297 21.0081 92.9292 21.1566 92.5287 21.3264C91.9947 20.8383 91.4496 20.3502 90.9156 19.8514C90.6264 19.5861 90.2259 19.4694 89.8477 19.6392C89.5028 19.7984 89.2581 20.2016 89.3582 20.573C89.5362 21.2734 89.7031 21.9737 89.8699 22.6741C89.2915 23.0243 88.7241 23.3957 88.1901 23.7989C87.8675 24.043 87.7563 24.5205 87.8898 24.8813C88.0344 25.2845 88.3681 25.5074 88.8131 25.5817C89.4583 25.6878 90.1036 25.7833 90.7488 25.8894C90.86 26.229 90.9713 26.5579 91.0936 26.8975C91.0936 26.9293 91.0936 26.9612 91.0825 26.993C91.0491 27.3326 91.216 27.6509 91.4719 27.8525C91.4941 27.9056 91.5164 27.9587 91.5386 28.0117C91.6499 28.2558 91.9613 28.3619 92.2061 28.277C92.3618 28.2346 92.4619 28.139 92.5176 28.0223C92.7957 27.9162 93.0182 27.6934 93.1628 27.4068C93.3408 27.0567 93.5076 26.7065 93.6634 26.3563C94.3976 26.473 95.1318 26.5898 95.866 26.7065C96.7226 26.8338 97.4012 25.6347 96.7337 25.0617C96.2443 24.616 95.7325 24.234 95.2431 23.7883Z" fill="#F5B452"/>
<path d="M14.6794 86.0773L14.5459 85.6635C14.8018 85.43 15.0577 85.186 15.3135 84.9419C15.8364 84.4219 15.536 83.6898 14.824 83.573C14.5014 83.52 14.1677 83.4775 13.8451 83.4457C13.6782 82.9257 13.5114 82.4058 13.3445 81.8858C13.2555 81.5993 13.033 81.3765 12.7104 81.3659C12.4212 81.3446 12.0986 81.5356 12.0096 81.8115C11.8538 82.3421 11.687 82.8727 11.5201 83.4032C10.9972 83.4245 10.4744 83.4775 9.95154 83.5518C9.64006 83.5943 9.37307 83.8808 9.31745 84.1673C9.2507 84.4962 9.39532 84.7615 9.6623 84.9737C10.0517 85.2708 10.4521 85.5786 10.8415 85.8757C10.7859 86.141 10.7303 86.4063 10.6746 86.6715C10.6635 86.6928 10.6524 86.714 10.6301 86.7352C10.4744 86.9474 10.4633 87.2233 10.5523 87.4568C10.5411 87.4992 10.5411 87.5417 10.53 87.5947C10.5078 87.7963 10.6746 87.9768 10.8749 88.0192C10.9972 88.0404 11.0974 88.0192 11.1864 87.9555C11.42 87.9873 11.6536 87.9237 11.8649 87.7751C12.1208 87.6053 12.3655 87.425 12.6214 87.2552C13.0664 87.5947 13.5114 87.9449 13.9563 88.2845C14.4792 88.6771 15.4136 88.1147 15.1911 87.4886C15.0132 86.9899 14.824 86.5442 14.6794 86.0773Z" fill="#F5B452"/>
<path d="M166.685 104.796L166.785 104.244C167.23 104.117 167.675 103.979 168.12 103.819C169.043 103.501 169.143 102.482 168.376 101.952C168.031 101.708 167.675 101.485 167.308 101.262C167.43 100.562 167.552 99.8614 167.675 99.1611C167.741 98.7791 167.619 98.397 167.252 98.1954C166.918 98.015 166.429 98.0469 166.173 98.3334C165.672 98.8639 165.149 99.3945 164.638 99.9145C164.004 99.6598 163.37 99.4264 162.713 99.2247C162.313 99.108 161.845 99.2884 161.612 99.5961C161.345 99.9463 161.334 100.328 161.523 100.721C161.801 101.283 162.079 101.856 162.346 102.419C162.112 102.695 161.89 102.971 161.667 103.257C161.634 103.268 161.612 103.289 161.578 103.299C161.267 103.459 161.078 103.766 161.056 104.095C161.022 104.148 160.989 104.191 160.955 104.244C160.811 104.467 160.889 104.774 161.1 104.923C161.222 105.019 161.367 105.04 161.501 105.019C161.745 105.178 162.068 105.231 162.402 105.188C162.802 105.135 163.203 105.061 163.592 104.987C163.904 105.634 164.215 106.281 164.526 106.918C164.894 107.661 166.318 107.523 166.44 106.674C166.529 106.058 166.573 105.432 166.685 104.796Z" fill="#F5B452"/>
<path d="M278.608 19.1828L278.074 18.9706C278.041 18.5249 278.008 18.0792 277.952 17.6442C277.841 16.721 276.817 16.392 276.105 16.9757C275.783 17.2409 275.46 17.5168 275.16 17.8033C274.47 17.5274 273.791 17.2515 273.102 16.9757C272.735 16.8271 272.312 16.8483 272.023 17.1454C271.767 17.4107 271.689 17.8776 271.911 18.1853C272.334 18.7796 272.757 19.3738 273.18 19.968C272.768 20.488 272.39 21.0398 272.034 21.5916C271.822 21.9311 271.9 22.4086 272.156 22.7057C272.445 23.0347 272.846 23.1302 273.28 23.0453C273.925 22.918 274.559 22.7906 275.204 22.6739C275.427 22.9498 275.66 23.2257 275.905 23.491C275.916 23.5228 275.927 23.5546 275.938 23.5759C276.027 23.9048 276.306 24.1489 276.628 24.2444C276.673 24.2868 276.706 24.3293 276.751 24.3717C276.94 24.5627 277.273 24.5521 277.474 24.3929C277.596 24.2974 277.652 24.1701 277.663 24.0428C277.885 23.8518 278.008 23.5653 278.041 23.2469C278.074 22.8649 278.097 22.4829 278.119 22.0903C278.853 21.9523 279.576 21.8144 280.31 21.6658C281.156 21.4961 281.345 20.1378 280.5 19.8301C279.854 19.6179 279.231 19.4269 278.608 19.1828Z" fill="#F5B452"/>
<path d="M149.041 21.7726C149.008 21.6877 148.974 21.6028 148.941 21.5178L148.841 21.2842C148.774 21.1674 148.685 21.0719 148.574 21.0082C148.507 20.9445 148.429 20.902 148.34 20.8808C148.218 20.8171 148.084 20.7852 147.94 20.7958C147.851 20.8065 147.751 20.8171 147.662 20.8277C147.584 20.8595 147.495 20.8914 147.417 20.9232C147.295 20.987 147.195 21.0719 147.128 21.1781C147.039 21.2736 146.972 21.3904 146.939 21.5178C146.905 21.6028 146.872 21.6877 146.839 21.7726C146.827 21.7939 146.827 21.8151 146.816 21.8363C146.783 21.9107 146.783 21.9425 146.772 22.0381C146.738 22.1867 146.738 22.3354 146.794 22.4946C146.816 22.6008 146.861 22.6963 146.916 22.7813C146.983 22.8662 147.05 22.9618 147.128 23.0467C147.228 23.1529 147.35 23.2272 147.495 23.2697C147.628 23.3334 147.784 23.3652 147.94 23.3652C148.04 23.3546 148.14 23.344 148.24 23.3228C148.44 23.2697 148.607 23.1741 148.752 23.0361C148.83 22.9512 148.897 22.8662 148.963 22.7707C149.03 22.6751 149.063 22.5795 149.086 22.484C149.097 22.3884 149.119 22.2823 149.13 22.1867C149.13 22.0168 149.097 21.9107 149.041 21.7726Z" fill="white"/>
<path d="M19.719 36.1398C19.7302 36.0762 19.7413 36.0125 19.7413 35.9488C19.7413 35.6199 19.6523 35.3121 19.4854 35.0256C19.1406 34.4738 18.5064 34.1236 17.839 34.1236H17.8278C17.572 34.113 17.3272 34.1661 17.0936 34.2828C16.86 34.3571 16.6598 34.4844 16.4818 34.6542L16.1814 35.015C16.0145 35.3015 15.9255 35.5986 15.9255 35.9276V35.9382C15.9255 36.5749 16.2926 37.1904 16.8711 37.5087C17.1715 37.6785 17.4941 37.7528 17.839 37.7528C17.9057 37.7528 17.9613 37.7315 18.0281 37.7315C18.4953 37.827 18.9959 37.6997 19.3408 37.3707C19.6745 37.0524 19.808 36.5855 19.719 36.1398Z" fill="white"/>
<path d="M38.2522 18.4294C37.6627 18.4294 37.6627 19.301 38.2522 19.301C38.8307 19.301 38.8307 18.4294 38.2522 18.4294Z" fill="white"/>
<path d="M42.3796 131.42C42.3129 131.293 42.2128 131.197 42.0904 131.123C41.9792 131.027 41.8568 130.963 41.701 130.932C41.6009 130.921 41.5008 130.91 41.4007 130.889C41.2004 130.889 41.0113 130.942 40.8333 131.038C40.7555 131.091 40.6776 131.155 40.5997 131.208C40.4551 131.346 40.3661 131.505 40.3105 131.685C40.2994 131.728 40.2994 131.77 40.2882 131.813C40.2437 131.951 40.2326 132.1 40.266 132.238C40.2771 132.386 40.3216 132.514 40.3995 132.641C40.4662 132.768 40.5663 132.864 40.6887 132.949C40.8 133.044 40.9223 133.108 41.0781 133.14C41.1782 133.151 41.2783 133.161 41.3784 133.182C41.5787 133.182 41.7678 133.129 41.9458 133.034C42.0237 132.981 42.1015 132.917 42.1794 132.864C42.324 132.726 42.413 132.567 42.4686 132.386L42.4909 132.259C42.5354 132.121 42.5465 131.972 42.5131 131.834C42.5131 131.675 42.4686 131.547 42.3796 131.42Z" fill="white"/>
<path d="M148.463 123.069C148.452 122.9 148.407 122.74 148.307 122.602C148.296 122.592 148.296 122.581 148.285 122.56C148.229 122.464 148.162 122.379 148.073 122.294C147.984 122.231 147.895 122.156 147.806 122.093C147.695 122.05 147.595 122.008 147.484 121.965H147.473C147.45 121.965 147.417 121.954 147.395 121.954C147.339 121.944 147.283 121.933 147.228 121.933C147.017 121.88 146.816 121.88 146.605 121.933C146.405 121.986 146.238 122.082 146.082 122.22C145.937 122.358 145.837 122.528 145.782 122.719C145.726 122.921 145.726 123.112 145.782 123.314C145.793 123.367 145.804 123.42 145.804 123.473C145.804 123.494 145.815 123.526 145.815 123.547C145.826 123.611 145.837 123.611 145.882 123.717C145.937 123.876 146.026 124.014 146.16 124.131C146.249 124.195 146.338 124.269 146.427 124.333C146.438 124.344 146.46 124.344 146.471 124.354C146.583 124.397 146.683 124.439 146.794 124.482C146.972 124.535 147.15 124.545 147.328 124.503C147.45 124.503 147.562 124.471 147.662 124.418C147.829 124.365 147.973 124.28 148.084 124.152C148.151 124.067 148.218 123.983 148.296 123.898C148.34 123.802 148.385 123.696 148.429 123.59C148.496 123.409 148.507 123.239 148.463 123.069Z" fill="white"/>
<path d="M302.882 92.4978C302.882 92.3916 302.848 92.2961 302.804 92.2005C302.759 92.0519 302.67 91.9351 302.548 91.8289C302.47 91.7652 302.381 91.7121 302.303 91.6484C302.203 91.6059 302.114 91.5741 302.014 91.5316C301.847 91.4785 301.691 91.4785 301.525 91.5104C301.358 91.521 301.213 91.5635 301.068 91.6484C301.002 91.6909 300.924 91.744 300.857 91.7864C300.668 91.8926 300.512 92.0413 300.401 92.2218C300.29 92.4129 300.234 92.6146 300.234 92.827C300.245 92.9331 300.267 93.0393 300.279 93.1455C300.334 93.3472 300.445 93.5277 300.601 93.6764C300.712 93.7931 300.846 93.8781 301.002 93.9206C301.157 93.9949 301.313 94.0267 301.491 94.0267C301.714 94.0267 301.936 93.9737 302.125 93.8675C302.314 93.7613 302.47 93.6127 302.581 93.4322C302.626 93.3684 302.681 93.2941 302.726 93.2304C302.77 93.1349 302.804 93.0499 302.848 92.9544C302.904 92.8057 302.915 92.6571 302.882 92.4978Z" fill="white"/>
<path d="M317.9 147.942C317.856 147.857 317.789 147.793 317.7 147.74C317.622 147.676 317.544 147.634 317.444 147.613C317.233 147.57 316.999 147.581 316.788 147.581C316.721 147.591 316.654 147.602 316.587 147.602C316.487 147.623 316.398 147.666 316.331 147.729C316.276 147.761 316.231 147.804 316.198 147.857C316.131 147.931 316.087 148.006 316.064 148.101C316.053 148.144 316.042 148.186 316.042 148.218C316.031 148.239 316.009 148.271 316.009 148.292C316.009 148.324 316.031 148.345 316.042 148.367H316.031C316.042 148.409 316.053 148.452 316.053 148.484C316.076 148.537 316.109 148.6 316.131 148.653C316.176 148.738 316.242 148.802 316.331 148.855C316.376 148.898 316.432 148.93 316.498 148.951C316.587 148.993 316.687 149.015 316.788 149.015C317.01 149.015 317.233 149.036 317.444 148.983C317.5 148.961 317.566 148.93 317.622 148.908C317.711 148.866 317.778 148.802 317.833 148.717C317.878 148.675 317.911 148.622 317.933 148.558C317.978 148.473 318 148.377 318 148.282C318 148.186 317.967 148.059 317.9 147.942Z" fill="white"/>
<path d="M301.324 201.7C301.28 201.615 301.246 201.519 301.202 201.434C301.146 201.36 301.079 201.286 301.024 201.212C300.912 201.105 300.79 201.02 300.645 200.978C300.556 200.925 300.456 200.904 300.345 200.904C300.189 200.872 300.034 200.872 299.878 200.925C299.789 200.967 299.689 200.999 299.6 201.042C299.522 201.095 299.444 201.158 299.366 201.212C299.255 201.318 299.166 201.434 299.121 201.573C299.066 201.657 299.044 201.753 299.044 201.859C299.01 202.008 299.021 202.156 299.066 202.305C299.11 202.39 299.144 202.486 299.188 202.571C299.244 202.645 299.311 202.719 299.366 202.794C299.455 202.879 299.555 202.942 299.655 202.985C299.667 202.985 299.667 202.995 299.678 202.995L299.689 203.006C299.711 203.017 299.733 203.017 299.756 203.027C299.8 203.048 299.833 203.07 299.889 203.08C299.9 203.08 299.9 203.08 299.911 203.091C299.867 203.07 299.822 203.059 299.778 203.038C299.867 203.08 299.956 203.123 300.056 203.123C300.189 203.155 300.323 203.144 300.456 203.101C300.467 203.101 300.468 203.101 300.479 203.101C300.568 203.07 300.668 203.027 300.757 202.995C300.768 202.995 300.768 202.985 300.779 202.985C300.868 202.932 300.957 202.868 301.035 202.804C301.146 202.698 301.235 202.581 301.28 202.443C301.335 202.358 301.357 202.263 301.357 202.156C301.38 201.997 301.38 201.849 301.324 201.7Z" fill="white"/>
<path d="M72.7828 142.817C72.7828 142.817 52.603 149.862 45.4611 156.993C39.4427 162.999 31.1772 203.386 31.1772 212.47C31.1772 221.553 46.4845 223.824 47.1631 224.8C47.8417 225.776 66.8869 237.449 68.5889 236.802C70.291 236.154 132.188 236.473 132.532 234.202C132.877 231.931 134.568 220.895 134.568 220.895C134.568 220.895 144.38 223.092 145.593 214.369C146.816 205.647 138.306 165.737 132.521 158.606C126.737 151.465 103.609 144.981 103.609 144.981C103.609 144.981 85.5871 142.381 84.8974 141.416C84.2299 140.45 72.7828 142.817 72.7828 142.817Z" fill="#589EC1"/>
<path d="M76.743 128.438L72.7827 142.806C72.7827 142.806 87.9676 153.089 103.62 144.981L100.894 130.062L76.743 128.438Z" fill="#F4B89E"/>
<path d="M120.807 91.6907C120.963 95.0333 122.32 101.846 118.583 105.74C114.845 109.635 109.405 95.3623 108.381 92.4335C107.358 89.5048 105.656 81.4083 108.037 80.7504C110.417 80.1031 120.807 91.6907 120.807 91.6907Z" fill="#5F3831"/>
<path d="M65.7966 191.565C65.7966 191.565 64.2948 188.658 66.8534 183.787C69.412 178.906 67.5987 173.335 69.1339 169.186C70.6691 165.037 74.0064 168.379 73.8952 170.088C73.784 171.807 74.0954 175.998 74.0954 175.998C74.0954 175.998 76.9878 168.04 78.078 164.496C79.1682 160.951 81.8937 157.938 83.5958 160.665C83.5958 160.665 87.5672 158.574 88.357 161.758C88.357 161.758 90.771 161.259 90.86 164.687C90.86 164.687 93.2184 165.716 92.2951 169.685C91.3606 173.653 89.3694 179.691 85.1643 185.665C80.9704 191.64 80.2807 194.473 75.4081 196.606C70.5467 198.76 66.5085 193.868 65.7966 191.565Z" fill="#F4B89E"/>
<path d="M54.4832 92.6457C54.4832 92.6457 52.5253 120.065 73.0388 126.942C93.4634 133.786 96.5782 93.155 94.9207 92.3273C93.2743 91.5103 88.5352 80.4108 86.1101 80.0075C83.6961 79.5937 72.8274 77.6306 70.2466 79.3178C67.6657 80.9944 54.4832 92.6457 54.4832 92.6457Z" fill="#5F3831"/>
<path d="M63.9723 183.596C66.3306 179.808 79.8024 189.751 82.183 193.327C84.5637 196.892 73.0053 216.683 61.091 225.766C49.1878 234.849 28.7855 229.013 31.1661 212.459C31.1661 212.47 55.3841 197.391 63.9723 183.596Z" fill="#589EC1"/>
<path d="M121.297 191.565C121.297 191.565 122.799 188.658 120.24 183.787C117.681 178.917 119.495 173.335 117.96 169.186C116.424 165.037 113.087 168.379 113.198 170.088C113.309 171.807 112.998 175.998 112.998 175.998C112.998 175.998 110.106 168.04 109.015 164.496C107.925 160.951 105.2 157.938 103.498 160.665C103.498 160.665 99.5263 158.574 98.7364 161.758C98.7364 161.758 96.3224 161.259 96.2334 164.687C96.2334 164.687 93.875 165.716 94.7983 169.685C95.7328 173.653 97.7241 179.691 101.929 185.665C106.123 191.64 106.813 194.473 111.685 196.606C116.536 198.76 120.574 193.868 121.297 191.565Z" fill="#F4B89E"/>
<path d="M122.009 183.161C120.496 179.214 108.57 188.085 106.279 191.459C103.987 194.834 111.307 215.399 120.006 225.341C128.706 235.284 145.815 231.019 145.581 214.38C145.593 214.38 127.538 197.529 122.009 183.161Z" fill="#589EC1"/>
<path d="M89.7699 140.121C94.598 140.111 98.714 138.561 101.962 135.94L100.906 130.157L100.672 130.041L76.7432 128.438L74.3069 137.256C78.8457 139.463 84.953 140.132 89.7699 140.121Z" fill="#EA9171"/>
<path d="M78.601 86.5017C78.601 86.5017 68.2775 92.9853 66.1639 101.008C66.1639 101.008 58.5881 98.5775 58.8217 107.014C59.0108 113.805 66.086 114.091 66.086 114.091C66.086 114.091 69.1119 136.789 93.3966 136.238C113.654 135.781 120.518 116.702 118.905 100.222C118.905 100.222 114.489 95.0333 109.727 83.3501C106.969 76.5906 90.1371 80.103 88.1681 80.1879C86.2102 80.2728 78.601 86.5017 78.601 86.5017Z" fill="#F4B89E"/>
<path d="M54.3161 93.134C54.3161 93.134 89.0134 81.8859 120.807 91.6909C120.807 91.6909 127.894 52.2588 88.0567 54.2538C44.3931 56.4291 54.3161 93.134 54.3161 93.134Z" fill="white"/>
<path d="M67.1539 107.501C66.8758 106.451 66.2528 105.453 65.4296 104.711C64.4951 103.883 62.693 102.779 61.7252 104.159C61.1912 104.912 62.2146 105.697 62.9377 105.315C63.1046 105.4 63.4272 105.538 63.4828 105.57C63.5718 105.623 63.6608 105.676 63.7387 105.74C63.7609 105.761 63.9167 105.878 63.9278 105.899C64.0835 106.037 64.2282 106.175 64.3728 106.334C64.4061 106.377 64.4395 106.419 64.4729 106.451C64.484 106.462 64.484 106.462 64.4951 106.483C64.5619 106.578 64.6286 106.674 64.6954 106.769C64.8177 106.95 64.9179 107.141 65.0069 107.332C63.9945 107.809 63.3159 108.764 63.6052 109.91C63.7609 110.494 64.2059 111.035 64.8177 111.226C65.4518 111.428 66.1638 111.237 66.6199 110.791C67.4987 109.932 67.4431 108.563 67.1539 107.501Z" fill="#ED6D3F"/>
<path d="M82.7728 161.525C82.5726 161.302 82.2166 161.45 82.1387 161.684C81.9941 162.087 81.983 162.533 81.9274 162.957C81.8606 163.413 81.7716 163.848 81.6492 164.294C81.4045 165.132 81.0596 165.939 80.6703 166.735C80.2698 167.584 79.8582 168.433 79.4466 169.282C79.2464 169.706 79.035 170.13 78.8347 170.555C78.6011 171.043 78.3675 171.467 78.4788 172.019C78.5566 172.412 79.0795 172.571 79.4132 172.38C79.9027 172.104 80.0807 171.616 80.3032 171.138L80.9929 169.663C81.4267 168.73 81.8717 167.807 82.2945 166.873C82.6838 165.992 83.0732 165.09 83.2289 164.135C83.3513 163.265 83.418 162.225 82.7728 161.525Z" fill="#ED6D3F"/>
<path d="M86.4103 162.458C86.388 162.426 86.3435 162.437 86.3101 162.458C85.5092 163.116 85.4313 164.209 85.1977 165.143C84.953 166.13 84.6415 167.106 84.2744 168.061C83.9184 169.016 83.4734 169.939 82.9728 170.831C82.717 171.276 82.45 171.711 82.1719 172.146C81.916 172.55 81.5378 173.006 81.5934 173.494C81.649 173.887 81.9494 174.163 82.3832 174.067C82.9283 173.95 83.2509 173.441 83.5402 173.017C83.8405 172.56 84.1186 172.093 84.3856 171.616C84.9307 170.629 85.3979 169.6 85.7984 168.56C86.1878 167.541 86.4659 166.491 86.6661 165.429C86.8775 164.453 87.1333 163.286 86.4103 162.458Z" fill="#ED6D3F"/>
<path d="M90.404 166.087C90.3484 165.854 90.1927 165.673 90.0926 165.461C90.0814 165.429 90.0369 165.419 90.0147 165.44C89.592 165.737 89.325 165.886 89.0914 166.363C88.8466 166.862 88.6241 167.361 88.435 167.87C88.0234 168.931 87.5451 169.96 87.0111 170.958C86.4882 171.934 85.8986 172.879 85.2868 173.812C84.7195 174.683 83.9852 175.701 83.8295 176.731C83.8073 176.858 83.9074 177.006 84.0631 176.953C85.0866 176.614 85.9431 175.669 86.5439 174.852C87.2669 173.876 87.8899 172.836 88.4573 171.764C89.0024 170.725 89.4807 169.653 89.9034 168.549C90.1148 167.997 90.2817 167.446 90.3818 166.873C90.3929 166.618 90.4597 166.353 90.404 166.087Z" fill="#ED6D3F"/>
<path d="M102.085 175.266C101.874 174.725 101.684 174.279 101.306 173.802C100.939 173.335 100.572 172.868 100.227 172.39C99.5597 171.457 98.9812 170.449 98.5584 169.387C98.1246 168.305 97.8576 167.201 97.5572 166.087C97.3904 165.451 96.8675 164.368 96.0109 164.888C95.9331 164.931 95.9664 165.058 96.0554 165.058C96.4003 165.058 96.2779 165.971 96.2779 166.172C96.2668 166.703 96.3558 167.244 96.4559 167.764C96.6562 168.857 97.0344 169.886 97.5016 170.905C97.9466 171.881 98.5028 172.804 99.1592 173.664C99.4929 174.099 99.86 174.523 100.272 174.884C100.717 175.277 101.15 175.436 101.718 175.606C101.918 175.68 102.163 175.468 102.085 175.266Z" fill="#ED6D3F"/>
<path d="M103.965 171.234C103.409 170.385 102.908 169.483 102.496 168.56C102.096 167.658 101.729 166.735 101.44 165.801C101.295 165.344 101.161 164.899 101.028 164.442C100.894 163.997 100.772 163.456 100.483 163.084C100.416 162.999 100.249 162.968 100.194 163.084C99.8043 163.912 100.049 165.079 100.227 165.939C100.438 166.989 100.739 168.019 101.161 169.005C101.573 169.971 102.04 170.905 102.596 171.796C103.13 172.656 103.753 173.611 104.821 173.908C104.955 173.95 105.122 173.844 105.111 173.696C105.044 172.762 104.465 171.998 103.965 171.234Z" fill="#ED6D3F"/>
<path d="M106.501 166.278C106.078 165.376 105.645 164.464 105.2 163.572C104.977 163.127 104.755 162.681 104.51 162.246C104.254 161.779 103.909 161.355 103.664 160.888C103.609 160.771 103.397 160.856 103.442 160.972C103.609 161.471 103.664 162.012 103.831 162.511C103.998 163.01 104.176 163.519 104.376 164.018C104.732 164.92 105.111 165.822 105.511 166.703C106.334 168.528 107.091 170.449 108.492 171.955C108.593 172.062 108.726 171.945 108.715 171.839C108.37 169.865 107.335 168.082 106.501 166.278Z" fill="#ED6D3F"/>
<path d="M103.809 144.313C103.642 144.313 103.475 144.313 103.297 144.313C102.941 144.313 102.697 144.461 102.541 144.673C99.6151 145.65 96.6004 146.254 93.5411 146.488C93.53 146.445 93.5189 146.392 93.5078 146.35C93.4744 146.254 93.3298 146.254 93.3075 146.35C93.2964 146.403 93.2853 146.456 93.2741 146.509C90.9158 146.668 88.5462 146.615 86.1767 146.307C83.2732 145.925 80.4142 145.151 77.711 144.068C76.3983 143.538 75.0856 142.625 73.7395 142.233C73.5949 142.19 72.5937 141.967 72.5714 142.339C72.4936 143.357 73.8062 143.856 74.585 144.281C75.8087 144.96 77.1325 145.512 78.4452 146.01C81.1596 147.05 84.0408 147.729 86.9443 148.122C88.9467 148.387 90.9602 148.483 92.9849 148.419C92.8737 149.926 92.996 151.486 93.0072 152.971C93.0183 155.433 93.0294 157.885 93.0628 160.346C93.1184 165.09 93.263 169.833 93.3854 174.566C93.619 184.137 93.7636 193.709 93.8971 203.28C93.975 208.713 93.886 214.189 94.2754 219.611C94.3644 220.863 96.3111 220.895 96.3445 219.611C96.5559 210.05 95.6103 200.458 95.3544 190.897C95.0986 181.325 94.9094 171.754 94.5757 162.182C94.4867 159.551 94.3644 156.908 94.242 154.277C94.153 152.377 94.2531 150.319 93.9861 148.366C97.4458 148.175 100.883 147.507 104.121 146.318C105.155 145.925 105.088 144.302 103.809 144.313Z" fill="#346278"/>
<path d="M82.7948 191.884C82.7837 191.863 82.7726 191.852 82.7392 191.82C82.6502 191.725 82.5724 191.629 82.4834 191.534C82.3721 191.406 82.2497 191.279 82.1385 191.162C81.8159 190.823 81.4933 190.483 81.1595 190.165C80.5143 189.539 79.8469 188.944 79.146 188.382C77.7777 187.278 76.3315 186.27 74.7963 185.39C73.2723 184.509 71.6704 183.777 70.0017 183.161C69.6902 183.045 67.2206 182.153 66.4196 182.461C66.1637 182.089 65.563 181.973 65.1848 182.472C64.2169 183.745 63.6273 185.284 62.8931 186.684C62.1255 188.149 61.3357 189.613 60.5236 191.056C60.0008 191.99 59.4334 192.903 58.8883 193.826C58.9662 193.062 59.0552 192.298 59.1553 191.555C59.4557 189.38 59.756 187.204 60.0008 185.018C60.2455 182.843 60.4902 180.668 60.7461 178.482C60.7795 178.227 61.4469 174.333 60.4457 174.715C59.8005 174.959 59.756 175.436 59.6114 176.052C59.3778 177.081 59.2443 178.142 59.0552 179.182C58.6881 181.272 58.321 183.352 57.9427 185.443C57.5645 187.533 57.2641 189.634 56.9415 191.725C56.7858 192.775 56.63 193.826 56.4743 194.876C56.3408 195.757 56.3297 196.733 55.9959 197.572C55.8958 197.826 55.9403 198.07 56.0738 198.261C55.8402 198.611 55.6288 198.962 55.3952 199.312C53.5263 202.071 51.5461 204.755 49.4325 207.334C48.4202 208.565 47.3856 209.775 46.351 210.974C45.7725 211.632 45.1941 212.29 44.6045 212.947C44.2151 213.372 43.7924 214.168 43.3474 214.486H43.3585C43.2695 214.529 43.1917 214.603 43.1694 214.709C42.958 215.505 43.9815 215.706 44.56 215.473C45.3609 215.165 45.9394 214.316 46.4734 213.722C47.1186 213.011 47.7527 212.3 48.3757 211.579C50.8231 208.756 53.0925 205.764 55.2506 202.739C59.6003 196.616 63.3604 190.122 66.3973 183.31C66.6643 183.586 67.0871 183.766 67.4097 183.904C68.2329 184.265 69.0672 184.615 69.8904 184.997C71.4924 185.74 73.0498 186.599 74.5182 187.554C75.9644 188.488 77.3105 189.539 78.5675 190.685C79.235 191.29 79.8691 191.905 80.4809 192.552C80.7591 192.849 81.0149 193.178 81.3153 193.444C79.9692 195.269 79.1905 197.752 78.3005 199.779C77.3661 201.912 76.465 204.044 75.5639 206.188C73.7395 210.539 72.0152 214.953 70.1352 219.261C70.0128 219.548 70.213 220.004 70.5023 220.131C70.5468 220.153 70.6024 220.174 70.6469 220.195C71.103 220.386 71.4701 220.333 71.8595 220.046C72.5826 219.495 72.7717 218.518 73.0943 217.712C73.5393 216.587 73.9731 215.473 74.4292 214.359C75.3526 212.045 76.2981 209.732 77.2548 207.429C78.1782 205.201 79.1349 202.994 80.0805 200.776C80.5588 199.673 81.0149 198.558 81.4933 197.455C81.9939 196.288 82.6725 195.11 82.8616 193.858C83.8294 193.529 83.796 192.107 82.7948 191.884Z" fill="#346278"/>
<path d="M90.9716 150.839C90.9382 150.701 90.8715 150.584 90.7825 150.489C90.7046 150.372 90.6045 150.287 90.4821 150.223C90.3264 150.149 90.1706 150.075 90.0037 150.085C89.937 150.085 89.8591 150.085 89.7924 150.107C89.6923 150.107 89.6033 150.128 89.5143 150.181C89.3808 150.223 89.2695 150.298 89.1694 150.393C89.1138 150.468 89.0582 150.531 89.0025 150.606C88.9803 150.637 88.958 150.669 88.9469 150.701L88.9358 150.722C88.9024 150.807 88.8579 150.892 88.8245 150.977C88.8245 150.998 88.8134 151.02 88.8134 151.041C88.8023 151.083 88.8023 151.126 88.7912 151.168C88.7467 151.306 88.7355 151.455 88.7689 151.593C88.78 151.731 88.8245 151.869 88.9024 151.986C88.9692 152.113 89.0693 152.209 89.1917 152.283C89.3029 152.379 89.4253 152.443 89.5699 152.474C89.67 152.485 89.7701 152.496 89.8703 152.517C90.0705 152.517 90.2596 152.464 90.4376 152.368C90.6824 152.22 90.8826 152.007 90.9494 151.731C90.9938 151.561 91.0495 151.381 91.0272 151.211C91.005 151.083 91.005 150.967 90.9716 150.839Z" fill="#346278"/>
<path d="M91.9058 185.156C91.8613 185.061 91.8279 184.965 91.7834 184.88C91.7056 184.742 91.6054 184.636 91.4719 184.551C91.3941 184.477 91.3051 184.424 91.205 184.403C91.0603 184.328 90.9046 184.296 90.7266 184.296C90.6154 184.307 90.5041 184.328 90.404 184.339C90.3039 184.381 90.2038 184.413 90.1148 184.456C89.9702 184.53 89.8589 184.626 89.7699 184.753C89.7254 184.806 89.7143 184.87 89.6809 184.923C89.6587 184.944 89.6475 184.965 89.6253 184.987C89.6364 184.965 89.6475 184.944 89.6587 184.912C89.6364 184.965 89.603 185.008 89.5697 185.05C89.5697 185.04 89.5808 185.04 89.5808 185.029C89.514 185.114 89.4695 185.21 89.425 185.358C89.3806 185.517 89.3805 185.677 89.4028 185.836C89.4028 185.847 89.4028 185.847 89.4028 185.857C89.4028 185.868 89.4139 185.868 89.4139 185.878C89.425 185.931 89.4251 185.974 89.4362 186.027C89.4362 186.048 89.4473 186.059 89.4473 186.08C89.4362 186.038 89.4362 185.985 89.425 185.942C89.4362 186.059 89.4473 186.176 89.5029 186.282C89.5474 186.42 89.6253 186.537 89.7365 186.632C89.8144 186.685 89.8923 186.749 89.9701 186.802C90.1481 186.898 90.3484 186.951 90.5486 186.951C90.6599 186.94 90.8267 186.93 90.9491 186.887C91.0715 186.845 91.1827 186.802 91.294 186.749C91.3051 186.749 91.3051 186.738 91.3162 186.738C91.4052 186.675 91.4942 186.611 91.5832 186.547C91.7389 186.388 91.8502 186.208 91.9169 186.006C91.9392 185.91 91.9614 185.751 91.9614 185.655C91.9614 185.645 91.9614 185.634 91.9614 185.624C91.9614 185.602 91.9614 185.581 91.9614 185.56C91.9614 185.443 91.9392 185.294 91.9058 185.156Z" fill="#346278"/>
<path d="M92.3175 202.209C92.2619 202.029 92.1506 201.88 92.006 201.753C91.828 201.625 91.6723 201.508 91.4943 201.392C91.3274 201.285 91.1383 201.232 90.9381 201.222C90.7378 201.179 90.5376 201.19 90.3373 201.243C90.1482 201.285 89.9702 201.37 89.8256 201.498C89.6588 201.593 89.5364 201.731 89.4363 201.901C89.3806 202.018 89.3362 202.124 89.2805 202.241C89.2138 202.496 89.2138 202.751 89.2805 202.995C89.3362 203.112 89.3806 203.218 89.4363 203.335C89.5475 203.515 89.7032 203.664 89.8812 203.781C89.9257 203.823 89.948 203.876 90.0036 203.908C90.0926 203.993 90.1927 204.046 90.3151 204.078C90.4263 204.142 90.5487 204.174 90.6711 204.174C90.7601 204.195 90.8379 204.184 90.9269 204.174H90.9381C90.9492 204.174 90.9492 204.174 90.9603 204.174C90.9937 204.174 91.0271 204.184 91.0604 204.174C91.0938 204.174 91.1272 204.163 91.1605 204.152C91.205 204.142 91.2495 204.142 91.294 204.131C91.3385 204.12 91.3942 204.099 91.4387 204.078C91.472 204.067 91.5054 204.057 91.5277 204.046C91.5721 204.035 91.5944 204.004 91.6278 203.982C91.6389 203.982 91.65 203.972 91.6611 203.972C91.7279 203.94 91.8058 203.919 91.8614 203.866C92.0283 203.77 92.1506 203.632 92.2507 203.462C92.3064 203.345 92.3509 203.239 92.4065 203.122C92.4287 202.995 92.4398 202.868 92.4621 202.74C92.4621 202.56 92.4176 202.379 92.3175 202.209Z" fill="#346278"/>
<path d="M132.21 197.104C131.431 195.884 130.285 194.812 129.362 193.688C128.828 193.03 128.339 192.351 127.827 191.682C127.827 191.565 127.805 191.459 127.76 191.342C127.449 190.674 127.304 189.889 127.07 189.188C126.814 188.414 126.559 187.639 126.303 186.875C125.813 185.432 125.313 183.989 124.812 182.546C124.3 181.102 123.766 179.67 123.21 178.248C123.054 177.845 122.22 175.319 121.43 175.988C120.974 176.37 121.23 176.996 121.352 177.484C121.553 178.269 121.831 179.033 122.098 179.808C122.621 181.346 123.166 182.885 123.7 184.424C124.033 185.389 124.345 186.366 124.667 187.342C124.423 186.992 124.167 186.642 123.922 186.281C123.054 185.007 122.298 183.639 121.352 182.429C121.119 182.121 120.785 182.079 120.518 182.174C120.207 182.153 119.906 182.057 119.584 182.089C119.228 182.121 118.838 182.185 118.493 182.28C117.759 182.482 117.036 182.79 116.335 183.087C114.856 183.702 113.421 184.424 112.097 185.283C109.471 186.981 107.18 189.082 105.266 191.502C105.066 191.746 105.144 192.223 105.389 192.414C105.378 192.404 105.622 192.584 105.544 192.531C105.923 192.775 106.379 192.563 106.624 192.255C108.415 189.995 110.617 188.042 113.087 186.472C114.299 185.697 115.556 184.997 116.869 184.403C117.526 184.105 118.193 183.861 118.86 183.607C119.194 183.479 119.55 183.32 119.862 183.15C119.951 183.108 120.017 183.044 120.084 182.981C120.095 183.023 120.095 183.055 120.118 183.097C120.74 184.477 121.675 185.782 122.498 187.055C123.332 188.35 124.211 189.623 125.112 190.876C125.991 192.096 126.892 193.284 127.816 194.473C128.75 195.661 129.651 197.094 130.808 198.102C131.375 198.77 132.777 197.985 132.21 197.104Z" fill="#346278"/>
<path d="M116.179 219.993C116.102 218.847 115.423 217.839 114.945 216.799C114.355 215.515 113.788 214.221 113.254 212.926C112.297 210.623 111.452 208.289 110.617 205.944C109.794 203.598 109.015 201.243 108.337 198.855C107.97 197.582 107.625 196.308 107.269 195.035C107.024 194.154 106.913 193.199 106.123 192.637C106.034 192.573 105.9 192.626 105.845 192.7C105.333 193.518 105.667 194.515 105.834 195.406C106.067 196.712 106.357 197.996 106.679 199.28C107.291 201.763 107.981 204.235 108.782 206.676C109.583 209.116 110.506 211.515 111.485 213.892C111.963 215.038 112.464 216.184 112.976 217.319C113.465 218.401 113.843 219.717 114.744 220.556C115.356 221.118 116.124 220.577 116.135 219.972C116.157 219.983 116.168 219.993 116.179 219.993Z" fill="#346278"/>
<path d="M121.564 91.3299C120.64 89.8337 118.104 89.5366 116.469 89.0909C114.355 88.5178 112.197 88.0509 110.039 87.6795C105.756 86.9367 101.417 86.5441 97.0675 86.438C88.0344 86.2151 79.0236 87.2338 70.1351 88.6876C64.8843 89.5472 59.6336 90.5128 54.4496 91.6801C53.3037 91.9348 53.8043 93.5265 54.9279 93.3461C66.4084 91.4997 77.7331 89.1545 89.4138 88.6664C94.8537 88.4436 100.305 88.5815 105.711 89.2394C108.47 89.579 111.207 90.0671 113.899 90.7038C115.212 91.0116 116.524 91.3618 117.815 91.7438C118.916 92.0727 120.028 92.6139 121.174 92.2319C121.564 92.1152 121.786 91.6907 121.564 91.3299Z" fill="#D8E7EB"/>
<path d="M86.199 97.7499C85.3424 97.3043 84.3301 97.0496 83.3511 97.1239C82.4055 97.1981 81.4822 97.4847 80.7035 98.0152C79.8914 98.567 78.9347 99.3734 79.0793 100.403C79.1461 100.912 79.6355 101.262 80.1695 100.997C80.2029 100.976 80.2251 100.976 80.2363 100.965C80.1918 100.986 80.125 101.018 80.3141 100.923C80.4476 100.848 80.57 100.785 80.6924 100.679C80.8592 100.541 80.9705 100.381 81.0483 100.297C81.1707 100.169 81.2931 100.042 81.4266 99.9252C81.5934 99.7766 81.5489 99.8191 81.7381 99.6918C81.8716 99.6069 82.0162 99.522 82.1608 99.4583C82.2275 99.4265 82.3054 99.3946 82.3722 99.3628C82.3944 99.3522 82.4834 99.331 82.5057 99.3204C82.6725 99.2673 82.8505 99.2142 83.0285 99.1824C83.0508 99.1824 83.1509 99.1612 83.1731 99.1612C83.251 99.1506 83.3177 99.1506 83.3956 99.1506C84.0408 99.1294 84.6304 99.2567 85.1644 99.5326C85.5315 99.7342 85.6428 99.8085 85.9209 100.074C86.3102 100.445 86.5772 100.753 87.1779 100.806C87.5784 100.838 87.9678 100.509 88.0679 100.159C88.3682 99.1081 87.0333 98.1744 86.199 97.7499Z" fill="#5F3831"/>
<path d="M109.193 98.8639C108.893 98.5455 108.537 98.2696 108.17 98.0256C107.424 97.5268 106.534 97.2615 105.633 97.1872C104.721 97.1023 103.798 97.3358 102.975 97.7178C102.585 97.8982 102.229 98.1423 101.896 98.4076C101.473 98.7366 101.228 99.0974 101.05 99.5855C100.794 100.286 101.729 100.954 102.374 100.551C103.008 100.159 103.286 99.8296 103.931 99.5431C103.965 99.5325 104.043 99.5006 104.054 99.5006C104.12 99.4794 104.187 99.4582 104.265 99.437C104.41 99.3945 104.554 99.3733 104.688 99.3415C104.721 99.3308 104.799 99.3202 104.821 99.3202C104.91 99.3096 104.999 99.3096 105.088 99.3096C105.255 99.3096 105.411 99.3096 105.578 99.3308C105.589 99.3308 105.578 99.3308 105.589 99.3308C105.6 99.3308 105.589 99.3308 105.6 99.3308C105.689 99.3521 105.778 99.3627 105.856 99.3839C106.012 99.4157 106.156 99.4688 106.312 99.5219C106.323 99.5219 106.323 99.5219 106.334 99.5219C106.412 99.5537 106.49 99.5961 106.568 99.6386C106.712 99.7129 106.846 99.7872 106.979 99.8721C106.991 99.8827 107.046 99.9145 107.08 99.9463C107.124 99.9782 107.191 100.042 107.202 100.052C107.324 100.159 107.436 100.265 107.536 100.381C107.547 100.392 107.58 100.434 107.614 100.466C107.647 100.509 107.703 100.594 107.714 100.604C107.892 100.848 108.081 101.018 108.337 101.188C108.971 101.623 110.005 101.05 109.939 100.318C109.883 99.7023 109.605 99.299 109.193 98.8639Z" fill="#5F3831"/>
<path d="M86.644 105.009C86.6559 105.009 86.6559 104.997 86.6678 104.997C86.6678 105.009 86.6559 105.009 86.644 105.009Z" fill="#5F3831"/>
<path d="M86.2993 105.21C86.4217 105.147 86.533 105.083 86.6553 105.019C86.5552 105.051 86.4551 105.104 86.3661 105.168C86.3327 105.178 86.3216 105.189 86.2993 105.21Z" fill="#5F3831"/>
<path d="M87.723 105.528C87.6897 105.422 87.6229 105.326 87.5339 105.241C87.3114 105.082 87.2781 105.061 87.4449 105.167C87.2224 104.944 86.9221 104.923 86.6551 105.019C86.3325 105.135 86.11 105.316 85.9876 105.634C85.932 105.772 85.9097 105.91 85.8541 106.037C85.843 106.059 85.8096 106.122 85.7985 106.143C85.7651 106.207 85.7206 106.281 85.6761 106.345C85.6205 106.419 85.5871 106.462 85.4425 106.589C85.22 106.801 85.0643 106.908 84.7417 107.067C84.6304 107.12 84.7083 107.088 84.6416 107.12C84.5637 107.152 84.4858 107.173 84.3968 107.194C84.3189 107.215 84.23 107.236 84.1521 107.258C84.141 107.258 84.0408 107.279 84.0186 107.279C83.3622 107.343 82.6948 107.194 82.094 106.918C81.7381 106.748 81.4043 106.557 81.0817 106.334C80.748 106.101 80.4587 105.815 80.0694 105.655C79.413 105.379 78.7456 105.952 79.0793 106.6C79.3129 107.035 79.7134 107.332 80.1139 107.618C80.5144 107.916 80.926 108.192 81.3821 108.404C82.3054 108.839 83.3289 109.104 84.3634 108.966C85.2756 108.849 86.1656 108.457 86.8219 107.831C87.1446 107.512 87.4115 107.152 87.5895 106.738C87.7008 106.494 87.7898 106.26 87.8009 105.995C87.8009 105.836 87.7898 105.677 87.723 105.528Z" fill="#5F3831"/>
<path d="M109.483 104.488C109.004 104.308 108.604 104.488 108.303 104.859C107.925 105.326 107.669 105.761 107.135 106.09C106.612 106.409 106.045 106.578 105.456 106.578C104.788 106.578 104.132 106.398 103.542 106.112C103.197 105.942 102.864 105.751 102.541 105.549C102.174 105.305 101.851 105.029 101.44 104.87C100.75 104.605 100.138 105.485 100.494 106.037C100.761 106.451 101.228 106.738 101.629 107.013C102.018 107.279 102.43 107.533 102.852 107.735C103.742 108.149 104.721 108.425 105.711 108.372C106.579 108.329 107.458 108.064 108.181 107.608C108.938 107.13 109.738 106.409 110.017 105.56C110.161 105.125 109.894 104.647 109.483 104.488Z" fill="#5F3831"/>
<path d="M96.4668 111.884C96.2888 111.948 96.122 112.001 95.9885 112.139C95.9217 112.213 95.8661 112.309 95.7994 112.383C95.7882 112.394 95.7771 112.404 95.7771 112.415C95.7326 112.457 95.6992 112.5 95.6547 112.542C95.5769 112.617 95.4879 112.691 95.3989 112.755C95.3878 112.755 95.3989 112.755 95.3878 112.765C95.3321 112.797 95.2654 112.84 95.2098 112.871C95.1653 112.893 95.1319 112.914 95.0874 112.935C95.054 112.946 95.0206 112.967 94.9873 112.978C94.9761 112.978 94.9873 112.978 94.9761 112.978C94.8872 113.009 94.787 113.031 94.7203 113.052C94.6647 113.062 94.6202 113.073 94.5645 113.084C94.5534 113.084 94.5645 113.084 94.5534 113.084C94.4199 113.084 94.2976 113.084 94.1641 113.084C94.1084 113.073 94.0528 113.062 93.9972 113.052C93.9416 113.041 93.886 113.02 93.8303 113.009C93.8303 113.009 93.8081 112.999 93.7747 112.988C93.7636 112.978 93.6746 112.946 93.6523 112.935C93.5856 112.903 93.53 112.871 93.4632 112.84C93.3631 112.787 93.263 112.723 93.1629 112.659C93.1517 112.649 93.1072 112.627 93.0739 112.606C93.0405 112.585 93.0071 112.553 92.996 112.553C92.8736 112.457 92.7401 112.373 92.6066 112.288C92.373 112.139 91.9058 112.001 91.6833 112.256C91.1493 112.85 91.6722 113.657 92.1839 114.103C92.729 114.57 93.4744 114.814 94.1974 114.888C94.8872 114.952 95.588 114.782 96.1887 114.485C96.478 114.336 96.7561 114.145 96.9897 113.922C97.3123 113.625 97.6794 113.211 97.646 112.765C97.6015 112.224 97.0675 111.651 96.4668 111.884Z" fill="#ED6D3F"/>
<path d="M96.6341 118.39C96.8018 118.356 96.4216 118.401 96.6341 118.39V118.39Z" fill="#ED6D3F"/>
<path d="M97.5681 118.75C97.5236 118.527 97.2678 118.357 97.0342 118.368C96.9118 118.368 96.8005 118.368 96.6782 118.378C96.6559 118.378 96.6448 118.378 96.6226 118.378C96.6003 118.378 96.5669 118.389 96.5224 118.389C96.3556 118.41 96.2221 118.442 96.0663 118.516C95.9106 118.601 95.766 118.718 95.6214 118.824C95.588 118.845 95.588 118.845 95.5769 118.856C95.5769 118.856 95.5769 118.856 95.5657 118.856C95.5101 118.888 95.4656 118.92 95.41 118.962C95.2876 119.037 95.1652 119.1 95.0429 119.164C95.0095 119.185 94.965 119.196 94.9316 119.217C94.9205 119.217 94.8315 119.26 94.8093 119.26C94.5423 119.355 94.2642 119.408 93.9972 119.461C93.9749 119.461 93.9749 119.461 93.9749 119.472C93.9082 119.483 93.8414 119.483 93.7858 119.483C93.6412 119.493 93.4966 119.493 93.352 119.483C93.3408 119.483 93.2185 119.472 93.174 119.472C93.1406 119.472 93.0627 119.451 93.0516 119.451C92.8736 119.419 92.6845 119.408 92.5065 119.387C92.3619 119.366 92.0393 119.291 91.8279 119.249C91.5609 119.196 91.3162 119.207 91.0381 119.185C90.9936 119.185 90.9602 119.217 90.9602 119.26C90.9825 119.546 91.027 119.78 91.2049 120.014C91.4386 120.311 91.7055 120.523 92.017 120.736C92.6289 121.139 93.4632 121.277 94.2085 121.277C94.965 121.277 95.7103 121.043 96.3667 120.693C96.7004 120.523 97.0342 120.3 97.2789 120.024C97.6349 119.663 97.6683 119.217 97.5681 118.75Z" fill="#ED6D3F"/>
<path d="M178.432 109.136C178.432 109.136 154.281 156.505 154.626 190.239C154.626 190.239 174.016 198.028 174.349 198.993C174.694 199.97 179.789 203.206 179.789 203.206C179.789 203.206 182.17 227.867 181.147 238.245C180.123 248.623 286.585 242.139 286.585 242.139C286.585 242.139 285.906 210.347 285.906 206.124C285.906 201.911 302.57 191.523 302.57 191.523C307.332 165.567 296.107 121.774 277.407 103.278C258.695 84.7826 206.666 104.573 204.619 104.255C202.583 103.947 178.432 109.136 178.432 109.136Z" fill="#589EC1"/>
<path d="M211.427 5.64253C172.959 12.8477 180.134 52.6829 184.217 68.2605C188.299 83.8381 176.73 101.676 178.432 109.136C180.134 116.596 191.692 131.844 217.201 134.115C242.709 136.386 276.049 110.632 279.776 101.994C282.157 96.4763 260.731 91.2873 258.35 73.1205C255.981 54.9644 249.518 -1.48835 211.427 5.64253Z" fill="white"/>
<path d="M251.754 162.002C251.754 162.002 253.756 158.564 250.385 152.812C247.026 147.061 249.44 140.45 247.437 135.558C245.424 130.666 241.007 134.624 241.141 136.651C241.274 138.678 240.852 143.644 240.852 143.644C240.852 143.644 237.069 134.242 235.645 130.061C234.221 125.88 230.639 122.336 228.37 125.552C228.37 125.552 223.119 123.1 222.073 126.867C222.073 126.867 218.881 126.284 218.758 130.348C218.758 130.348 215.632 131.568 216.845 136.258C218.057 140.949 220.672 148.08 226.189 155.115C231.707 162.15 232.608 165.504 239.027 168.008C245.435 170.533 250.786 164.74 251.754 162.002Z" fill="#F4B89E"/>
<path d="M202.773 32.9032C181.591 41.7638 190.391 77.259 204.107 86.4378C217.824 95.6273 235.568 87.0745 237.57 68.6955C239.584 50.3272 234.555 19.5965 202.773 32.9032Z" fill="#F4B89E"/>
<path d="M235.089 43.6207C230.895 32.468 221.462 25.0718 202.772 32.8925C195.074 36.1184 191.348 42.8567 190.369 50.5713C197.444 45.9447 213.975 37.6783 235.089 43.6207Z" fill="#589EC1"/>
<path d="M251.565 150.669C251.565 150.669 233.198 161.047 229.46 166.246C229.46 166.246 250.886 209.392 272.312 213.287C293.738 217.181 302.581 191.555 302.581 191.555C302.581 191.555 269.586 177.272 251.565 150.669Z" fill="#589EC1"/>
<path d="M182.126 161.8C182.126 161.8 179.867 158.511 182.771 152.536C185.674 146.562 182.749 140.142 184.373 135.123C185.997 130.104 190.714 133.733 190.736 135.77C190.758 137.808 191.57 142.721 191.57 142.721C191.57 142.721 194.607 133.075 195.709 128.809C196.799 124.544 200.103 120.745 202.617 123.801C202.617 123.801 207.656 120.989 208.991 124.671C208.991 124.671 212.128 123.864 212.573 127.907C212.573 127.907 215.788 128.905 214.943 133.669C214.097 138.434 212.05 145.724 207.089 153.141C202.138 160.548 201.493 163.954 195.286 166.915C189.089 169.844 183.305 164.453 182.126 161.8Z" fill="#F4B89E"/>
<path d="M181.436 150.478C181.436 150.478 200.559 159.529 204.697 164.443C204.697 164.443 190.68 211.016 175.039 213.605C153.546 217.171 154.637 190.25 154.637 190.25C154.637 190.25 165.528 178.28 181.436 150.478Z" fill="#589EC1"/>
<path d="M203.574 164.421C202.628 162.49 200.67 161.057 198.912 159.826C196.866 158.394 194.807 156.983 192.694 155.656C190.625 154.362 188.455 153.194 186.208 152.229C185.096 151.74 183.939 151.274 182.771 150.934C182.014 150.711 180.88 150.308 180.212 150.881C180.168 150.913 180.156 150.987 180.168 151.03C180.257 151.295 180.457 151.475 180.679 151.634C180.234 152.197 179.945 152.897 179.634 153.502C178.966 154.786 178.332 156.091 177.665 157.375C176.374 159.879 175.084 162.373 173.749 164.856C172.458 167.265 171.135 169.653 169.788 172.03C169.076 173.292 168.32 174.534 167.619 175.807C167.096 176.752 166.518 177.728 166.785 178.821C166.818 178.969 167.007 179.076 167.174 179.033C168.287 178.694 168.865 177.738 169.421 176.815C170.133 175.648 170.801 174.449 171.468 173.26C172.903 170.735 174.294 168.188 175.662 165.631C176.986 163.148 178.288 160.643 179.522 158.118C180.123 156.898 180.735 155.667 181.302 154.436C181.614 153.767 182.025 153.035 182.192 152.292C183.26 152.706 184.317 153.099 185.352 153.587C187.454 154.574 189.445 155.752 191.392 156.993C193.295 158.203 195.163 159.476 197.01 160.771C198.668 161.927 200.169 163.02 201.26 164.623C201.237 164.644 201.215 164.665 201.193 164.697C200.147 166.268 199.791 168.39 199.224 170.162C198.657 171.934 198.067 173.695 197.455 175.457C196.154 179.213 194.752 182.938 193.239 186.62C191.793 190.133 190.302 193.656 188.6 197.062C187.855 198.547 187.043 200.012 186.086 201.381C185.708 201.922 185.263 202.463 184.851 203.015C184.84 203.025 184.84 203.025 184.829 203.036C184.807 203.068 184.784 203.1 184.762 203.132C184.673 203.259 184.584 203.386 184.495 203.514C184.473 203.556 184.439 203.588 184.417 203.63C184.261 203.874 184.117 204.118 183.994 204.373C183.816 204.67 183.638 204.967 183.46 205.275C183.049 205.965 182.615 206.644 182.148 207.291C181.892 207.652 181.747 207.822 181.48 208.13C181.124 208.533 180.646 208.989 180.69 209.562C180.735 210.061 181.08 210.411 181.614 210.443C182.559 210.496 183.249 209.403 183.727 208.766C184.184 208.151 184.595 207.514 184.985 206.856C185.363 206.209 185.73 205.562 186.097 204.914C186.13 204.861 186.153 204.808 186.186 204.755C188.055 203.344 189.368 200.712 190.258 198.993C192.037 195.555 193.528 191.958 194.997 188.392C196.543 184.636 198 180.837 199.335 177.006C200.003 175.086 200.648 173.165 201.271 171.234C201.794 169.578 202.617 167.7 202.784 165.928C203.396 165.779 203.918 165.121 203.574 164.421Z" fill="#346278"/>
<path d="M285.25 173.006C284.259 171.87 282.035 171.701 280.633 171.287C278.975 170.799 277.34 170.268 275.738 169.642C275.304 169.472 274.882 169.281 274.459 169.112C275.771 168.294 274.67 164.74 274.514 163.785C273.569 158.192 272.434 152.621 271.099 147.093C270.376 144.079 269.542 141.087 268.674 138.105C268.251 136.683 267.851 135.251 267.328 133.85C266.939 132.789 266.471 131.611 265.426 131.006C264.958 130.741 264.502 131.176 264.58 131.621C264.758 132.672 265.27 133.701 265.548 134.741C265.915 136.131 266.271 137.511 266.627 138.901C267.339 141.649 267.995 144.419 268.652 147.188C269.953 152.728 271.066 158.299 271.978 163.901C272.201 165.249 272.323 166.639 272.568 167.987C272.59 168.093 272.612 168.188 272.645 168.294C270.454 167.276 268.329 166.108 266.293 164.825C263.368 162.968 260.664 160.824 258.161 158.479C256.927 157.322 255.759 156.102 254.646 154.839C253.956 154.054 252.911 153.088 252.466 152.101C252.877 151.73 253.111 151.306 252.989 150.839C252.977 150.786 252.922 150.733 252.866 150.722C252.01 150.531 250.764 151.337 249.985 151.635C248.795 152.091 247.604 152.547 246.436 153.025C244.022 154.022 241.664 155.115 239.406 156.388C237.214 157.619 235.123 159.009 233.198 160.591C232.252 161.376 231.34 162.204 230.495 163.095C229.694 163.933 228.615 164.909 228.337 166.045C228.237 166.459 228.593 166.841 228.993 166.841C231.407 171.17 234.411 175.287 237.125 179.447C239.728 183.437 242.331 187.459 245.58 191.013C248.872 194.611 252.888 197.465 256.949 200.213C260.876 202.877 264.903 205.456 269.297 207.376C271.689 208.416 274.158 209.318 276.717 209.902C278.408 210.284 281.701 211.345 282.925 209.668C282.991 209.583 282.98 209.456 282.925 209.371C282.012 207.886 279.365 208.13 277.807 207.811C275.516 207.344 273.268 206.644 271.133 205.742C266.939 203.981 263.023 201.657 259.24 199.205C255.291 196.648 251.331 194.016 248.038 190.695C244.712 187.342 242.087 183.437 239.506 179.553C236.502 175.011 233.688 170.215 230.35 165.886C230.829 165.366 231.262 164.782 231.73 164.294C232.62 163.36 233.576 162.49 234.577 161.673C236.591 160.028 238.816 158.627 241.119 157.386C243.344 156.187 245.657 155.115 248.005 154.139C248.516 153.927 249.696 153.587 250.775 153.12C251.008 153.598 251.387 154.043 251.687 154.447C252.332 155.295 253.011 156.123 253.712 156.93C256.348 159.986 259.363 162.713 262.656 165.111C265.982 167.53 269.597 169.6 273.413 171.244C275.349 172.083 277.329 172.836 279.365 173.441C281.033 173.95 283.447 174.969 285.116 174.184C285.583 173.95 285.55 173.356 285.25 173.006Z" fill="#346278"/>
<path d="M203.607 125.329C203.485 125.021 203.028 124.819 202.762 125.117C202.061 125.912 202.005 127.281 201.76 128.268C201.482 129.414 201.16 130.55 200.792 131.685C200.436 132.81 200.036 133.935 199.602 135.038C199.235 135.972 198.501 137.171 198.734 138.179C198.79 138.434 199.135 138.551 199.357 138.423C200.27 137.903 200.648 136.545 201.004 135.643C201.449 134.497 201.86 133.351 202.228 132.184C202.584 131.059 202.895 129.913 203.173 128.767C203.307 128.194 203.451 127.621 203.551 127.037C203.651 126.485 203.818 125.87 203.607 125.329Z" fill="#FAA999"/>
<path d="M209.826 126.125C208.936 126.05 208.602 127.865 208.39 128.438C207.968 129.584 207.578 130.741 207.133 131.876C206.688 133.011 206.21 134.136 205.732 135.261C205.298 136.258 204.686 137.309 204.886 138.423C204.909 138.572 205.109 138.625 205.231 138.561C206.299 137.988 206.744 136.747 207.2 135.739C207.734 134.571 208.213 133.372 208.657 132.173C208.913 131.494 211.027 126.22 209.826 126.125Z" fill="#FAA999"/>
<path d="M212.651 129.531C212.629 129.404 212.417 129.351 212.328 129.446C211.138 130.879 210.615 132.778 209.859 134.444C209.469 135.325 209.013 136.163 208.635 137.044C208.29 137.829 207.79 138.795 207.89 139.665C207.901 139.814 208.045 139.888 208.19 139.835C209.024 139.474 209.625 138.54 210.07 137.819C210.604 136.948 211.005 136.004 211.405 135.06C212.128 133.351 212.951 131.399 212.651 129.531Z" fill="#FAA999"/>
<path d="M227.113 142.138C225.244 140.949 224.009 139.304 222.863 137.479C222.24 136.492 221.662 135.484 221.128 134.444C220.85 133.903 220.583 133.351 220.338 132.789C220.116 132.279 219.871 131.685 219.437 131.314C219.226 131.133 218.792 131.176 218.736 131.494C218.636 132.099 218.847 132.736 219.07 133.309C219.315 133.935 219.582 134.55 219.86 135.166C220.427 136.397 221.072 137.596 221.807 138.752C222.463 139.782 223.142 140.885 224.043 141.745C224.81 142.477 226.078 143.071 227.102 142.456C227.235 142.371 227.224 142.212 227.113 142.138Z" fill="#FAA999"/>
<path d="M230.361 138.625C229.46 138.402 228.693 137.797 228.17 137.065C227.469 136.089 226.835 135.059 226.267 133.998C225.711 132.969 225.222 131.908 224.788 130.836C224.577 130.305 224.365 129.775 224.143 129.255C224.031 128.99 223.942 128.724 223.742 128.502C223.586 128.332 223.442 128.321 223.264 128.226C223.208 128.194 223.13 128.215 223.097 128.268C222.963 128.47 222.852 128.533 222.808 128.799C222.763 129.117 222.863 129.446 222.919 129.754C223.064 130.422 223.297 131.08 223.531 131.727C224.009 133.022 224.621 134.285 225.3 135.494C225.934 136.63 226.623 137.903 227.591 138.826C228.303 139.495 229.95 140.227 230.517 138.986C230.595 138.848 230.55 138.667 230.361 138.625Z" fill="#FAA999"/>
<path d="M234.088 135.77C233.865 135.272 233.587 134.805 233.32 134.338C232.797 133.425 232.23 132.534 231.718 131.611C231.229 130.719 230.762 129.807 230.35 128.884C230.127 128.395 229.938 127.886 229.716 127.398C229.505 126.931 229.338 126.454 228.926 126.114C228.704 125.923 228.303 125.987 228.225 126.294C227.992 127.26 228.559 128.374 228.915 129.266C229.327 130.295 229.794 131.314 230.294 132.311C230.784 133.266 231.307 134.242 231.952 135.112C232.275 135.548 232.597 135.983 232.986 136.365C233.365 136.736 233.821 137.022 234.266 137.33C234.399 137.426 234.6 137.267 234.544 137.129C234.399 136.651 234.277 136.205 234.088 135.77Z" fill="#FAA999"/>
<path d="M237.292 80.6442C234.566 83.244 232.708 86.7033 230.372 89.6214C227.914 92.6987 225.166 95.5638 222.207 98.206C220.994 99.2884 219.726 100.328 218.436 101.336C218.369 101.283 218.302 101.22 218.202 101.177C217.145 100.732 216.022 100.456 214.965 100.031C213.908 99.5961 212.885 99.0868 211.894 98.5244C209.97 97.4208 208.201 96.0731 206.599 94.5875C205.086 93.1868 203.707 91.6482 202.516 89.9822C201.927 89.1651 201.382 88.3056 200.859 87.4461C200.436 86.7563 200.047 85.6315 199.157 85.4193C198.957 85.3662 198.679 85.4511 198.59 85.6421C198.178 86.4698 198.834 87.4355 199.235 88.1889C199.746 89.1651 200.347 90.1095 200.992 91.0115C202.227 92.773 203.64 94.4284 205.197 95.9352C206.822 97.4951 208.613 98.917 210.548 100.105C211.605 100.763 212.718 101.336 213.875 101.824C214.698 102.175 215.577 102.567 216.478 102.822C212.117 105.984 207.389 108.711 202.427 110.897C200.347 111.81 198.222 112.627 196.053 113.338C193.951 114.028 191.659 114.441 189.868 115.757C189.612 115.948 189.568 116.436 189.968 116.5C191.937 116.829 193.773 116.277 195.642 115.694C197.599 115.078 199.535 114.388 201.426 113.614C205.242 112.075 208.924 110.229 212.417 108.106C219.415 103.851 225.678 98.4289 230.806 92.2C233.52 88.9104 236.791 85.0373 237.625 80.814C237.648 80.6548 237.436 80.5168 237.292 80.6442Z" fill="#D8E7EB"/>
<path d="M202.439 53.0863C202.072 52.8635 201.671 52.6937 201.26 52.5557C200.436 52.2798 199.535 52.2268 198.69 52.4072C197.945 52.5663 197.244 52.9484 196.699 53.4471C196.098 53.9883 195.508 54.8584 195.798 55.6755C195.987 56.1954 196.687 56.4289 197.121 56.0044C197.355 55.771 197.488 55.5269 197.655 55.2616C197.689 55.2192 197.711 55.1661 197.744 55.1237C197.744 55.1237 197.8 55.06 197.822 55.0176C197.856 54.9857 197.889 54.9327 197.9 54.9327C197.945 54.8796 198 54.8372 198.045 54.7947C198.089 54.7523 198.134 54.7204 198.189 54.678C198.2 54.6674 198.2 54.6674 198.212 54.6674C198.334 54.5931 198.445 54.5188 198.579 54.4552C198.579 54.4552 198.645 54.4233 198.69 54.4021C198.734 54.3915 198.801 54.3597 198.812 54.3597C198.946 54.3172 199.079 54.2854 199.224 54.2535C199.246 54.2429 199.246 54.2536 199.257 54.2429C199.324 54.2323 199.391 54.2323 199.457 54.2323C199.624 54.2217 199.78 54.2429 199.947 54.2429C199.969 54.2429 199.958 54.2429 199.958 54.2429C199.98 54.2429 199.98 54.2429 200.014 54.2535C200.092 54.2642 200.169 54.2854 200.247 54.3066C200.392 54.3384 200.525 54.3809 200.67 54.4233C200.715 54.4339 200.715 54.434 200.737 54.4446C200.748 54.4446 200.737 54.4446 200.748 54.4552C200.826 54.487 200.893 54.5188 200.97 54.5613C201.115 54.6356 201.26 54.7098 201.393 54.7947C201.449 54.8266 201.504 54.869 201.56 54.9008C201.56 54.9008 201.638 54.9539 201.682 54.9751C201.727 55.007 201.916 55.1449 201.972 55.1661C202.161 55.251 202.339 55.3041 202.55 55.2935C203.028 55.2722 203.529 54.9008 203.485 54.4021C203.429 53.7442 202.973 53.4046 202.439 53.0863Z" fill="#5F3831"/>
<path d="M225.388 48.4172C224.087 47.6107 222.396 47.3455 220.905 47.7699C219.281 48.2262 217.524 49.5845 217.368 51.2824C217.301 51.9509 218.358 52.386 218.814 51.8554C219.281 51.3142 219.57 50.7836 220.127 50.3379C220.56 49.9878 221.139 49.7119 221.74 49.5845C222.863 49.3405 224.165 49.7649 225.021 50.6457C225.333 50.964 225.655 51.3248 226.156 51.3248C226.723 51.3248 227.102 50.8685 227.079 50.3486C227.035 49.5315 226.056 48.8311 225.388 48.4172Z" fill="#5F3831"/>
<path d="M205.264 61.3419C205.198 61.0342 204.997 60.8856 204.808 60.6628C204.452 60.2702 203.774 60.4824 203.607 60.9281C203.585 60.9599 203.551 60.9917 203.529 61.0236C203.473 61.1191 203.44 61.2358 203.407 61.3419C203.362 61.5011 203.34 61.6602 203.295 61.8088C203.24 61.9785 203.051 62.2332 202.884 62.403C202.405 62.8699 201.738 63.1246 201.059 63.2307C199.736 63.4323 198.401 62.8805 197.844 61.692C197.644 61.2782 197.066 61.2252 196.687 61.4056C195.853 61.7982 195.108 62.6683 195.542 63.5702C195.664 63.8249 196.064 63.8992 196.298 63.7612C196.532 63.6339 196.699 63.4535 196.877 63.2837C197.956 64.6631 199.78 65.2574 201.638 64.9603C202.684 64.7905 203.729 64.313 204.441 63.549C204.786 63.1776 205.086 62.7426 205.231 62.2651C205.298 61.9679 205.331 61.6496 205.264 61.3419Z" fill="#5F3831"/>
<path d="M228.259 55.9301C228.036 55.7922 227.758 55.6436 227.447 55.5799C227.18 55.5269 226.968 55.4632 226.735 55.3252C226.134 54.9644 225.277 55.3146 225.11 55.9513C224.81 57.0868 224.387 58.5405 223.264 59.103C222.552 59.4638 221.684 59.3364 220.972 59.0499C220.193 58.7422 219.481 57.9887 218.591 58.01C218.18 58.0206 217.946 58.3602 218.024 58.7209C218.135 59.2834 218.636 59.6654 219.103 59.9943C219.582 60.3339 220.082 60.6098 220.638 60.8326C221.729 61.2571 222.963 61.3526 224.065 60.9175C225.567 60.3233 226.368 58.9862 226.89 57.5855C226.979 57.5961 227.068 57.6067 227.157 57.6067C227.435 57.6067 227.725 57.5537 227.969 57.4157C228.225 57.2778 228.448 56.9594 228.503 56.8427C228.704 56.5031 228.592 56.1317 228.259 55.9301Z" fill="#5F3831"/>
<path d="M215.21 65.7989C214.787 65.6291 214.286 65.7776 214.042 66.1598C213.986 66.2447 213.93 66.3402 213.875 66.4251C213.853 66.457 213.83 66.4994 213.808 66.5313C213.786 66.5525 213.697 66.7117 213.764 66.5949C213.83 66.4888 213.73 66.6268 213.719 66.648C213.686 66.6799 213.663 66.7117 213.63 66.7435C213.563 66.8072 213.497 66.8709 213.419 66.9346C213.408 66.9452 213.419 66.9452 213.408 66.9452C213.374 66.9771 213.319 66.9983 213.285 67.0195C213.207 67.0726 213.118 67.115 213.029 67.1575C213.018 67.1681 212.951 67.1893 212.929 67.1999C212.918 67.1999 212.918 67.2 212.907 67.2106C212.796 67.2424 212.696 67.2636 212.584 67.2955C212.484 67.3167 212.395 67.3485 212.295 67.3698C212.251 67.3804 212.206 67.391 212.162 67.391C212.15 67.391 212.15 67.391 212.139 67.391C212.139 67.391 212.139 67.391 212.128 67.391C212.028 67.391 211.928 67.4016 211.828 67.4016C211.772 67.4016 211.717 67.4016 211.661 67.391C211.639 67.391 211.605 67.391 211.583 67.3804C211.383 67.3485 211.205 67.2955 211.005 67.253C210.849 67.2212 210.46 67.2424 210.382 67.4228C210.159 67.9854 210.849 68.3993 211.305 68.5904C211.883 68.8345 212.506 68.9619 213.141 68.8557C214.275 68.6647 215.31 67.8474 215.733 66.8285C215.922 66.4357 215.599 65.9581 215.21 65.7989Z" fill="#F18B66"/>
<path d="M218.347 74.7017C218.269 74.5107 218.169 74.2985 217.935 74.2348C217.735 74.1818 217.468 74.2773 217.279 74.3409C216.767 74.5319 216.389 74.9458 215.989 75.2747C215.977 75.2747 215.989 75.2747 215.966 75.2854C215.922 75.3066 215.877 75.3384 215.833 75.3702C215.744 75.4233 215.644 75.4764 215.555 75.5188C215.521 75.5294 215.499 75.5506 215.466 75.5613C215.443 75.5719 215.421 75.5719 215.41 75.5825C215.277 75.6249 215.154 75.6568 215.021 75.6886C215.01 75.6886 214.998 75.6886 214.976 75.6992C214.932 75.7098 214.82 75.7204 214.809 75.7204C214.665 75.731 214.531 75.7416 214.387 75.7416C214.242 75.7416 214.109 75.7204 213.975 75.7098C213.919 75.7098 213.864 75.6992 213.808 75.6992C213.797 75.6992 213.797 75.6992 213.797 75.6992C213.775 75.6992 213.753 75.6886 213.73 75.6886C213.441 75.6355 213.163 75.5612 212.874 75.5188C212.618 75.487 212.173 75.5294 212.095 75.8159C211.939 76.389 212.473 76.8877 212.929 77.1742C213.463 77.5032 214.042 77.6517 214.676 77.6942C215.777 77.7791 217.112 77.2697 217.846 76.4738C218.269 75.9963 218.614 75.3384 218.347 74.7017Z" fill="#F18B66"/>
<path d="M234.756 59.92C234.744 59.9094 234.722 59.8988 234.711 59.8882C234.644 59.7396 234.555 59.591 234.444 59.4743C234.133 59.156 233.754 59.0499 233.32 58.9968C232.809 58.9438 232.308 58.9862 231.796 59.0499C231.363 59.1029 230.951 59.209 230.55 59.3682C230.061 59.5592 229.594 59.7714 229.204 60.1216C228.348 60.8962 228.314 62.1483 229.127 62.9548C229.727 63.549 230.673 63.8143 231.518 63.7506C232.52 63.687 233.476 63.3474 234.277 62.7638C235.167 62.1165 235.712 60.7901 234.756 59.92Z" fill="#FA9385"/>
<path d="M200.748 67.8679C200.737 67.8573 200.714 67.8467 200.703 67.8361C200.637 67.6875 200.548 67.5389 200.436 67.4222C200.125 67.1039 199.747 66.9977 199.313 66.9447C198.801 66.8916 198.3 66.9341 197.789 66.9977C197.355 67.0508 196.943 67.1569 196.543 67.3161C196.053 67.5071 195.586 67.7193 195.197 68.0695C194.34 68.8442 194.307 70.0964 195.119 70.9029C195.719 71.4971 196.665 71.7624 197.511 71.6988C198.512 71.6351 199.468 71.2955 200.269 70.7119C201.159 70.0645 201.704 68.7381 200.748 67.8679Z" fill="#FA9385"/>
</g>
</svg>
