<svg width="176" height="37" viewBox="0 0 176 37" fill="none" xmlns="http://www.w3.org/2000/svg">
<g clip-path="url(#clip0_447_2176)">
<path d="M19.0409 19.7507C19.5238 18.949 19.8394 18.0694 20.1715 17.1363C20.5177 16.1676 20.8734 15.1655 21.441 14.2435C22.1877 13.032 23.2877 12.0255 24.5713 11.324V3.71008C24.5713 2.74804 23.7469 1.96861 22.7294 1.96861H15.3642C14.3467 1.96861 13.5223 2.74804 13.5223 3.71008V12.7782H3.93125C2.91373 12.7782 2.08936 13.5576 2.08936 14.5196V21.4855C2.08936 22.4475 2.91373 23.227 3.93125 23.227H13.4493C15.7434 22.9709 17.8915 21.6525 19.0409 19.7507Z" fill="#3EBFB8"/>
<path d="M34.1644 12.7782H24.5898C23.7749 13.3327 23.0777 14.0431 22.5713 14.8648C22.0696 15.6777 21.7493 16.5773 21.4101 17.5305C21.0733 18.4769 20.7223 19.4568 20.1759 20.3631C18.8121 22.6213 16.2518 24.1823 13.522 24.4652V32.2973C13.522 33.2593 14.3464 34.0388 15.3639 34.0388H22.7315C23.749 34.0388 24.5734 33.2593 24.5734 32.2973V23.227H34.1644C35.1819 23.227 36.0063 22.4476 36.0063 21.4855V14.5196C36.0063 13.5598 35.1819 12.7782 34.1644 12.7782Z" fill="#203360"/>
<path d="M53.3947 19.953H45.8961V27.3095H42.4489V10.18H45.8961V17.0507H53.3947V10.18H56.8538V27.3095H53.3947V19.953ZM62.1379 21.9787C62.13 22.6026 62.2287 23.1475 62.4341 23.6135C62.6394 24.0715 62.9355 24.4269 63.3225 24.6796C63.7174 24.9245 64.1912 25.0469 64.7441 25.0469C65.3364 25.0469 65.8537 24.9205 66.2959 24.6678C66.7461 24.4151 67.058 24.0005 67.2318 23.424H70.3473C70.213 24.2927 69.8655 25.035 69.3048 25.651C68.752 26.267 68.0807 26.7369 67.291 27.0607C66.5012 27.3845 65.6799 27.5464 64.827 27.5464C63.6187 27.5464 62.5525 27.2937 61.6285 26.7883C60.7124 26.2749 59.9977 25.5523 59.4844 24.6204C58.971 23.6885 58.7144 22.5908 58.7144 21.3272C58.7144 20.1031 58.9473 19.0014 59.4133 18.0221C59.8792 17.0349 60.5545 16.257 61.439 15.6884C62.3314 15.1119 63.4015 14.8236 64.6493 14.8236C65.8971 14.8236 66.9435 15.0882 67.7885 15.6173C68.6414 16.1386 69.2811 16.8691 69.7076 17.8089C70.142 18.7408 70.3591 19.8188 70.3591 21.0429V21.9787H62.1379ZM62.1261 19.9175H67.1251C67.1251 19.4279 67.0343 18.9777 66.8527 18.567C66.671 18.1564 66.3946 17.8326 66.0234 17.5956C65.6602 17.3587 65.2021 17.2403 64.6493 17.2403C64.1123 17.2403 63.6542 17.3706 63.2751 17.6312C62.904 17.8839 62.6197 18.2156 62.4222 18.6263C62.2248 19.0369 62.1261 19.4673 62.1261 19.9175ZM76.0775 27.5464C75.2957 27.5464 74.5928 27.4003 73.9689 27.1081C73.345 26.8159 72.8514 26.3934 72.4881 25.8406C72.1248 25.2799 71.9432 24.6007 71.9432 23.803C71.9432 22.4605 72.4447 21.4417 73.4477 20.7467C74.4506 20.0439 76.0341 19.6806 78.198 19.6569L79.7261 19.6332V18.8987C79.7261 18.338 79.5603 17.9076 79.2286 17.6075C78.9048 17.2995 78.3993 17.1494 77.7123 17.1573C77.2068 17.1652 76.7251 17.2837 76.267 17.5127C75.8169 17.7418 75.5089 18.1406 75.343 18.7092H72.4644C72.5118 17.8247 72.7685 17.0981 73.2344 16.5295C73.7004 15.953 74.3322 15.5265 75.1298 15.2501C75.9353 14.9658 76.8475 14.8236 77.8663 14.8236C79.122 14.8236 80.1289 14.9816 80.887 15.2975C81.6452 15.6055 82.1941 16.0517 82.5337 16.6361C82.8732 17.2126 83.043 17.8997 83.043 18.6973V27.3095H80.1526L79.8683 25.2009C79.4497 26.0854 78.9245 26.6974 78.2927 27.037C77.6688 27.3766 76.9304 27.5464 76.0775 27.5464ZM77.2384 25.272C77.5543 25.272 77.8584 25.2167 78.1506 25.1061C78.4507 24.9876 78.7152 24.8336 78.9443 24.6441C79.1812 24.4467 79.3707 24.2255 79.5129 23.9807C79.655 23.7359 79.7261 23.4832 79.7261 23.2226V21.4101L78.4823 21.4338C77.9058 21.4417 77.3687 21.5128 76.8712 21.647C76.3737 21.7734 75.9709 21.9827 75.6629 22.2749C75.3628 22.5671 75.2127 22.962 75.2127 23.4595C75.2127 24.0281 75.4102 24.4743 75.805 24.7981C76.1999 25.114 76.6777 25.272 77.2384 25.272ZM89.5405 27.5227C88.6402 27.5227 87.9254 27.4161 87.3963 27.2029C86.8672 26.9896 86.4763 26.7093 86.2235 26.3618C85.9708 26.0064 85.8089 25.6155 85.7379 25.189C85.6668 24.7547 85.6312 24.3164 85.6312 23.8741V9.70611H89.0192V23.4476C89.0192 23.8978 89.114 24.265 89.3035 24.5493C89.501 24.8258 89.8682 24.9955 90.4052 25.0587L90.9857 25.0943V27.2266C90.7488 27.3055 90.5079 27.3727 90.2631 27.428C90.0183 27.4911 89.7774 27.5227 89.5405 27.5227ZM100.088 17.4653H97.3636L97.3872 23.9926C97.3872 24.2927 97.4228 24.5178 97.4939 24.6678C97.5728 24.81 97.6913 24.9047 97.8492 24.9521C98.0151 24.9916 98.2244 25.0113 98.4771 25.0113H100.124V27.1436C99.9658 27.2147 99.717 27.2819 99.3774 27.345C99.0457 27.4082 98.5798 27.4398 97.9796 27.4398C96.9055 27.4398 96.0723 27.3016 95.48 27.0252C94.8956 26.7488 94.4889 26.3618 94.2599 25.8643C94.0308 25.3667 93.9163 24.7902 93.9163 24.1347V17.4653H91.9262V15.0606H94.0348L94.8996 11.3646H97.3636V15.0487H100.088V17.4653ZM102.643 27.3095V9.70611H106.079V16.8256C106.276 16.5413 106.525 16.261 106.825 15.9846C107.125 15.7003 107.5 15.4633 107.951 15.2738C108.401 15.0843 108.95 14.9895 109.597 14.9895C110.379 14.9895 111.09 15.1435 111.729 15.4515C112.377 15.7516 112.894 16.1899 113.281 16.7664C113.676 17.3429 113.874 18.0458 113.874 18.875V27.3095H110.403V19.3844C110.403 18.8316 110.201 18.4091 109.799 18.1169C109.404 17.8168 108.922 17.6667 108.353 17.6667C107.982 17.6667 107.623 17.7339 107.275 17.8681C106.928 18.0024 106.643 18.2077 106.422 18.4841C106.209 18.7526 106.103 19.0883 106.103 19.491V27.3095H102.643ZM118.121 31.2187C117.284 31.2187 116.692 31.1476 116.344 31.0055C116.004 30.8712 115.835 30.8041 115.835 30.8041V28.6007L117.043 28.6481C117.572 28.6797 117.999 28.6521 118.322 28.5652C118.646 28.4862 118.891 28.3796 119.057 28.2453C119.231 28.1111 119.353 27.9689 119.424 27.8189C119.495 27.6767 119.546 27.5622 119.578 27.4753L119.803 26.8001L115.041 15.0606H118.465L121.402 23.0449L124.376 15.0606H127.752L122.788 27.3806C122.362 28.423 121.912 29.2207 121.438 29.7735C120.964 30.3263 120.451 30.7054 119.898 30.9107C119.353 31.1161 118.761 31.2187 118.121 31.2187ZM128.83 27.3095V15.0606H132.218V16.7901C132.589 16.2531 133.087 15.7911 133.711 15.4041C134.342 15.0171 135.136 14.8236 136.092 14.8236C136.51 14.8236 136.937 14.8987 137.371 15.0487C137.805 15.1988 138.212 15.4199 138.591 15.7121C138.978 15.9964 139.29 16.3558 139.527 16.7901C139.922 16.2294 140.439 15.7634 141.079 15.3923C141.726 15.0132 142.445 14.8236 143.235 14.8236C143.693 14.8236 144.155 14.8987 144.621 15.0487C145.095 15.1988 145.529 15.4436 145.924 15.7832C146.319 16.1228 146.635 16.5769 146.872 17.1455C147.116 17.7062 147.239 18.4012 147.239 19.2304V27.3095H143.78V19.6569C143.78 19.1672 143.681 18.7763 143.484 18.4841C143.294 18.184 143.049 17.9708 142.749 17.8444C142.457 17.7102 142.145 17.643 141.813 17.643C141.505 17.643 141.193 17.7062 140.877 17.8326C140.562 17.951 140.293 18.1445 140.072 18.413C139.851 18.6815 139.74 19.033 139.74 19.4673V27.3095H136.293V19.3489C136.293 18.9777 136.194 18.6658 135.997 18.413C135.799 18.1603 135.551 17.9708 135.251 17.8444C134.958 17.7102 134.658 17.643 134.35 17.643C134.034 17.643 133.718 17.7102 133.403 17.8444C133.087 17.9708 132.822 18.1722 132.609 18.4486C132.396 18.7171 132.289 19.0567 132.289 19.4673V27.3095H128.83ZM152.416 21.9787C152.408 22.6026 152.507 23.1475 152.712 23.6135C152.917 24.0715 153.213 24.4269 153.6 24.6796C153.995 24.9245 154.469 25.0469 155.022 25.0469C155.614 25.0469 156.132 24.9205 156.574 24.6678C157.024 24.4151 157.336 24.0005 157.51 23.424H160.625C160.491 24.2927 160.143 25.035 159.583 25.651C159.03 26.267 158.359 26.7369 157.569 27.0607C156.779 27.3845 155.958 27.5464 155.105 27.5464C153.897 27.5464 152.83 27.2937 151.906 26.7883C150.99 26.2749 150.276 25.5523 149.762 24.6204C149.249 23.6885 148.992 22.5908 148.992 21.3272C148.992 20.1031 149.225 19.0014 149.691 18.0221C150.157 17.0349 150.832 16.257 151.717 15.6884C152.609 15.1119 153.679 14.8236 154.927 14.8236C156.175 14.8236 157.221 15.0882 158.066 15.6173C158.919 16.1386 159.559 16.8691 159.985 17.8089C160.42 18.7408 160.637 19.8188 160.637 21.0429V21.9787H152.416ZM152.404 19.9175H157.403C157.403 19.4279 157.312 18.9777 157.131 18.567C156.949 18.1564 156.672 17.8326 156.301 17.5956C155.938 17.3587 155.48 17.2403 154.927 17.2403C154.39 17.2403 153.932 17.3706 153.553 17.6312C153.182 17.8839 152.898 18.2156 152.7 18.6263C152.503 19.0369 152.404 19.4673 152.404 19.9175ZM166.877 27.5464C165.234 27.5464 163.955 26.9818 163.038 25.8524C162.122 24.7152 161.664 23.1357 161.664 21.114C161.664 19.8346 161.85 18.725 162.221 17.7852C162.592 16.8454 163.141 16.1188 163.868 15.6055C164.594 15.0843 165.483 14.8236 166.533 14.8236C166.975 14.8236 167.386 14.875 167.765 14.9776C168.152 15.0724 168.503 15.2067 168.819 15.3804C169.135 15.5542 169.412 15.7555 169.649 15.9846C169.886 16.2136 170.079 16.4584 170.229 16.719V9.70611H173.7V27.3095H171.189L170.798 24.7981C170.687 25.1377 170.533 25.4694 170.336 25.7932C170.138 26.117 169.886 26.4131 169.578 26.6816C169.27 26.9423 168.89 27.1515 168.44 27.3095C167.998 27.4674 167.477 27.5464 166.877 27.5464ZM167.635 25.0587C168.503 25.0587 169.151 24.7547 169.578 24.1466C170.012 23.5385 170.229 22.5118 170.229 21.0666C170.221 20.2294 170.122 19.5345 169.933 18.9816C169.743 18.4288 169.459 18.0182 169.08 17.7496C168.709 17.4732 168.235 17.335 167.658 17.335C166.908 17.335 166.284 17.6233 165.787 18.1998C165.289 18.7684 165.04 19.724 165.04 21.0666C165.04 22.4328 165.273 23.4398 165.739 24.0873C166.205 24.7349 166.837 25.0587 167.635 25.0587Z" fill="black"/>
</g>
<defs>
<clipPath id="clip0_447_2176">
<rect width="176" height="36.092" fill="white"/>
</clipPath>
</defs>
</svg>
