<svg width="240" height="51" viewBox="0 0 240 51" fill="none" xmlns="http://www.w3.org/2000/svg">
<g clip-path="url(#clip0_1785_10435)">
<path d="M25.9644 27.7587C26.6228 26.632 27.0532 25.3957 27.5061 24.0843C27.9783 22.7228 28.4632 21.3144 29.2373 20.0186C30.2555 18.316 31.7554 16.9013 33.5059 15.9154V5.21439C33.5059 3.86229 32.3817 2.76685 30.9942 2.76685H20.9507C19.5632 2.76685 18.439 3.86229 18.439 5.21439V17.9592H5.36031C3.97279 17.9592 2.84863 19.0546 2.84863 20.4067V30.1969C2.84863 31.549 3.97279 32.6444 5.36031 32.6444H18.3394C21.4678 32.2845 24.397 30.4316 25.9644 27.7587Z" fill="url(#paint0_linear_1785_10435)"/>
<path d="M46.5882 17.959H33.532C32.4207 18.7383 31.47 19.7367 30.7794 20.8917C30.0953 22.0341 29.6585 23.2985 29.196 24.6381C28.7367 25.9683 28.2581 27.3454 27.513 28.6193C25.6533 31.7929 22.162 33.987 18.4395 34.3845V45.3922C18.4395 46.7442 19.5636 47.8397 20.9511 47.8397H30.9978C32.3854 47.8397 33.5095 46.7442 33.5095 45.3922V32.6443H46.5882C47.9758 32.6443 49.0999 31.5488 49.0999 30.1967V20.4065C49.0999 19.0576 47.9758 17.959 46.5882 17.959Z" fill="url(#paint1_linear_1785_10435)"/>
<g clip-path="url(#clip1_1785_10435)">
<path d="M25.9644 27.7587C26.6228 26.632 27.0532 25.3957 27.5061 24.0843C27.9783 22.7228 28.4632 21.3144 29.2373 20.0186C30.2555 18.316 31.7554 16.9013 33.5059 15.9154V5.21439C33.5059 3.86229 32.3817 2.76685 30.9942 2.76685H20.9507C19.5632 2.76685 18.439 3.86229 18.439 5.21439V17.9592H5.36031C3.97279 17.9592 2.84863 19.0546 2.84863 20.4067V30.1969C2.84863 31.549 3.97279 32.6444 5.36031 32.6444H18.3394C21.4678 32.2845 24.397 30.4316 25.9644 27.7587Z" fill="url(#paint2_linear_1785_10435)"/>
<path d="M46.5882 17.959H33.532C32.4207 18.7383 31.47 19.7367 30.7794 20.8917C30.0953 22.0341 29.6585 23.2985 29.196 24.6381C28.7367 25.9683 28.2581 27.3454 27.513 28.6193C25.6533 31.7929 22.162 33.987 18.4395 34.3845V45.3922C18.4395 46.7442 19.5636 47.8397 20.9511 47.8397H30.9978C32.3854 47.8397 33.5095 46.7442 33.5095 45.3922V32.6443H46.5882C47.9758 32.6443 49.0999 31.5488 49.0999 30.1967V20.4065C49.0999 19.0576 47.9758 17.959 46.5882 17.959Z" fill="url(#paint3_linear_1785_10435)"/>
<path d="M72.5344 26.1833H62.4703V36.0566H57.8437V13.0666H62.4703V22.2881H72.5344V13.0666H77.177V36.0566H72.5344V26.1833ZM84.2689 28.9021C84.2583 29.7394 84.3908 30.4708 84.6664 31.0961C84.942 31.7109 85.3395 32.1879 85.8588 32.5271C86.3888 32.8556 87.0248 33.0199 87.7667 33.0199C88.5617 33.0199 89.2559 32.8503 89.8495 32.5112C90.4537 32.172 90.8723 31.6155 91.1055 30.8418H95.287C95.1068 32.0077 94.6404 33.004 93.8879 33.8308C93.1459 34.6575 92.245 35.2882 91.185 35.7228C90.1251 36.1573 89.0228 36.3746 87.878 36.3746C86.2563 36.3746 84.8254 36.0354 83.5853 35.3571C82.3558 34.6681 81.3965 33.6983 80.7075 32.4476C80.0186 31.1968 79.6741 29.7235 79.6741 28.0276C79.6741 26.3847 79.9868 24.9061 80.6122 23.5918C81.2375 22.2669 82.1438 21.2228 83.3309 20.4597C84.5286 19.6859 85.9648 19.299 87.6395 19.299C89.3142 19.299 90.7187 19.6541 91.8528 20.3643C92.9975 21.0638 93.8561 22.0443 94.4284 23.3056C95.0114 24.5563 95.3029 26.0031 95.3029 27.646V28.9021H84.2689ZM84.253 26.1356H90.9624C90.9624 25.4785 90.8405 24.8743 90.5968 24.3231C90.353 23.772 89.982 23.3374 89.4838 23.0194C88.9963 22.7014 88.3815 22.5424 87.6395 22.5424C86.9188 22.5424 86.304 22.7173 85.7952 23.0671C85.2971 23.4063 84.9155 23.8515 84.6505 24.4026C84.3855 24.9538 84.253 25.5315 84.253 26.1356ZM102.978 36.3746C101.928 36.3746 100.985 36.1785 100.148 35.7864C99.3103 35.3942 98.6478 34.8271 98.1602 34.0852C97.6727 33.3326 97.4289 32.4211 97.4289 31.3505C97.4289 29.5486 98.1019 28.1813 99.4481 27.2486C100.794 26.3052 102.919 25.8176 105.824 25.7859L107.875 25.7541V24.7683C107.875 24.0158 107.652 23.4381 107.207 23.0353C106.772 22.6219 106.094 22.4206 105.172 22.4311C104.493 22.4417 103.847 22.6007 103.232 22.9081C102.628 23.2155 102.214 23.7508 101.992 24.5139H98.1284C98.192 23.3268 98.5365 22.3517 99.1619 21.5885C99.7872 20.8147 100.635 20.2424 101.706 19.8714C102.787 19.4898 104.011 19.299 105.378 19.299C107.064 19.299 108.415 19.511 109.433 19.935C110.45 20.3484 111.187 20.9472 111.643 21.7316C112.098 22.5053 112.326 23.4275 112.326 24.498V36.0566H108.447L108.065 33.2266C107.504 34.4137 106.799 35.2352 105.951 35.691C105.113 36.1467 104.122 36.3746 102.978 36.3746ZM104.536 33.322C104.96 33.322 105.368 33.2478 105.76 33.0994C106.163 32.9404 106.518 32.7337 106.825 32.4794C107.143 32.2144 107.398 31.9176 107.588 31.589C107.779 31.2604 107.875 30.9212 107.875 30.5715V28.1389L106.205 28.1707C105.431 28.1813 104.711 28.2767 104.043 28.4569C103.375 28.6265 102.835 28.9074 102.421 29.2995C102.018 29.6917 101.817 30.2217 101.817 30.8894C101.817 31.6526 102.082 32.2515 102.612 32.686C103.142 33.11 103.783 33.322 104.536 33.322ZM121.047 36.3428C119.838 36.3428 118.879 36.1997 118.169 35.9135C117.459 35.6274 116.934 35.2511 116.595 34.7847C116.256 34.3077 116.038 33.7831 115.943 33.2107C115.848 32.6277 115.8 32.0395 115.8 31.4459V12.4306H120.347V30.8735C120.347 31.4777 120.474 31.9706 120.729 32.3522C120.994 32.7231 121.487 32.951 122.207 33.0358L122.986 33.0835V35.9453C122.668 36.0513 122.345 36.1414 122.017 36.2156C121.688 36.3004 121.365 36.3428 121.047 36.3428ZM135.203 22.8445H131.546L131.578 31.6049C131.578 32.0077 131.626 32.3098 131.721 32.5112C131.827 32.7019 131.986 32.8291 132.198 32.8927C132.421 32.9457 132.702 32.9722 133.041 32.9722H135.251V35.8341C135.039 35.9294 134.705 36.0195 134.249 36.1043C133.804 36.1891 133.179 36.2315 132.373 36.2315C130.932 36.2315 129.813 36.046 129.018 35.6751C128.234 35.3041 127.688 34.7847 127.381 34.117C127.073 33.4492 126.92 32.6754 126.92 31.7957V22.8445H124.249V19.617H127.079L128.239 14.6565H131.546V19.6011H135.203V22.8445ZM138.633 36.0566V12.4306H143.243V21.986C143.508 21.6044 143.842 21.2281 144.245 20.8571C144.648 20.4756 145.151 20.1576 145.755 19.9032C146.359 19.6488 147.096 19.5216 147.965 19.5216C149.015 19.5216 149.969 19.7283 150.827 20.1417C151.696 20.5445 152.391 21.1327 152.91 21.9065C153.44 22.6802 153.705 23.6236 153.705 24.7365V36.0566H149.046V25.4202C149.046 24.6782 148.776 24.1111 148.236 23.719C147.706 23.3162 147.059 23.1148 146.296 23.1148C145.798 23.1148 145.315 23.2049 144.849 23.3851C144.383 23.5653 144.001 23.8409 143.704 24.2118C143.418 24.5722 143.275 25.0227 143.275 25.5633V36.0566H138.633ZM159.405 41.3033C158.282 41.3033 157.487 41.2079 157.021 41.0171C156.565 40.837 156.337 40.7469 156.337 40.7469V37.7896L157.959 37.8532C158.669 37.8956 159.241 37.8585 159.676 37.7419C160.11 37.6359 160.439 37.4929 160.661 37.3127C160.895 37.1325 161.059 36.9417 161.154 36.7403C161.25 36.5495 161.319 36.3958 161.361 36.2792L161.663 35.373L155.272 19.617H159.866L163.809 30.333L167.8 19.617H172.331L165.67 36.152C165.097 37.5512 164.493 38.6217 163.857 39.3636C163.221 40.1056 162.532 40.6144 161.79 40.89C161.059 41.1655 160.264 41.3033 159.405 41.3033ZM173.778 36.0566V19.617H178.325V21.9383C178.823 21.2175 179.491 20.5975 180.329 20.0781C181.176 19.5587 182.242 19.299 183.524 19.299C184.086 19.299 184.658 19.3997 185.241 19.6011C185.824 19.8025 186.37 20.0993 186.879 20.4915C187.398 20.873 187.817 21.3553 188.135 21.9383C188.665 21.1857 189.359 20.5604 190.218 20.0622C191.087 19.5534 192.051 19.299 193.111 19.299C193.726 19.299 194.346 19.3997 194.972 19.6011C195.608 19.8025 196.191 20.1311 196.72 20.5869C197.25 21.0426 197.674 21.6521 197.992 22.4153C198.321 23.1678 198.485 24.1006 198.485 25.2135V36.0566H193.843V25.7859C193.843 25.1287 193.71 24.604 193.445 24.2118C193.191 23.8091 192.862 23.5229 192.46 23.3533C192.067 23.1731 191.649 23.083 191.203 23.083C190.79 23.083 190.371 23.1678 189.947 23.3374C189.523 23.4964 189.163 23.7561 188.866 24.1164C188.57 24.4768 188.421 24.9485 188.421 25.5315V36.0566H183.795V25.3725C183.795 24.8743 183.662 24.4556 183.397 24.1164C183.132 23.7773 182.798 23.5229 182.395 23.3533C182.003 23.1731 181.6 23.083 181.187 23.083C180.763 23.083 180.339 23.1731 179.915 23.3533C179.491 23.5229 179.136 23.7932 178.85 24.1641C178.564 24.5245 178.421 24.9803 178.421 25.5315V36.0566H173.778ZM205.433 28.9021C205.423 29.7394 205.555 30.4708 205.831 31.0961C206.106 31.7109 206.504 32.1879 207.023 32.5271C207.553 32.8556 208.189 33.0199 208.931 33.0199C209.726 33.0199 210.42 32.8503 211.014 32.5112C211.618 32.172 212.037 31.6155 212.27 30.8418H216.451C216.271 32.0077 215.805 33.004 215.052 33.8308C214.31 34.6575 213.409 35.2882 212.349 35.7228C211.29 36.1573 210.187 36.3746 209.042 36.3746C207.421 36.3746 205.99 36.0354 204.75 35.3571C203.52 34.6681 202.561 33.6983 201.872 32.4476C201.183 31.1968 200.839 29.7235 200.839 28.0276C200.839 26.3847 201.151 24.9061 201.777 23.5918C202.402 22.2669 203.308 21.2228 204.495 20.4597C205.693 19.6859 207.129 19.299 208.804 19.299C210.479 19.299 211.883 19.6541 213.017 20.3643C214.162 21.0638 215.021 22.0443 215.593 23.3056C216.176 24.5563 216.467 26.0031 216.467 27.646V28.9021H205.433ZM205.418 26.1356H212.127C212.127 25.4785 212.005 24.8743 211.761 24.3231C211.517 23.772 211.146 23.3374 210.648 23.0194C210.161 22.7014 209.546 22.5424 208.804 22.5424C208.083 22.5424 207.468 22.7173 206.96 23.0671C206.462 23.4063 206.08 23.8515 205.815 24.4026C205.55 24.9538 205.418 25.5315 205.418 26.1356ZM224.842 36.3746C222.637 36.3746 220.92 35.6168 219.69 34.1011C218.461 32.5747 217.846 30.4549 217.846 27.7414C217.846 26.0243 218.095 24.5351 218.593 23.2738C219.092 22.0125 219.828 21.0373 220.803 20.3484C221.778 19.6488 222.971 19.299 224.381 19.299C224.974 19.299 225.525 19.3679 226.034 19.5057C226.553 19.6329 227.025 19.8131 227.449 20.0463C227.873 20.2795 228.244 20.5498 228.562 20.8571C228.88 21.1645 229.14 21.4931 229.341 21.8429V12.4306H234V36.0566H230.629L230.104 32.686C229.956 33.1418 229.749 33.587 229.484 34.0216C229.219 34.4561 228.88 34.8536 228.467 35.214C228.053 35.5638 227.545 35.8447 226.94 36.0566C226.347 36.2686 225.647 36.3746 224.842 36.3746ZM225.859 33.0358C227.025 33.0358 227.894 32.6277 228.467 31.8116C229.05 30.9954 229.341 29.6175 229.341 27.6778C229.331 26.5543 229.198 25.6216 228.944 24.8796C228.689 24.1376 228.308 23.5865 227.799 23.2261C227.301 22.8551 226.665 22.6696 225.891 22.6696C224.884 22.6696 224.047 23.0565 223.379 23.8303C222.711 24.5934 222.377 25.8759 222.377 27.6778C222.377 29.5115 222.69 30.8629 223.315 31.7321C223.941 32.6012 224.789 33.0358 225.859 33.0358Z" fill="black"/>
</g>
</g>
<defs>
<linearGradient id="paint0_linear_1785_10435" x1="12" y1="11.5" x2="37" y2="37.5" gradientUnits="userSpaceOnUse">
<stop stop-color="#1A191B"/>
<stop offset="1" stop-color="#6B6B6B"/>
</linearGradient>
<linearGradient id="paint1_linear_1785_10435" x1="21.5" y1="18" x2="43" y2="43" gradientUnits="userSpaceOnUse">
<stop stop-color="#6B6B6B"/>
<stop offset="1"/>
</linearGradient>
<linearGradient id="paint2_linear_1785_10435" x1="12" y1="11.5" x2="37" y2="37.5" gradientUnits="userSpaceOnUse">
<stop stop-color="#1A191B"/>
<stop offset="1" stop-color="#6B6B6B"/>
</linearGradient>
<linearGradient id="paint3_linear_1785_10435" x1="21.5" y1="18" x2="43" y2="43" gradientUnits="userSpaceOnUse">
<stop stop-color="#6B6B6B"/>
<stop offset="1"/>
</linearGradient>
<clipPath id="clip0_1785_10435">
<rect width="240" height="50.7256" fill="white"/>
</clipPath>
<clipPath id="clip1_1785_10435">
<rect width="240" height="50.7256" fill="white"/>
</clipPath>
</defs>
</svg>
