<svg width="120" height="36" viewBox="0 0 120 36" fill="none" xmlns="http://www.w3.org/2000/svg">
<g clip-path="url(#clip0_1785_10458)">
<path d="M0.140678 24.7385C0.140678 22.9503 0.110348 21.4534 0.0166016 20.114H3.29911L3.45489 22.4121H3.54588C4.28896 21.1991 5.65104 19.7618 8.19047 19.7618C10.1729 19.7618 11.7197 20.9122 12.3705 22.6336H12.4339C12.9605 21.7729 13.5781 21.1338 14.2895 20.6892C15.1263 20.0814 16.0886 19.7618 17.3252 19.7618C19.8343 19.7618 22.371 21.5159 22.371 26.4954V35.6477H18.6556V27.0663C18.6556 24.4843 17.7885 22.9503 15.9618 22.9503C14.6617 22.9503 13.7008 23.9105 13.2997 25.0268C13.188 25.4528 13.1255 25.8909 13.1135 26.332V35.6491H9.39814V26.6502C9.39814 24.4857 8.5627 22.9518 6.79668 22.9518C5.37532 22.9518 4.41579 24.1022 4.07114 25.1845C3.91811 25.5679 3.85469 26.0167 3.85469 26.4599V35.6491H0.140678V24.7385ZM36.8479 31.918C36.8479 33.3199 36.91 34.6904 37.063 35.6491H33.6261L33.3793 33.9277H33.2856C32.3564 35.1407 30.7765 35.9985 28.8299 35.9985C25.7941 35.9985 24.0915 33.736 24.0915 31.3741C24.0915 27.447 27.4636 25.4728 33.0402 25.504V25.2498C33.0402 24.2272 32.6362 22.537 29.9727 22.537C28.4852 22.537 26.9384 23.0171 25.9168 23.6846L25.1737 21.1324C26.2891 20.4293 28.2398 19.7604 30.6221 19.7604C35.4542 19.7604 36.8493 22.9219 36.8493 26.2994L36.8479 31.918ZM33.1312 28.0591C30.436 27.9938 27.8676 28.6002 27.8676 30.9608C27.8676 32.4918 28.8299 33.1949 30.0362 33.1949C31.5513 33.1949 32.6679 32.1708 33.0085 31.0559C33.0919 30.7771 33.1337 30.4869 33.1325 30.1952V28.0591H33.1312ZM39.4784 24.7385C39.4784 22.9503 39.4467 21.4534 39.357 20.114H42.6974L42.8822 22.4461H42.9759C43.6253 21.2318 45.2672 19.7618 47.7749 19.7618C50.4081 19.7618 53.1309 21.5159 53.1309 26.4315V35.6477H49.3231V26.8774C49.3231 24.6447 48.5166 22.9489 46.4432 22.9489C44.9281 22.9489 43.872 24.0667 43.4709 25.2484C43.3468 25.5978 43.3164 26.0778 43.3164 26.5209V35.6463H39.477L39.4784 24.7385ZM69.644 13.8733V31.2789C69.644 32.8739 69.7075 34.5995 69.7681 35.6491H66.3643L66.2085 33.1949H66.1451C65.249 34.9163 63.4196 35.9999 61.2234 35.9999C57.6307 35.9999 54.7839 32.8426 54.7839 28.0605C54.7508 22.8594 57.9078 19.7632 61.5336 19.7632C63.6071 19.7632 65.0932 20.6566 65.7742 21.8099H65.839V13.8747H69.6454V13.8733H69.644ZM65.8377 26.5891C65.8377 26.2724 65.8073 25.8889 65.7439 25.5679C65.4034 24.0397 64.1985 22.7941 62.4628 22.7941C60.0171 22.7941 58.6523 25.0282 58.6523 27.9299C58.6523 30.7662 60.0157 32.8412 62.4325 32.8412C63.9779 32.8412 65.3414 31.7547 65.7122 30.0646C65.806 29.7152 65.839 29.3303 65.839 28.917V26.5891H65.8377ZM72.3379 35.6491V20.114H76.1801V35.6491H72.3379ZM78.8712 25.1234C78.8712 23.0185 78.8422 21.5173 78.7499 20.1155H82.0627L82.184 23.0796H82.3095C83.0526 20.8796 84.8158 20.1155 86.4302 20.1155C86.801 20.1155 87.0161 20.0501 87.3249 20.1155V23.5625C86.9595 23.4792 86.5866 23.4363 86.2124 23.4347C84.3816 23.4347 83.1435 24.6476 82.8044 26.3988C82.7294 26.7996 82.6884 27.2064 82.6817 27.6146V35.6505H78.8712V25.1234ZM89.0923 35.6491V20.114H92.929V35.6491H89.0923Z" fill="#0D2B5B"/>
<path d="M116.829 3.68419C114.928 1.45007 112.907 2.46132 111.301 3.28366C110.625 3.62737 105.749 6.47505 105.749 6.47505C103.077 7.60986 100.997 6.37137 100.181 5.32888C100.103 5.23002 100.032 5.12508 99.9697 5.01499L99.7794 4.67555C99.4579 4.1026 99.1005 3.55179 98.7096 3.02659C98.4724 2.70825 98.2154 2.40605 97.9404 2.12187C96.1123 0.220105 93.191 -1.11071 88.3079 1.30662C85.996 2.68714 78.4645 7.11986 78.4645 7.11986C75.6342 8.32 73.4698 6.85853 72.7667 5.78621C72.735 5.74606 72.7073 5.70277 72.6839 5.65696L72.5916 5.49505L72.1146 4.69117C71.8993 4.33903 71.6684 3.99732 71.4225 3.66714C71.1829 3.35083 70.9256 3.04922 70.6519 2.76384C68.8362 0.873436 65.9301 -0.454532 61.0897 1.91735C58.1629 3.63874 51.3552 7.64821 51.3552 7.64821L51.3525 7.65105L46.3701 10.5839L48.9482 13.8449C50.0331 14.9101 52.0721 16.6571 55.2264 15.1843C55.2264 15.1843 63.9324 9.99026 63.9669 9.97464C71.4101 5.76633 75.0828 9.78716 76.7068 12.4672C76.7633 12.551 76.8088 12.6419 76.8598 12.7229L76.8626 12.7272C76.8832 12.7598 76.8956 12.7896 76.9136 12.8209L77.0969 13.1305C77.8883 14.3662 79.1359 15.1644 80.6235 15.1274C81.4437 15.1104 82.0007 14.8349 82.8113 14.3704L91.2347 9.33693L91.2527 9.32841C98.7896 5.06897 102.524 9.35255 104.119 12.0326C104.243 12.2641 104.384 12.4857 104.529 12.6916C105.319 13.7952 106.408 14.5181 107.792 14.4826C108.706 14.4642 109.73 13.8989 109.883 13.7952L119.982 7.79024C119.985 7.79308 118.953 6.18673 116.829 3.68419Z" fill="#FDD213"/>
</g>
<defs>
<clipPath id="clip0_1785_10458">
<rect width="120" height="36" fill="white"/>
</clipPath>
</defs>
</svg>
