<svg width="346" height="144" viewBox="0 0 346 144" fill="none" xmlns="http://www.w3.org/2000/svg">
<g filter="url(#filter0_dd_2130_10386)">
<rect x="10" y="6" width="326" height="124" rx="8" fill="#FFB156"/>
</g>
<mask id="mask0_2130_10386" style="mask-type:alpha" maskUnits="userSpaceOnUse" x="10" y="6" width="168" height="124">
<rect x="10" y="6" width="168" height="124" rx="8" fill="#F99746"/>
</mask>
<g mask="url(#mask0_2130_10386)">
<g clip-path="url(#clip0_2130_10386)">
<path opacity="0.25" d="M100.884 144.032C118.521 136.911 134.631 125.376 145.394 109.74C156.157 94.1116 161.18 74.229 157.191 55.6921C155.313 46.9597 151.141 38.2344 143.642 33.3426C137.754 29.5021 130.494 28.4298 124.163 25.3742C108.116 17.63 100.948 -0.885932 95.4463 -17.7759C89.938 -34.673 83.3956 -53.2379 67.7853 -61.8231C50.7046 -71.2142 27.4966 -63.9186 15.9805 -48.234C4.46447 -32.5424 3.58512 -10.7957 10.2542 7.46796C14.0389 17.8402 20.1522 28.0233 19.2236 39.0193C18.3935 48.859 12.0621 57.2409 8.11557 66.3026C0.813384 83.0525 1.95303 103.208 11.0913 119.033C29.8533 151.531 68.6365 157.053 100.884 144.032Z" fill="white"/>
<path d="M29.5437 95.8357C16.4589 79.4082 4.67548 61.6422 -2.33827 41.8648C-9.35905 22.0943 -11.3499 0.0882746 -4.9482 -19.8924C9.18483 -3.84338 19.308 14.7847 24.2605 35.5643C29.2131 56.3439 29.0864 74.4884 29.5437 95.8357Z" fill="#009B90"/>
<path d="M18.1682 97.5807C16.515 90.3412 11.9986 84.1038 7.32045 78.3219C1.74884 71.4398 -4.273 64.8169 -11.4275 59.5817C-18.5819 54.3465 -26.9675 50.527 -35.8173 49.7911C-18.9688 65.9032 -0.980686 84.272 18.1682 97.5807Z" fill="#009B90"/>
<path d="M-5.20853 -19.2406C17.0849 28.1706 30.8381 89.8016 37.5142 141.733" stroke="#2D7C54" stroke-miterlimit="10"/>
<path d="M33.5325 114.835C33.5325 114.835 0.166128 71.8813 -35.8172 49.7911" stroke="#2D7C54" stroke-miterlimit="10"/>
<path d="M107.532 153.598C109.6 152.14 110.304 149.47 111.127 147.087C113.948 138.874 119.548 131.942 125.197 125.327C128.25 121.752 131.416 118.157 135.432 115.704C148.095 107.953 165.964 113.216 178.134 104.715C170.86 107.301 161.658 105.759 154.166 103.895C146.674 102.031 139.006 99.7674 131.359 100.861C124.458 101.849 118.099 105.591 113.399 110.728C108.7 115.865 105.605 122.32 103.881 129.055C102.945 132.699 102.404 136.512 103.03 140.219C103.769 144.55 107.448 149.19 107.532 153.598Z" fill="#009B90"/>
<path d="M106.709 157.256C106.913 148.629 108.074 139.932 111.324 131.928C114.307 124.57 119.33 117.603 125.886 113.013C132.344 108.486 141.074 107.687 148.721 107.596C157.951 107.483 167.068 108.212 176.038 105.591" stroke="#2D7C54" stroke-width="1.1136" stroke-miterlimit="10"/>
<path d="M122.981 24.5753C122.981 24.5753 126.421 20.6786 127.314 14.8547C128.208 9.03786 128.137 7.95157 129.46 5.62482C129.46 5.62482 133.202 7.60817 129.495 16.8731C129.495 16.8731 134.194 9.44434 139.787 8.04969C139.787 8.04969 138.415 13.8455 132.935 17.7632C132.935 17.7632 138.338 15.4014 144.008 17.3567C144.008 17.3567 141.356 19.9778 134.504 19.9988C134.504 19.9988 140.223 21.001 141.433 25.4863C141.433 25.4863 136.305 24.7505 133.35 23.7693C130.395 22.7881 126.027 23.6432 123.543 25.3181C121.06 26.9931 122.981 24.5753 122.981 24.5753Z" fill="#D95E53"/>
<path d="M120.455 28.6961C120.455 28.6961 120.483 26.1521 121.609 23.9725C122.734 21.7929 125.337 16.8381 125.337 16.8381C125.337 16.8381 126.224 19.4942 125.112 21.3584C125.112 21.3584 126.695 20.3632 128.946 20.2721C128.946 20.2721 128.665 21.4986 126.575 22.9493C126.575 22.9493 129.762 22.8512 130.782 23.6572C130.782 23.6572 125.541 26.4184 123.951 26.937C122.354 27.4627 120.455 28.6961 120.455 28.6961Z" fill="#009B90"/>
<path d="M135.404 47.2892C135.404 47.2892 139.695 45.6422 142.784 41.4513C145.872 37.2603 146.266 36.3913 148.25 35.1088C148.25 35.1088 150.367 38.1854 143.656 43.9252C143.656 43.9252 150.381 40.0356 155.327 41.22C155.327 41.22 151.873 45.1937 145.978 46.0207C145.978 46.0207 151.176 46.3711 154.806 50.2187C154.806 50.2187 151.655 51.1858 146.294 48.4105C146.294 48.4105 150.353 51.5222 149.46 55.5309C149.46 55.5309 145.752 52.8678 143.846 50.8914C141.94 48.9151 138.169 47.8078 135.538 48.1021C132.907 48.3965 135.404 47.2892 135.404 47.2892Z" fill="#D95E53"/>
<path d="M131.739 49.4828C131.739 49.4828 132.801 47.5064 134.581 46.259C136.361 45.0115 140.427 42.1942 140.427 42.1942C140.427 42.1942 140.026 44.633 138.394 45.6352C138.394 45.6352 140.04 45.5021 141.834 46.3501C141.834 46.3501 141.109 47.1981 138.879 47.4784C138.879 47.4784 141.412 48.6979 141.876 49.7491C141.876 49.7491 136.642 49.7701 135.186 49.5318C133.73 49.2866 131.739 49.4828 131.739 49.4828Z" fill="#009B90"/>
<path d="M107.406 73.1708C108.074 66.8073 111.908 61.0675 116.881 57.0237C121.855 52.9799 127.905 50.4569 134.032 48.5366" stroke="#3B865A" stroke-width="0.7672" stroke-miterlimit="10"/>
<path d="M108.038 62.0487C110.093 49.2095 114.088 36.3072 122.305 26.2012" stroke="#3B865A" stroke-width="0.7672" stroke-miterlimit="10"/>
<path d="M119.146 10.9651C115.742 18.0505 114.975 26.3554 117.022 33.9384C118.724 26.2573 119.069 18.8285 119.146 10.9651Z" fill="#009B90"/>
<path d="M125.26 49.7141C129.066 46.4131 132.196 42.3483 134.412 37.835C134.616 37.7789 134.757 37.5546 134.82 37.7509C135.383 39.58 134.525 41.5424 133.47 43.1333C131.254 46.4622 128.96 48.1722 125.26 49.7141Z" fill="#009B90"/>
<path d="M129.228 32.6278C122.038 34.3448 115.636 39.1245 111.957 45.5161C117.085 40.4981 123.058 36.3072 129.228 32.6278Z" fill="#009B90"/>
<path d="M128.32 56.5752C122.059 55.3627 115.221 57.9418 111.324 62.9667C117.233 61.495 122.868 59.2734 128.32 56.5752Z" fill="#009B90"/>
<path d="M77.4793 5.84213C77.4793 5.84213 90.2898 5.12027 96.8182 14.995C98.6754 17.8053 101.264 22.2836 104.043 27.5959C96.593 30.2661 88.9884 31.7168 81.9465 34.6322C78.0914 20.959 75.6643 8.89775 77.4793 5.84213Z" fill="#2B478B"/>
<path d="M104.043 27.6029C111.007 40.9327 119.168 59.5397 120.026 70.3886C121.236 85.5616 104.071 85.5616 99.7163 82.1906C97.0853 80.1512 87.8415 55.517 81.9463 34.6392C88.9882 31.7238 96.5929 30.2731 104.043 27.6029Z" fill="#FFB27D"/>
<path d="M62.1854 2.65335C62.8818 -3.04439 63.3954 -12.7159 64.5069 -17.3764C64.943 -19.2196 65.6254 -20.3759 66.6455 -20.9366C65.9983 -15.9817 67.0887 -10.7325 70.3458 -7.0181C72.0764 -5.72156 75.1436 -2.83414 78.0701 -2.1193C78.6188 5.14831 81.074 9.55653 81.074 9.55653C80.7293 24.2319 67.0324 17.6721 64.5069 16.1163C61.9814 14.5675 61.4889 8.3511 62.1854 2.65335Z" fill="#F0A689"/>
<path d="M76.1426 31.4434C76.1426 31.4434 65.4989 18.8425 56.4591 20.2372L44.3521 31.4434L33.9968 38.9213C32.2873 31.6958 31.1266 25.6406 31.3024 23.1386C31.8723 14.8618 37.8589 5.42863 46.6455 2.29592C51.6261 0.522816 62.1784 2.65334 62.1784 2.65334C61.5172 9.81583 67.8274 17.7072 76.1426 15.871C81.5876 14.6656 81.5032 10.7619 80.7927 8.21794C81.3766 9.46541 82.3122 11.2595 83.8036 13.7195C84.7463 15.2753 86.519 17.602 88.6084 20.2722C87.729 20.6086 79.0762 24.1618 76.1426 31.4434Z" fill="#2B478B"/>
<path d="M98.3447 55.8043C119.949 84.7626 120.976 109.614 106.364 131.459C91.753 153.304 64.507 158.154 64.507 158.154L61.8971 184.848H7.77787C7.77787 184.848 23.2405 107.841 26.9619 92.9974C30.6834 78.1538 44.7672 78.5042 44.7672 78.5042C44.7672 78.5042 37.9363 55.587 33.9968 38.9213L44.3521 31.4434L56.4591 20.2372C65.4989 18.8495 76.1427 31.4434 76.1427 31.4434C79.0762 24.1618 87.7291 20.6086 88.6084 20.2652C94.0816 27.2525 101.728 36.5525 102.355 40.2949C103.213 45.4741 98.3447 55.8043 98.3447 55.8043Z" fill="#1A191B"/>
<path d="M18.1543 184.841L35.1294 85.2602" stroke="#1A191B" stroke-miterlimit="10"/>
<path d="M119.428 66.2537C119.428 66.2537 100.757 50.6882 97.2329 47.8288C93.7085 44.9694 92.3085 44.7101 92.3085 44.7101L79.3925 50.1696C79.3925 50.1696 68.2704 54.9002 69.5508 57.4512C70.1487 58.6426 79.1674 55.4889 79.1674 55.4889C79.1674 55.4889 86.0686 61.6142 87.0183 62.1328C87.968 62.6514 101.018 64.7328 101.018 64.7328L113.075 82.8423C113.075 82.8353 121.151 79.9969 119.428 66.2537Z" fill="#FFB27D"/>
<path d="M87.0186 62.1188C87.0186 62.1188 78.3586 62.6795 76.1778 62.1188C74.0041 61.5581 71.985 60.2967 71.4856 59.4206C70.9861 58.5446 71.985 57.5284 71.985 57.5284L79.1817 54.3326L87.0186 62.1188Z" fill="#FFB27D"/>
<path d="M93.3708 45.1517C93.3708 45.1517 89.4876 42.4325 87.0254 42.923C84.5562 43.4136 79.4207 42.6848 79.484 44.0093C79.5474 45.3339 80.3001 46.3641 83.8105 47.2261C87.3209 48.0882 90.4866 50.492 90.4584 51.0106C90.4232 51.5292 93.3708 45.1517 93.3708 45.1517Z" fill="#FFB27D"/>
<path d="M49.9376 38.9143C49.9376 38.9143 43.7469 63.5134 44.2182 66.8283C44.6966 70.1433 71.4854 100.44 71.4854 100.44L62.4596 111.331C62.4596 111.331 32.8147 91.4765 26.1597 84.0057C19.5048 76.5348 21.6434 38.9002 24.9708 31.4434C28.2983 23.9866 33.9473 3.52935 48.2 1.82633C62.4596 0.123311 49.9376 38.9143 49.9376 38.9143Z" fill="#FFB27D"/>
<path d="M48.2001 1.82633C62.4527 0.123311 49.9306 38.9143 49.9306 38.9143C49.9306 38.9143 49.403 40.9957 48.6784 44.0233C40.8979 39.8674 27.8271 34.2397 19.54 30.9458C28.1225 15.941 33.9474 3.52935 48.2001 1.82633Z" fill="#2B478B"/>
<path d="M24.4363 32.9362L23.7187 35.9288C23.7187 35.9288 19.6526 33.3147 19.54 30.9459L24.4363 32.9362Z" fill="black"/>
<path d="M71.4855 100.44L85.0065 101.19L88.6084 114.842C88.6084 114.842 78.4219 116.181 74.9608 115.992C71.4996 115.802 62.4528 111.331 62.4528 111.331C62.4528 111.331 63.1422 99.7744 71.4855 100.44Z" fill="#FFB27D"/>
<path d="M71.4854 100.44C71.4854 100.44 77.4369 95.4853 79.1816 94.7214C80.9262 93.9575 83.6206 92.2335 84.7743 93.3828C85.928 94.5322 82.5724 96.2562 81.081 97.7911C79.5825 99.3259 80.0117 105.837 76.9093 106.033C73.814 106.215 70.8945 106.544 71.4854 100.44Z" fill="#FFB27D"/>
<path d="M87.0185 106.979C87.0185 106.979 94.5598 103.839 97.8451 101.618C99.7023 100.363 100.153 97.5948 97.8451 97.9803C95.5377 98.3657 91.2253 101.428 85.0065 101.19C80.7504 101.022 85.4286 105.255 87.0185 106.979Z" fill="#FFB27D"/>
<path d="M88.6082 114.835C88.6082 114.835 97.0782 110.581 97.845 108.205C98.6118 105.83 97.845 104.869 97.845 104.869C97.845 104.869 100.124 102.844 98.9846 100.405C97.845 97.9733 85.8224 106.208 85.0063 106.972C84.1973 107.75 84.5631 113.3 88.6082 114.835Z" fill="#FFB27D"/>
<path d="M59.7654 21.4286C59.7654 21.4286 58.077 3.92184 54.0249 1.58807H50.3738C50.3738 1.58807 58.893 11.638 56.459 22.9003C54.0249 34.1627 59.7654 21.4286 59.7654 21.4286Z" fill="#1A191B"/>
<path d="M89.7762 21.744C89.7762 21.744 85.7804 15.5066 85.1965 6.85133L81.9534 6.14349C81.9534 6.14349 84.6126 18.1347 87.9401 21.737C91.2605 25.3532 89.7762 21.744 89.7762 21.744Z" fill="#1A191B"/>
</g>
</g>
<defs>
<filter id="filter0_dd_2130_10386" x="0" y="0" width="346" height="144" filterUnits="userSpaceOnUse" color-interpolation-filters="sRGB">
<feFlood flood-opacity="0" result="BackgroundImageFix"/>
<feColorMatrix in="SourceAlpha" type="matrix" values="0 0 0 0 0 0 0 0 0 0 0 0 0 0 0 0 0 0 127 0" result="hardAlpha"/>
<feMorphology radius="2" operator="dilate" in="SourceAlpha" result="effect1_dropShadow_2130_10386"/>
<feOffset dy="4"/>
<feGaussianBlur stdDeviation="4"/>
<feComposite in2="hardAlpha" operator="out"/>
<feColorMatrix type="matrix" values="0 0 0 0 0 0 0 0 0 0.607843 0 0 0 0 0.564706 0 0 0 0.08 0"/>
<feBlend mode="normal" in2="BackgroundImageFix" result="effect1_dropShadow_2130_10386"/>
<feColorMatrix in="SourceAlpha" type="matrix" values="0 0 0 0 0 0 0 0 0 0 0 0 0 0 0 0 0 0 127 0" result="hardAlpha"/>
<feMorphology radius="2" operator="dilate" in="SourceAlpha" result="effect2_dropShadow_2130_10386"/>
<feOffset dy="1"/>
<feGaussianBlur stdDeviation="1"/>
<feComposite in2="hardAlpha" operator="out"/>
<feColorMatrix type="matrix" values="0 0 0 0 0.129412 0 0 0 0 0.2 0 0 0 0 0.376471 0 0 0 0.02 0"/>
<feBlend mode="normal" in2="effect1_dropShadow_2130_10386" result="effect2_dropShadow_2130_10386"/>
<feBlend mode="normal" in="SourceGraphic" in2="effect2_dropShadow_2130_10386" result="shape"/>
</filter>
<clipPath id="clip0_2130_10386">
<rect width="214.134" height="250.904" fill="white" transform="matrix(-1 0 0 1 178.134 -66)"/>
</clipPath>
</defs>
</svg>
