<svg width="45" height="67" viewBox="0 0 45 67" fill="none" xmlns="http://www.w3.org/2000/svg">
<path d="M42.9645 0H0.213623V61.5725H42.9645V0Z" fill="white"/>
<path d="M30.6633 5.54456H11.1772V6.557H30.6633V5.54456Z" fill="#F99746"/>
<path d="M18.402 7.89453H8.65894V8.90698H18.402V7.89453Z" fill="#F99746"/>
<path d="M33.8773 7.89453H19.5771V8.90698H33.8773V7.89453Z" fill="#F99746"/>
<path d="M30.7299 30.7047H9.70654V31.4757H30.7299V30.7047Z" fill="#AEC3FF"/>
<path d="M35.6792 28.6475H20.7927V29.4184H35.6792V28.6475Z" fill="#AEC3FF"/>
<path d="M19.2591 28.6475H4.75732V29.4184H19.2591V28.6475Z" fill="#AEC3FF"/>
<path d="M34.2216 26.5903H21.4148V27.3613H34.2216V26.5903Z" fill="#AEC3FF"/>
<path d="M19.0218 26.5903H6.21509V27.3613H19.0218V26.5903Z" fill="#AEC3FF"/>
<path d="M23.6499 38.3084H17.4679C17.1876 38.3084 16.9578 38.0784 16.9578 37.7978C16.9578 37.5172 17.1876 37.2872 17.4679 37.2872H23.6499C23.9303 37.2872 24.1601 37.5172 24.1601 37.7978C24.1594 38.0791 23.9303 38.3084 23.6499 38.3084Z" fill="#A8C3F7"/>
<path d="M32.2732 38.3086H26.0912C25.8109 38.3086 25.5811 38.0786 25.5811 37.798C25.5811 37.5174 25.8109 37.2874 26.0912 37.2874H32.2732C32.5535 37.2874 32.7833 37.5174 32.7833 37.798C32.7833 38.0792 32.5535 38.3086 32.2732 38.3086Z" fill="#A8C3F7"/>
<path d="M24.7229 51.8642C21.6518 51.8642 19.1536 49.3638 19.1536 46.29C19.1536 43.2162 21.6518 40.7158 24.7229 40.7158C27.7941 40.7158 30.2923 43.2162 30.2923 46.29C30.2916 49.3638 27.7934 51.8642 24.7229 51.8642ZM24.7229 40.9978C21.8068 40.9978 19.4346 43.3721 19.4346 46.2907C19.4346 49.2093 21.8068 51.5836 24.7229 51.5836C27.639 51.5836 30.0113 49.2093 30.0113 46.2907C30.0113 43.3721 27.639 40.9978 24.7229 40.9978Z" fill="#A8C3F7"/>
<path d="M24.7228 50.7817C22.2481 50.7817 20.2351 48.7669 20.2351 46.2901C20.2351 43.8132 22.2481 41.7985 24.7228 41.7985C27.1975 41.7985 29.2105 43.8132 29.2105 46.2901C29.2098 48.7669 27.1968 50.7817 24.7228 50.7817ZM24.7228 42.0804C22.4031 42.0804 20.5161 43.9691 20.5161 46.2907C20.5161 48.6124 22.4031 50.5011 24.7228 50.5011C27.0425 50.5011 28.9295 48.6124 28.9295 46.2907C28.9295 43.9691 27.0425 42.0804 24.7228 42.0804Z" fill="#A8C3F7"/>
<path d="M24.7824 48.0526C24.1995 48.2415 23.6307 48.3406 23.1839 48.3029C22.5025 48.2462 22.1184 47.8887 22.1036 47.2965C22.0914 46.8264 22.2862 46.4149 22.6683 46.0817C22.6649 46.0493 22.6616 46.0176 22.6589 45.9852C22.6339 45.654 22.7047 45.4335 22.8691 45.3309C23.1353 45.165 23.5309 45.3923 23.5471 45.4018L23.4588 45.5529C23.3705 45.5009 23.107 45.3876 22.9615 45.4793C22.8361 45.5583 22.8206 45.7748 22.8321 45.9508C23.1427 45.7255 23.5491 45.5421 24.0438 45.4078C24.4097 45.3087 24.8175 45.2426 25.1854 45.2129C25.1874 45.1718 25.1908 45.1347 25.1955 45.1043C25.2077 45.0227 25.236 44.9276 25.3155 44.9087C25.3458 44.9019 25.4044 44.9026 25.457 44.9822C25.4907 45.0335 25.5076 45.107 25.5109 45.1954C25.6376 45.1927 25.7556 45.1947 25.86 45.2021C25.8607 45.2001 25.862 45.1974 25.8627 45.1954C25.8371 44.9876 25.8553 44.7434 25.8897 44.5849C25.9342 44.3819 26.0069 44.2794 26.1087 44.2692C26.17 44.2639 26.2233 44.2969 26.2475 44.3549C26.3048 44.4925 26.1977 44.8642 26.0427 45.2203C26.0427 45.221 26.0427 45.2217 26.0433 45.2223C26.1882 45.2466 26.2873 45.2871 26.3183 45.3431C26.3419 45.3856 26.3446 45.4503 26.2832 45.5077C26.166 45.6156 26.0723 45.5886 26.0272 45.563C25.9887 45.5407 25.9577 45.5036 25.9335 45.4557C25.8162 45.6878 25.6888 45.8861 25.5884 45.9697C25.4961 46.0473 25.4152 46.0162 25.3849 45.9994C25.3694 45.9906 25.3546 45.9785 25.3404 45.9643C25.3007 46.0614 25.2555 46.1552 25.207 46.2402C25.0237 46.5619 24.8175 46.7272 24.6106 46.7177C24.5256 46.7137 24.4508 46.68 24.3875 46.6186C24.2729 46.8668 24.1287 47.1029 23.9858 47.2796C23.8403 47.459 23.6549 47.5252 23.4629 47.4651C23.1232 47.3592 22.8159 46.8675 22.7013 46.2847C22.4109 46.5687 22.27 46.9053 22.2795 47.2911C22.2923 47.7963 22.6023 48.0776 23.1994 48.1275C24.7076 48.253 27.3521 46.85 27.5522 45.8173C27.3878 46.6577 26.133 47.6142 24.7824 48.0526ZM22.853 46.1512C22.9446 46.7656 23.2519 47.2176 23.5134 47.2992C23.6361 47.3376 23.7486 47.2938 23.8484 47.1704C24.0182 46.9606 24.1651 46.7016 24.2702 46.4493C24.2399 46.3839 24.2156 46.3076 24.1974 46.2206C24.155 46.0183 24.1482 45.7397 24.1981 45.5495C23.9164 45.619 23.634 45.7134 23.3726 45.8368C23.1717 45.9313 22.9985 46.0365 22.853 46.1512ZM24.463 46.4385C24.5007 46.4958 24.5506 46.5404 24.6173 46.5437C24.7501 46.5491 24.9091 46.4081 25.054 46.1545C25.1295 46.0223 25.1895 45.8813 25.2346 45.7464C25.2056 45.6365 25.1901 45.5083 25.1854 45.3903C24.9913 45.4058 24.7797 45.4321 24.562 45.4719C24.6753 45.6925 24.6092 46.0662 24.463 46.4385ZM25.4166 45.7491C25.4442 45.8314 25.4685 45.8476 25.4685 45.8476C25.5662 45.7633 25.6781 45.5812 25.7798 45.3734C25.6969 45.3701 25.6033 45.3701 25.5008 45.3728C25.4873 45.4901 25.4577 45.619 25.4166 45.7491ZM24.3895 45.5239C24.345 45.6169 24.3127 45.9144 24.3673 46.1788C24.4549 45.8888 24.4731 45.6378 24.3895 45.5239ZM26.1127 45.4119C26.1134 45.4126 26.1134 45.4119 26.1134 45.4119C26.1134 45.4126 26.1134 45.4126 26.1127 45.4119ZM26.0871 44.5128C26.0716 44.5579 26.0568 44.6213 26.0454 44.6962C26.0662 44.6247 26.0804 44.5613 26.0871 44.5128Z" fill="#A8C3F7"/>
<path d="M31.9554 21.3391H8.48096V22.1101H31.9554V21.3391Z" fill="#92C3D1"/>
<path d="M37.4819 19.2819H20.8594V20.0528H37.4819V19.2819Z" fill="#92C3D1"/>
<path d="M19.1469 19.2819H2.95435V20.0528H19.1469V19.2819Z" fill="#92C3D1"/>
<path d="M35.8549 17.2246H21.5547V17.9956H35.8549V17.2246Z" fill="#92C3D1"/>
<path d="M18.8822 17.2246H4.58203V17.9956H18.8822V17.2246Z" fill="#92C3D1"/>
<path d="M44.2534 64.1035C44.2534 64.7171 44.0025 65.2737 43.5982 65.6784C43.1939 66.083 42.637 66.3341 42.0239 66.3341H31.4989C30.2736 66.3341 29.271 65.3299 29.271 64.1035C29.271 63.4899 29.5218 62.9332 29.9254 62.5286C30.3296 62.1247 30.8866 61.8737 31.4989 61.8737H42.0239C43.25 61.8729 44.2534 62.8771 44.2534 64.1035Z" fill="#2B478B"/>
<path d="M38.8238 64.1035C38.8238 64.7171 38.573 65.2737 38.1694 65.6784C37.7651 66.083 37.2082 66.3341 36.5951 66.3341H31.4989C30.2736 66.3341 29.271 65.3299 29.271 64.1035C29.271 63.4899 29.5218 62.9332 29.9254 62.5286C30.3297 62.1247 30.8866 61.8737 31.4989 61.8737H36.5951C37.8212 61.8729 38.8238 62.8771 38.8238 64.1035Z" fill="#699FF0"/>
<path opacity="0.4" d="M42.2018 63.0711H32.1622C31.9885 63.0711 31.8467 62.9292 31.8467 62.7553V62.6843C31.8467 62.5104 31.9892 62.3685 32.1622 62.3685H42.2018C42.3755 62.3685 42.5173 62.5104 42.5173 62.6843V62.7553C42.5181 62.9292 42.3763 63.0711 42.2018 63.0711Z" fill="#E9F3FE"/>
<path d="M35.2715 57.785C35.5629 58.3667 35.5894 59.0138 35.3985 59.5892C35.2076 60.1646 34.7987 60.6675 34.2175 60.9591L24.241 65.963C23.0795 66.5454 21.6524 66.0706 21.0704 64.9081C20.7791 64.3265 20.7526 63.6794 20.9435 63.104C21.1351 62.5293 21.5433 62.0265 22.1244 61.7349L32.1002 56.7309C33.2625 56.1477 34.6896 56.6225 35.2715 57.785Z" fill="#EF7E29"/>
<path d="M30.1252 60.3657C30.4165 60.9473 30.443 61.5945 30.253 62.1699C30.0621 62.7452 29.6531 63.2481 29.072 63.5397L24.2415 65.9629C23.08 66.5453 21.6528 66.0705 21.0709 64.908C20.7796 64.3264 20.7531 63.6793 20.944 63.1039C21.1356 62.5293 21.5438 62.0264 22.1249 61.7348L26.9555 59.3124C28.1162 58.7292 29.5433 59.2032 30.1252 60.3657Z" fill="#F99746"/>
<path opacity="0.5" d="M32.838 57.7819L23.3218 62.555C23.1574 62.6377 22.9549 62.5706 22.8723 62.4053L22.8388 62.3375C22.7563 62.173 22.8232 61.9703 22.9884 61.8876L32.5046 57.1145C32.6689 57.0318 32.8715 57.0989 32.954 57.2642L32.9875 57.332C33.0701 57.4965 33.0031 57.6992 32.838 57.7819Z" fill="#FFE2CC"/>
</svg>
