<svg width="338" height="212" viewBox="0 0 338 212" fill="none" xmlns="http://www.w3.org/2000/svg">
<mask id="mask0_1816_10787" style="mask-type:alpha" maskUnits="userSpaceOnUse" x="0" y="0" width="338" height="212">
<rect width="338" height="212" rx="16" fill="#B35734"/>
</mask>
<g mask="url(#mask0_1816_10787)">
<g clip-path="url(#clip0_1816_10787)">
<path opacity="0.25" d="M191.98 220.998C223.049 208.454 251.428 188.133 270.389 160.589C289.35 133.057 298.199 98.0315 291.172 65.3763C287.863 49.9932 280.514 34.6224 267.303 26.0048C256.931 19.2392 244.141 17.3503 232.988 11.9674C204.72 -1.67493 192.091 -34.2931 182.4 -64.047C172.697 -93.8133 161.171 -126.518 133.672 -141.642C103.582 -158.185 62.698 -145.333 42.4109 -117.703C22.1239 -90.0601 20.5748 -51.7504 32.3232 -19.5767C38.9905 -1.30457 49.7599 16.6342 48.124 36.0051C46.6617 53.3389 35.5081 68.1048 28.5558 84.0682C15.692 113.575 17.6996 149.082 33.7979 176.96C66.8495 234.208 135.171 243.937 191.98 220.998Z" fill="white"/>
<path d="M66.3042 136.094C43.2536 107.155 22.4957 75.8581 10.14 41.0177C-2.22798 6.18953 -5.73514 -32.577 5.54231 -67.7755C30.4394 -39.5031 48.2727 -6.68738 56.9972 29.9186C65.7217 66.5245 65.4987 98.4884 66.3042 136.094Z" fill="#327599"/>
<path d="M46.2649 139.169C43.3526 126.415 35.3964 115.427 27.1552 105.242C17.3401 93.1178 6.73185 81.4508 -5.87164 72.2284C-18.4751 63.0059 -33.2474 56.2773 -48.8375 54.981C-19.1567 83.3645 12.5317 115.723 46.2649 139.169Z" fill="#327599"/>
<path d="M5.0837 -66.6273C44.3565 16.8935 68.5844 125.464 80.3452 216.948" stroke="#2D7C54" stroke-miterlimit="10"/>
<path d="M73.3308 169.564C73.3308 169.564 14.5517 93.8956 -48.8375 54.981" stroke="#2D7C54" stroke-miterlimit="10"/>
<path d="M203.691 237.85C207.334 235.282 208.574 230.578 210.024 226.381C214.993 211.911 224.858 199.701 234.809 188.046C240.188 181.75 245.765 175.416 252.841 171.095C275.148 157.441 306.626 166.712 328.065 151.737C315.251 156.292 299.041 153.576 285.843 150.292C272.645 147.008 259.136 143.02 245.665 144.946C233.508 146.687 222.305 153.28 214.027 162.33C205.748 171.379 200.295 182.75 197.259 194.615C195.611 201.034 194.657 207.751 195.76 214.282C197.061 221.912 203.542 230.085 203.691 237.85Z" fill="#327599"/>
<path d="M202.241 244.295C202.6 229.097 204.645 213.776 210.371 199.676C215.625 186.713 224.474 174.441 236.024 166.354C247.4 158.379 262.78 156.971 276.251 156.811C292.51 156.613 308.571 157.897 324.372 153.28" stroke="#2D7C54" stroke-width="1.1136" stroke-miterlimit="10"/>
<path d="M230.906 10.56C230.906 10.56 236.966 3.69564 238.54 -6.5639C240.114 -16.8111 239.99 -18.7247 242.319 -22.8236C242.319 -22.8236 248.912 -19.3297 242.381 -3.00825C242.381 -3.00825 250.66 -16.095 260.512 -18.5519C260.512 -18.5519 258.095 -8.34173 248.441 -1.44031C248.441 -1.44031 257.959 -5.60091 267.948 -2.15637C267.948 -2.15637 263.276 2.46103 251.205 2.49807C251.205 2.49807 261.28 4.26355 263.412 12.165C263.412 12.165 254.378 10.8687 249.173 9.14023C243.968 7.41179 236.272 8.91801 231.897 11.8687C227.522 14.8194 230.906 10.56 230.906 10.56Z" fill="#D95E53"/>
<path d="M226.457 17.8195C226.457 17.8195 226.506 13.3379 228.489 9.49831C230.472 5.6587 235.057 -3.06995 235.057 -3.06995C235.057 -3.06995 236.619 1.6092 234.661 4.89324C234.661 4.89324 237.449 3.1401 241.415 2.97961C241.415 2.97961 240.919 5.14016 237.238 7.69579C237.238 7.69579 242.852 7.52294 244.649 8.94274C244.649 8.94274 235.417 13.8071 232.616 14.7207C229.803 15.6466 226.457 17.8195 226.457 17.8195Z" fill="#327599"/>
<path d="M252.791 50.5735C252.791 50.5735 260.351 47.6722 265.791 40.2892C271.232 32.9063 271.926 31.3754 275.421 29.1161C275.421 29.1161 279.151 34.536 267.328 44.6474C267.328 44.6474 279.176 37.7953 287.888 39.8818C287.888 39.8818 281.803 46.882 271.418 48.3388C271.418 48.3388 280.576 48.9561 286.971 55.7341C286.971 55.7341 281.419 57.4379 271.975 52.5488C271.975 52.5488 279.126 58.0305 277.552 65.0924C277.552 65.0924 271.021 60.4009 267.663 56.9193C264.304 53.4377 257.662 51.4871 253.027 52.0056C248.392 52.5241 252.791 50.5735 252.791 50.5735Z" fill="#D95E53"/>
<path d="M246.335 54.4378C246.335 54.4378 248.206 50.9562 251.341 48.7586C254.477 46.561 261.64 41.5979 261.64 41.5979C261.64 41.5979 260.933 45.8943 258.058 47.6598C258.058 47.6598 260.958 47.4252 264.118 48.9191C264.118 48.9191 262.842 50.413 258.913 50.9068C258.913 50.9068 263.375 53.055 264.193 54.9069C264.193 54.9069 254.972 54.944 252.407 54.5242C249.842 54.0921 246.335 54.4378 246.335 54.4378Z" fill="#327599"/>
<path d="M203.468 96.1674C204.645 84.9572 211.399 74.8458 220.161 67.7222C228.923 60.5985 239.581 56.1539 250.375 52.7711" stroke="#3B865A" stroke-width="0.7672" stroke-miterlimit="10"/>
<path d="M204.583 76.5742C208.202 53.9563 215.241 31.2273 229.716 13.4243" stroke="#3B865A" stroke-width="0.7672" stroke-miterlimit="10"/>
<path d="M224.151 -13.4159C218.153 -0.934063 216.802 13.696 220.409 27.0544C223.408 13.5231 224.015 0.436346 224.151 -13.4159Z" fill="#327599"/>
<path d="M234.921 54.8452C241.625 49.0302 247.14 41.8695 251.044 33.9187C251.403 33.8199 251.651 33.4248 251.763 33.7705C252.754 36.9928 251.242 40.4497 249.383 43.2523C245.479 49.1166 241.439 52.1291 234.921 54.8452Z" fill="#327599"/>
<path d="M241.91 24.7456C229.245 27.7704 217.967 36.1904 211.486 47.4499C220.52 38.6102 231.042 31.2273 241.91 24.7456Z" fill="#327599"/>
<path d="M240.312 66.9319C229.282 64.7961 217.236 69.3394 210.371 78.1915C220.781 75.5988 230.707 71.6851 240.312 66.9319Z" fill="#327599"/>
<path d="M211.734 292.889L197.544 198.837L123.819 225.887L102.231 292.889H211.734Z" fill="#BFC8D3"/>
<path d="M150.749 -22.441C150.749 -22.441 173.316 -23.7126 184.817 -6.31708C188.088 -1.36632 192.649 6.52279 197.544 15.8811C184.42 20.5849 171.024 23.1405 158.618 28.2765C151.827 4.18939 147.552 -17.0581 150.749 -22.441Z" fill="#2B478B"/>
<path d="M197.544 15.8934C209.813 39.3756 224.189 72.1543 225.701 91.2659C227.832 117.995 197.594 117.995 189.922 112.057C185.288 108.464 169.003 65.0676 158.618 28.2888C171.023 23.1529 184.42 20.5973 197.544 15.8934Z" fill="#F2BFA9"/>
<path d="M123.807 -28.0584C125.034 -38.0957 125.938 -55.1332 127.896 -63.3433C128.665 -66.5903 129.867 -68.6274 131.664 -69.6151C130.524 -60.8865 132.445 -51.6393 138.183 -45.0959C141.231 -42.8119 146.634 -37.7253 151.79 -36.466C152.756 -23.6632 157.082 -15.8976 157.082 -15.8976C156.474 9.955 132.346 -1.60088 127.896 -4.34169C123.447 -7.07016 122.58 -18.0211 123.807 -28.0584Z" fill="#F0A689"/>
<path d="M148.394 22.6591C148.394 22.6591 129.644 0.460941 113.719 2.9178L92.3911 22.6591L74.1489 35.8323C71.1374 23.1036 69.0926 12.4366 69.4024 8.02905C70.4063 -6.5516 80.9525 -23.1694 96.4312 -28.688C105.205 -31.8116 123.794 -28.0584 123.794 -28.0584C122.63 -15.4407 133.746 -1.53912 148.394 -4.77378C157.986 -6.89729 157.838 -13.774 156.586 -18.2556C157.614 -16.058 159.263 -12.8975 161.89 -8.564C163.551 -5.82319 166.674 -1.72431 170.354 2.97953C168.805 3.57214 153.562 9.83156 148.394 22.6591Z" fill="#2B478B"/>
<path d="M187.506 65.5739C225.564 116.588 227.374 160.367 201.634 198.849C175.894 237.332 127.897 245.875 127.897 245.875L123.299 292.901H27.961C27.961 292.901 55.2004 157.243 61.7562 131.094C68.312 104.945 93.1224 105.563 93.1224 105.563C93.1224 105.563 81.089 65.1912 74.149 35.8324L92.3912 22.6591L113.719 2.91787C129.644 0.473352 148.394 22.6591 148.394 22.6591C153.562 9.83163 168.805 3.5722 170.354 2.96724C179.996 15.2762 193.467 31.6594 194.57 38.2522C196.082 47.3759 187.506 65.5739 187.506 65.5739Z" fill="#F27F6F"/>
<path d="M46.2404 292.889L76.1443 117.464" stroke="#F27F6F" stroke-miterlimit="10"/>
<path d="M224.647 83.9818C224.647 83.9818 191.757 56.5613 185.548 51.5241C179.339 46.487 176.873 46.0302 176.873 46.0302L154.12 55.6477C154.12 55.6477 134.527 63.9813 136.782 68.4752C137.836 70.574 153.723 65.0183 153.723 65.0183C153.723 65.0183 165.881 75.8087 167.554 76.7224C169.227 77.636 192.215 81.3027 192.215 81.3027L213.457 113.205C213.457 113.192 227.683 108.192 224.647 83.9818Z" fill="#F2BFA9"/>
<path d="M167.553 76.6976C167.553 76.6976 152.298 77.6853 148.456 76.6976C144.627 75.71 141.07 73.4877 140.19 71.9444C139.31 70.4012 141.07 68.611 141.07 68.611L153.748 62.9812L167.553 76.6976Z" fill="#F2BFA9"/>
<path d="M178.744 46.8079C178.744 46.8079 171.903 42.0177 167.566 42.8819C163.216 43.7461 154.169 42.4621 154.281 44.7955C154.392 47.1289 155.718 48.9438 161.902 50.4623C168.086 51.9809 173.663 56.2156 173.614 57.1292C173.552 58.0428 178.744 46.8079 178.744 46.8079Z" fill="#F2BFA9"/>
<path d="M102.231 35.8199C102.231 35.8199 91.3253 79.1545 92.1557 84.9941C92.9984 90.8338 140.19 144.206 140.19 144.206L124.29 163.391C124.29 163.391 72.0669 128.415 60.3433 115.254C48.6197 102.093 52.3871 35.7952 58.2489 22.6591C64.1107 9.52288 74.0622 -26.5152 99.17 -29.5152C124.29 -32.5153 102.231 35.8199 102.231 35.8199Z" fill="#F2BFA9"/>
<path d="M99.17 -29.5152C124.278 -32.5153 102.219 35.8199 102.219 35.8199C102.219 35.8199 101.289 39.4867 100.013 44.8202C86.3063 37.499 63.2804 27.5851 48.6817 21.7825C63.8009 -4.65035 74.0622 -26.5152 99.17 -29.5152Z" fill="#2B478B"/>
<path d="M57.3071 25.2887L56.0431 30.5605C56.0431 30.5605 48.88 25.9554 48.6817 21.7825L57.3071 25.2887Z" fill="#1A191B"/>
<path d="M140.19 144.206L164.009 145.527L170.354 169.577C170.354 169.577 152.409 171.935 146.312 171.601C140.215 171.268 124.278 163.391 124.278 163.391C124.278 163.391 125.492 143.033 140.19 144.206Z" fill="#F2BFA9"/>
<path d="M140.19 144.206C140.19 144.206 150.674 135.477 153.748 134.131C156.821 132.786 161.568 129.748 163.6 131.773C165.633 133.798 159.721 136.835 157.094 139.539C154.454 142.243 155.21 153.712 149.745 154.058C144.292 154.379 139.149 154.959 140.19 144.206Z" fill="#F2BFA9"/>
<path d="M167.554 155.725C167.554 155.725 180.839 150.194 186.626 146.28C189.898 144.07 190.691 139.193 186.626 139.872C182.561 140.551 174.964 145.947 164.009 145.527C156.512 145.23 164.753 152.687 167.554 155.725Z" fill="#F2BFA9"/>
<path d="M170.354 169.564C170.354 169.564 185.275 162.07 186.626 157.885C187.977 153.7 186.626 152.008 186.626 152.008C186.626 152.008 190.641 148.44 188.634 144.144C186.626 139.86 165.447 154.366 164.009 155.712C162.584 157.083 163.228 166.861 170.354 169.564Z" fill="#F2BFA9"/>
<path d="M119.544 5.01665C119.544 5.01665 116.569 -25.8237 109.431 -29.9349H102.999C102.999 -29.9349 118.007 -12.2307 113.719 7.60931C109.431 27.4494 119.544 5.01665 119.544 5.01665Z" fill="#F27F6F"/>
<path d="M172.412 5.57221C172.412 5.57221 165.372 -5.41575 164.344 -20.6631L158.631 -21.91C158.631 -21.91 163.315 -0.785988 169.177 5.55987C175.026 11.9304 172.412 5.57221 172.412 5.57221Z" fill="#F27F6F"/>
</g>
</g>
<defs>
<clipPath id="clip0_1816_10787">
<rect width="377.225" height="442" fill="white" transform="matrix(-1 0 0 1 328.065 -149)"/>
</clipPath>
</defs>
</svg>
