<svg width="20" height="18" viewBox="0 0 20 18" fill="none" xmlns="http://www.w3.org/2000/svg">
<mask id="path-1-outside-1_1769_10050" maskUnits="userSpaceOnUse" x="0" y="-0.222656" width="20" height="18" fill="black">
<rect fill="white" y="-0.222656" width="20" height="18"/>
<path d="M18.9999 13.3663C18.9999 13.6098 18.9032 13.8434 18.731 14.0156C18.5588 14.1878 18.3251 14.2847 18.0815 14.2847H14.6377C14.3097 14.2847 14.0064 14.1095 13.8424 13.8255C13.6783 13.5413 13.6783 13.1912 13.8424 12.9071C14.0064 12.6229 14.3097 12.4479 14.6377 12.4479H18.0815C18.3251 12.4479 18.5588 12.5447 18.731 12.7169C18.9032 12.889 18.9999 13.1227 18.9999 13.3663ZM18.0815 9.50915H14.6377C14.3097 9.50915 14.0064 9.68416 13.8424 9.96833C13.6783 10.2525 13.6783 10.6025 13.8424 10.8867C14.0064 11.1709 14.3097 11.3459 14.6377 11.3459H18.0815C18.4097 11.3459 18.7129 11.1709 18.8769 10.8867C19.041 10.6025 19.041 10.2525 18.8769 9.96833C18.7129 9.68416 18.4097 9.50915 18.0815 9.50915ZM18.0815 6.57031H14.6377C14.3097 6.57031 14.0064 6.74545 13.8424 7.02949C13.6783 7.31366 13.6783 7.66382 13.8424 7.94786C14.0064 8.23203 14.3097 8.40704 14.6377 8.40704H18.0815C18.4097 8.40704 18.7129 8.23203 18.8769 7.94786C19.041 7.66382 19.041 7.31366 18.8769 7.02949C18.7129 6.74545 18.4097 6.57031 18.0815 6.57031ZM11.7209 12.4479L8.27698 12.448C7.94886 12.448 7.64573 12.623 7.48161 12.9072C7.31761 13.1912 7.31761 13.5414 7.48161 13.8255C7.64573 14.1096 7.94886 14.2847 8.27698 14.2847H11.7225C12.0506 14.2847 12.3537 14.1096 12.5179 13.8255C12.6819 13.5414 12.6819 13.1912 12.5179 12.9072C12.3537 12.623 12.0506 12.448 11.7225 12.448L11.7209 12.4479ZM11.7209 9.50902L8.27698 9.50915C7.94886 9.50915 7.64573 9.68416 7.48161 9.96833C7.31761 10.2525 7.31761 10.6025 7.48161 10.8867C7.64573 11.1709 7.94886 11.3459 8.27698 11.3459H11.7225C12.0506 11.3459 12.3537 11.1709 12.5179 10.8867C12.6819 10.6025 12.6819 10.2525 12.5179 9.96833C12.3537 9.68416 12.0506 9.50915 11.7225 9.50915L11.7209 9.50902ZM18.0815 15.3866H14.6377C14.3097 15.3866 14.0064 15.5616 13.8424 15.8458C13.6783 16.1299 13.6783 16.48 13.8424 16.7641C14.0064 17.0483 14.3097 17.2233 14.6377 17.2233H18.0815C18.4097 17.2233 18.7129 17.0483 18.8769 16.7641C19.041 16.4799 19.041 16.1299 18.8769 15.8458C18.7129 15.5616 18.4097 15.3866 18.0815 15.3866ZM12.6392 16.3049C12.6392 16.0614 12.5426 15.8278 12.3703 15.6556C12.1981 15.4833 11.9645 15.3866 11.721 15.3866H8.27711C7.94899 15.3866 7.64586 15.5616 7.48173 15.8457C7.31774 16.1299 7.31774 16.4799 7.48173 16.7641C7.64586 17.0483 7.94899 17.2233 8.27711 17.2233H11.7226C11.9662 17.2233 12.1997 17.1266 12.3721 16.9544C12.5443 16.7822 12.641 16.5485 12.641 16.3049L12.6392 16.3049ZM15.0528 4.77582C15.1874 4.91227 15.37 4.99068 15.5615 4.99439C15.5979 4.99439 15.6342 4.99132 15.6699 4.9853C15.8087 4.96006 15.9362 4.89254 16.0348 4.79184C16.1335 4.69113 16.1986 4.56237 16.221 4.42324L16.6967 1.5745C16.7301 1.37642 16.6748 1.1736 16.5452 1.02013C16.4158 0.866518 16.2253 0.777731 16.0244 0.777348C15.9869 0.777219 15.9495 0.780294 15.9125 0.786444L13.0728 1.25484C12.9206 1.28021 12.7813 1.35619 12.6777 1.47047C12.5739 1.58488 12.5119 1.73081 12.5016 1.88482C12.4898 2.08763 12.567 2.28546 12.7128 2.42665L13.2509 2.96475L10.312 5.90359L8.74346 4.33502C8.57537 4.16693 8.34758 4.07263 8.10992 4.07263C7.87226 4.07263 7.64434 4.16706 7.47624 4.33515L2.56298 9.25038C2.38924 9.41719 2.29008 9.64692 2.28778 9.88766C2.28534 10.1285 2.37989 10.3602 2.55017 10.5305C2.72044 10.7007 2.95208 10.7953 3.19296 10.793C3.43369 10.7905 3.66342 10.6914 3.83024 10.5178L8.10262 6.2454L9.67119 7.81397C9.83928 7.98193 10.0672 8.07636 10.3049 8.07636C10.5425 8.07636 10.7704 7.98193 10.9385 7.81397L14.5202 4.22479L15.0528 4.77582ZM1.91847 14.2845H5.36234C5.69033 14.2845 5.99359 14.1094 6.15759 13.8253C6.32171 13.5412 6.32171 13.191 6.15759 12.907C5.99359 12.6228 5.69033 12.4478 5.36234 12.4478H1.91847C1.59035 12.4478 1.28709 12.6228 1.12309 12.907C0.958973 13.191 0.958973 13.5412 1.12309 13.8253C1.28709 14.1094 1.59035 14.2845 1.91847 14.2845ZM6.28071 16.305C6.28071 16.0614 6.18385 15.8277 6.01166 15.6556C5.83947 15.4832 5.60591 15.3865 5.36234 15.3865H1.91846C1.59034 15.3865 1.28709 15.5615 1.12309 15.8457C0.958969 16.1299 0.958969 16.4799 1.12309 16.7641C1.28709 17.0482 1.59034 17.2232 1.91846 17.2232H5.36234C5.6059 17.2232 5.83947 17.1265 6.01166 16.9543C6.18385 16.7821 6.28071 16.5486 6.28071 16.305Z"/>
</mask>
<path d="M18.9999 13.3663C18.9999 13.6098 18.9032 13.8434 18.731 14.0156C18.5588 14.1878 18.3251 14.2847 18.0815 14.2847H14.6377C14.3097 14.2847 14.0064 14.1095 13.8424 13.8255C13.6783 13.5413 13.6783 13.1912 13.8424 12.9071C14.0064 12.6229 14.3097 12.4479 14.6377 12.4479H18.0815C18.3251 12.4479 18.5588 12.5447 18.731 12.7169C18.9032 12.889 18.9999 13.1227 18.9999 13.3663ZM18.0815 9.50915H14.6377C14.3097 9.50915 14.0064 9.68416 13.8424 9.96833C13.6783 10.2525 13.6783 10.6025 13.8424 10.8867C14.0064 11.1709 14.3097 11.3459 14.6377 11.3459H18.0815C18.4097 11.3459 18.7129 11.1709 18.8769 10.8867C19.041 10.6025 19.041 10.2525 18.8769 9.96833C18.7129 9.68416 18.4097 9.50915 18.0815 9.50915ZM18.0815 6.57031H14.6377C14.3097 6.57031 14.0064 6.74545 13.8424 7.02949C13.6783 7.31366 13.6783 7.66382 13.8424 7.94786C14.0064 8.23203 14.3097 8.40704 14.6377 8.40704H18.0815C18.4097 8.40704 18.7129 8.23203 18.8769 7.94786C19.041 7.66382 19.041 7.31366 18.8769 7.02949C18.7129 6.74545 18.4097 6.57031 18.0815 6.57031ZM11.7209 12.4479L8.27698 12.448C7.94886 12.448 7.64573 12.623 7.48161 12.9072C7.31761 13.1912 7.31761 13.5414 7.48161 13.8255C7.64573 14.1096 7.94886 14.2847 8.27698 14.2847H11.7225C12.0506 14.2847 12.3537 14.1096 12.5179 13.8255C12.6819 13.5414 12.6819 13.1912 12.5179 12.9072C12.3537 12.623 12.0506 12.448 11.7225 12.448L11.7209 12.4479ZM11.7209 9.50902L8.27698 9.50915C7.94886 9.50915 7.64573 9.68416 7.48161 9.96833C7.31761 10.2525 7.31761 10.6025 7.48161 10.8867C7.64573 11.1709 7.94886 11.3459 8.27698 11.3459H11.7225C12.0506 11.3459 12.3537 11.1709 12.5179 10.8867C12.6819 10.6025 12.6819 10.2525 12.5179 9.96833C12.3537 9.68416 12.0506 9.50915 11.7225 9.50915L11.7209 9.50902ZM18.0815 15.3866H14.6377C14.3097 15.3866 14.0064 15.5616 13.8424 15.8458C13.6783 16.1299 13.6783 16.48 13.8424 16.7641C14.0064 17.0483 14.3097 17.2233 14.6377 17.2233H18.0815C18.4097 17.2233 18.7129 17.0483 18.8769 16.7641C19.041 16.4799 19.041 16.1299 18.8769 15.8458C18.7129 15.5616 18.4097 15.3866 18.0815 15.3866ZM12.6392 16.3049C12.6392 16.0614 12.5426 15.8278 12.3703 15.6556C12.1981 15.4833 11.9645 15.3866 11.721 15.3866H8.27711C7.94899 15.3866 7.64586 15.5616 7.48173 15.8457C7.31774 16.1299 7.31774 16.4799 7.48173 16.7641C7.64586 17.0483 7.94899 17.2233 8.27711 17.2233H11.7226C11.9662 17.2233 12.1997 17.1266 12.3721 16.9544C12.5443 16.7822 12.641 16.5485 12.641 16.3049L12.6392 16.3049ZM15.0528 4.77582C15.1874 4.91227 15.37 4.99068 15.5615 4.99439C15.5979 4.99439 15.6342 4.99132 15.6699 4.9853C15.8087 4.96006 15.9362 4.89254 16.0348 4.79184C16.1335 4.69113 16.1986 4.56237 16.221 4.42324L16.6967 1.5745C16.7301 1.37642 16.6748 1.1736 16.5452 1.02013C16.4158 0.866518 16.2253 0.777731 16.0244 0.777348C15.9869 0.777219 15.9495 0.780294 15.9125 0.786444L13.0728 1.25484C12.9206 1.28021 12.7813 1.35619 12.6777 1.47047C12.5739 1.58488 12.5119 1.73081 12.5016 1.88482C12.4898 2.08763 12.567 2.28546 12.7128 2.42665L13.2509 2.96475L10.312 5.90359L8.74346 4.33502C8.57537 4.16693 8.34758 4.07263 8.10992 4.07263C7.87226 4.07263 7.64434 4.16706 7.47624 4.33515L2.56298 9.25038C2.38924 9.41719 2.29008 9.64692 2.28778 9.88766C2.28534 10.1285 2.37989 10.3602 2.55017 10.5305C2.72044 10.7007 2.95208 10.7953 3.19296 10.793C3.43369 10.7905 3.66342 10.6914 3.83024 10.5178L8.10262 6.2454L9.67119 7.81397C9.83928 7.98193 10.0672 8.07636 10.3049 8.07636C10.5425 8.07636 10.7704 7.98193 10.9385 7.81397L14.5202 4.22479L15.0528 4.77582ZM1.91847 14.2845H5.36234C5.69033 14.2845 5.99359 14.1094 6.15759 13.8253C6.32171 13.5412 6.32171 13.191 6.15759 12.907C5.99359 12.6228 5.69033 12.4478 5.36234 12.4478H1.91847C1.59035 12.4478 1.28709 12.6228 1.12309 12.907C0.958973 13.191 0.958973 13.5412 1.12309 13.8253C1.28709 14.1094 1.59035 14.2845 1.91847 14.2845ZM6.28071 16.305C6.28071 16.0614 6.18385 15.8277 6.01166 15.6556C5.83947 15.4832 5.60591 15.3865 5.36234 15.3865H1.91846C1.59034 15.3865 1.28709 15.5615 1.12309 15.8457C0.958969 16.1299 0.958969 16.4799 1.12309 16.7641C1.28709 17.0482 1.59034 17.2232 1.91846 17.2232H5.36234C5.6059 17.2232 5.83947 17.1265 6.01166 16.9543C6.18385 16.7821 6.28071 16.5486 6.28071 16.305Z" fill="#C43C00"/>
<path d="M18.9999 13.3663C18.9999 13.6098 18.9032 13.8434 18.731 14.0156C18.5588 14.1878 18.3251 14.2847 18.0815 14.2847H14.6377C14.3097 14.2847 14.0064 14.1095 13.8424 13.8255C13.6783 13.5413 13.6783 13.1912 13.8424 12.9071C14.0064 12.6229 14.3097 12.4479 14.6377 12.4479H18.0815C18.3251 12.4479 18.5588 12.5447 18.731 12.7169C18.9032 12.889 18.9999 13.1227 18.9999 13.3663ZM18.0815 9.50915H14.6377C14.3097 9.50915 14.0064 9.68416 13.8424 9.96833C13.6783 10.2525 13.6783 10.6025 13.8424 10.8867C14.0064 11.1709 14.3097 11.3459 14.6377 11.3459H18.0815C18.4097 11.3459 18.7129 11.1709 18.8769 10.8867C19.041 10.6025 19.041 10.2525 18.8769 9.96833C18.7129 9.68416 18.4097 9.50915 18.0815 9.50915ZM18.0815 6.57031H14.6377C14.3097 6.57031 14.0064 6.74545 13.8424 7.02949C13.6783 7.31366 13.6783 7.66382 13.8424 7.94786C14.0064 8.23203 14.3097 8.40704 14.6377 8.40704H18.0815C18.4097 8.40704 18.7129 8.23203 18.8769 7.94786C19.041 7.66382 19.041 7.31366 18.8769 7.02949C18.7129 6.74545 18.4097 6.57031 18.0815 6.57031ZM11.7209 12.4479L8.27698 12.448C7.94886 12.448 7.64573 12.623 7.48161 12.9072C7.31761 13.1912 7.31761 13.5414 7.48161 13.8255C7.64573 14.1096 7.94886 14.2847 8.27698 14.2847H11.7225C12.0506 14.2847 12.3537 14.1096 12.5179 13.8255C12.6819 13.5414 12.6819 13.1912 12.5179 12.9072C12.3537 12.623 12.0506 12.448 11.7225 12.448L11.7209 12.4479ZM11.7209 9.50902L8.27698 9.50915C7.94886 9.50915 7.64573 9.68416 7.48161 9.96833C7.31761 10.2525 7.31761 10.6025 7.48161 10.8867C7.64573 11.1709 7.94886 11.3459 8.27698 11.3459H11.7225C12.0506 11.3459 12.3537 11.1709 12.5179 10.8867C12.6819 10.6025 12.6819 10.2525 12.5179 9.96833C12.3537 9.68416 12.0506 9.50915 11.7225 9.50915L11.7209 9.50902ZM18.0815 15.3866H14.6377C14.3097 15.3866 14.0064 15.5616 13.8424 15.8458C13.6783 16.1299 13.6783 16.48 13.8424 16.7641C14.0064 17.0483 14.3097 17.2233 14.6377 17.2233H18.0815C18.4097 17.2233 18.7129 17.0483 18.8769 16.7641C19.041 16.4799 19.041 16.1299 18.8769 15.8458C18.7129 15.5616 18.4097 15.3866 18.0815 15.3866ZM12.6392 16.3049C12.6392 16.0614 12.5426 15.8278 12.3703 15.6556C12.1981 15.4833 11.9645 15.3866 11.721 15.3866H8.27711C7.94899 15.3866 7.64586 15.5616 7.48173 15.8457C7.31774 16.1299 7.31774 16.4799 7.48173 16.7641C7.64586 17.0483 7.94899 17.2233 8.27711 17.2233H11.7226C11.9662 17.2233 12.1997 17.1266 12.3721 16.9544C12.5443 16.7822 12.641 16.5485 12.641 16.3049L12.6392 16.3049ZM15.0528 4.77582C15.1874 4.91227 15.37 4.99068 15.5615 4.99439C15.5979 4.99439 15.6342 4.99132 15.6699 4.9853C15.8087 4.96006 15.9362 4.89254 16.0348 4.79184C16.1335 4.69113 16.1986 4.56237 16.221 4.42324L16.6967 1.5745C16.7301 1.37642 16.6748 1.1736 16.5452 1.02013C16.4158 0.866518 16.2253 0.777731 16.0244 0.777348C15.9869 0.777219 15.9495 0.780294 15.9125 0.786444L13.0728 1.25484C12.9206 1.28021 12.7813 1.35619 12.6777 1.47047C12.5739 1.58488 12.5119 1.73081 12.5016 1.88482C12.4898 2.08763 12.567 2.28546 12.7128 2.42665L13.2509 2.96475L10.312 5.90359L8.74346 4.33502C8.57537 4.16693 8.34758 4.07263 8.10992 4.07263C7.87226 4.07263 7.64434 4.16706 7.47624 4.33515L2.56298 9.25038C2.38924 9.41719 2.29008 9.64692 2.28778 9.88766C2.28534 10.1285 2.37989 10.3602 2.55017 10.5305C2.72044 10.7007 2.95208 10.7953 3.19296 10.793C3.43369 10.7905 3.66342 10.6914 3.83024 10.5178L8.10262 6.2454L9.67119 7.81397C9.83928 7.98193 10.0672 8.07636 10.3049 8.07636C10.5425 8.07636 10.7704 7.98193 10.9385 7.81397L14.5202 4.22479L15.0528 4.77582ZM1.91847 14.2845H5.36234C5.69033 14.2845 5.99359 14.1094 6.15759 13.8253C6.32171 13.5412 6.32171 13.191 6.15759 12.907C5.99359 12.6228 5.69033 12.4478 5.36234 12.4478H1.91847C1.59035 12.4478 1.28709 12.6228 1.12309 12.907C0.958973 13.191 0.958973 13.5412 1.12309 13.8253C1.28709 14.1094 1.59035 14.2845 1.91847 14.2845ZM6.28071 16.305C6.28071 16.0614 6.18385 15.8277 6.01166 15.6556C5.83947 15.4832 5.60591 15.3865 5.36234 15.3865H1.91846C1.59034 15.3865 1.28709 15.5615 1.12309 15.8457C0.958969 16.1299 0.958969 16.4799 1.12309 16.7641C1.28709 17.0482 1.59034 17.2232 1.91846 17.2232H5.36234C5.6059 17.2232 5.83947 17.1265 6.01166 16.9543C6.18385 16.7821 6.28071 16.5486 6.28071 16.305Z" stroke="#C43C00" stroke-width="0.2" mask="url(#path-1-outside-1_1769_10050)"/>
</svg>
