<svg width="105" height="68" viewBox="0 0 105 68" fill="none" xmlns="http://www.w3.org/2000/svg">
<path fill-rule="evenodd" clip-rule="evenodd" d="M15.937 21.7857H42.2713C44.0211 21.7857 45.4501 23.2175 45.4501 24.9708V43.4383C45.4501 45.1916 44.0211 46.6234 42.2713 46.6234H15.1788C13.429 46.6234 12 45.1916 12 43.4383V20.6169C12 19.7987 12.6708 19.2143 13.5165 19.1266L37.7802 16C38.5968 16 39.2967 16.7013 39.2967 17.5195V20.0909H14.4205C14.4205 21.1721 14.7413 21.7857 15.937 21.7857ZM30.7227 42.0065C28.5063 42.4156 25.6483 41.6851 24.1027 40.0195C23.4028 39.2597 24.5401 38.1201 25.2401 38.8799C26.2608 40.0195 28.1272 40.5455 29.6437 40.5162C31.5685 40.4578 33.2891 38.7046 32.21 36.7468C30.6936 34.0292 26.9315 34.789 25.0068 32.6558C23.4611 30.9026 24.1902 28.2143 26.0275 26.987C27.9231 25.7305 31.2185 25.789 32.7933 27.6007C33.4641 28.3604 32.3267 29.5 31.6559 28.711C30.3728 27.2792 27.3981 27.4545 26.2608 28.974C24.6276 31.1071 27.0773 32.2468 28.7688 32.7727C31.1018 33.474 33.6682 34.7597 34.1056 37.4481C34.4556 39.6104 32.7641 41.5974 30.7227 42.0065Z" fill="#EE4E2C"/>
<path fill-rule="evenodd" clip-rule="evenodd" d="M30.7227 42.0065C28.5063 42.4448 25.6483 41.6851 24.1027 40.0195C23.4028 39.2597 24.5401 38.1201 25.2401 38.8799C26.2608 40.0195 28.1272 40.5454 29.6437 40.5162C31.5685 40.4578 33.2891 38.7045 32.21 36.7467C30.6936 34.0292 26.9315 34.789 25.0068 32.6558C23.4611 30.9026 24.1902 28.2143 26.0275 26.987C27.9231 25.7305 31.2185 25.789 32.7933 27.6007C33.4641 28.3604 32.3267 29.5 31.6559 28.711C30.3728 27.2792 27.3981 27.4546 26.2608 28.974C24.6276 31.1071 27.0773 32.2468 28.7688 32.7727C31.1018 33.474 33.6682 34.7597 34.1056 37.448C34.4556 39.6104 32.7641 41.5974 30.7227 42.0065Z" fill="#FEFEFE"/>
<path d="M76.0421 20.6461C75.1089 20.6461 74.2632 21.0552 73.6799 21.6688V20.9383C73.6799 20.2663 72.63 20.2663 72.63 20.9383V29.6461C72.63 30.3182 73.6799 30.3182 73.6799 29.6461V25.789C74.2632 26.4026 75.1089 26.8117 76.0421 26.8117C77.7919 26.8117 79.2209 25.4383 79.2209 23.7143C79.2209 22.0195 77.7919 20.6461 76.0421 20.6461ZM76.0421 25.7013C74.9339 25.7013 74.0299 24.8247 74.0299 23.7143C74.0299 22.75 74.7589 21.9318 75.7213 21.7857H75.7505C75.838 21.7565 75.9546 21.7565 76.0421 21.7565C76.8879 21.7565 77.5878 22.2533 77.9086 22.9253V22.9546C78.0252 23.1883 78.0835 23.4513 78.0835 23.7143C78.0835 24.8247 77.1795 25.7013 76.0421 25.7013ZM68.1973 26.8117C66.4475 26.8117 65.0185 25.4383 65.0185 23.7143C65.0185 22.0195 66.4475 20.6461 68.1973 20.6461C69.9179 20.6461 71.3469 22.0195 71.3469 23.7143C71.3469 25.4383 69.9179 26.8117 68.1973 26.8117ZM68.1973 21.7565C67.0599 21.7565 66.1558 22.6331 66.1558 23.7143C66.1558 24.8247 67.0599 25.7013 68.1973 25.7013C69.3055 25.7013 70.2095 24.8247 70.2095 23.7143C70.2095 22.6331 69.3055 21.7565 68.1973 21.7565ZM93.6566 23.6559C93.6275 22.2533 92.8984 20.9675 91.3528 20.6753C90.0113 20.4416 88.4656 21.1137 87.8823 22.3409C87.2991 23.5974 87.5324 25.3214 88.6989 26.1981C89.9529 27.1331 91.936 26.8409 93.2192 26.1396C93.8025 25.8182 93.2775 24.9416 92.6651 25.263C91.8485 25.7013 90.7987 25.9351 89.8654 25.6136C89.1947 25.4091 88.8156 24.8247 88.6989 24.1818H93.1317C93.3942 24.1818 93.6566 23.9481 93.6566 23.6559ZM88.7281 23.1591C88.7281 23.1007 88.7572 23.0714 88.7572 23.0422C89.0197 22.1948 89.8946 21.6981 90.7695 21.6688C91.7902 21.6396 92.3443 22.3409 92.5193 23.1591H88.7281ZM86.57 23.6851C86.5408 22.2533 85.7826 20.9675 84.237 20.7046C82.8955 20.4416 81.3498 21.1429 80.7957 22.3409C80.1833 23.5974 80.4458 25.3214 81.6123 26.1981C82.8663 27.1623 84.8202 26.8701 86.1034 26.1688C86.7158 25.8474 86.1617 24.9416 85.5785 25.263C84.7619 25.7013 83.6829 25.9351 82.7788 25.6429C82.0789 25.4091 81.6998 24.8247 81.5831 24.1818H86.0159C86.3075 24.1818 86.57 23.9481 86.57 23.6851ZM81.6414 23.1591C81.6414 23.1299 81.6414 23.0714 81.6706 23.0422C81.9039 22.1948 82.7788 21.6981 83.6829 21.6981C84.6744 21.6688 85.2577 22.3409 85.4326 23.1591H81.6414ZM63.7645 22.6916V26.2857C63.7645 26.9578 62.6854 26.9578 62.6854 26.2857V22.75C62.6563 22.0487 62.073 21.7273 62.0438 21.7273C61.2856 21.3766 59.9149 21.552 59.0984 22.5747V26.2857C59.0984 26.9578 58.0193 26.9578 58.0193 26.2857V17.0228C58.0193 16.3507 59.0984 16.3507 59.0984 17.0228V21.1721C60.3815 20.2955 62.0438 20.4124 62.8312 20.9383C62.8312 20.9383 63.7936 21.4643 63.7645 22.6916ZM56.2695 17.4611C55.2197 16.2922 53.0324 16.263 51.7493 17.0812C50.5536 17.8409 50.0578 19.5942 51.0785 20.7046C52.3617 22.0779 54.8697 21.5812 55.8904 23.3344C56.6195 24.5909 55.453 25.7305 54.1698 25.7597C53.1783 25.7597 51.9242 25.4383 51.2243 24.7078C50.7577 24.2403 49.9995 24.9416 50.4661 25.4383C51.516 26.5195 53.4116 26.987 54.8989 26.724C56.2695 26.461 57.3777 25.1753 57.1444 23.7727C56.882 22.0487 55.1322 21.2305 53.5865 20.763C52.4492 20.4416 50.8452 19.7111 51.9242 18.3377C52.6825 17.3734 54.6656 17.2565 55.5113 18.1916C55.9779 18.6883 56.707 17.9578 56.2695 17.4611Z" fill="#EE4E2C"/>
<path fill-rule="evenodd" clip-rule="evenodd" d="M84.0912 52H80.6791L84.3245 45.1331L78.3752 33.8539H82.0498L86.1618 41.6559L90.2738 33.8539H93.6567L84.0912 52ZM50.3203 46.6234H53.1783V41.4221H56.9987C60.9648 41.4221 64.1728 38.6169 64.1728 35.1981C64.1728 31.75 60.9648 28.9448 56.9987 28.9448H50.3203C50.3203 34.8474 50.3203 40.7208 50.3203 46.6234ZM53.1783 38.5585V31.8085H56.9987C59.1567 31.8085 60.9065 33.2987 60.9065 35.1688C60.9065 37.039 59.1567 38.5585 56.9987 38.5585H53.1783ZM74.8173 33.9708H77.3253V46.5065H74.8173V45.1039C73.7091 46.039 72.2801 46.6234 70.7053 46.6234C67.1766 46.6234 64.3186 43.7597 64.3186 40.224C64.3186 36.7175 67.1766 33.8539 70.7053 33.8539C72.2801 33.8539 73.7091 34.4383 74.8173 35.3734V33.9708ZM70.7053 36.5422C72.7176 36.5422 74.3799 38.2078 74.3799 40.224C74.3799 42.2695 72.7176 43.9351 70.7053 43.9351C68.6639 43.9351 67.0016 42.2695 67.0016 40.224C67.0016 38.2078 68.6639 36.5422 70.7053 36.5422Z" fill="#EE4E2C"/>
</svg>
