<svg width="24" height="24" viewBox="0 0 24 24" fill="none" xmlns="http://www.w3.org/2000/svg">
<path d="M19.6932 3.6066C19.403 3.20546 18.9639 3 18.4995 3H5.49493C4.99784 3 4.54245 3.24264 4.25399 3.68683C4.0635 3.98035 4 4.32671 4 4.67697V20.8008C4 20.9456 4.15602 21.0494 4.27214 20.9691C5.03413 20.4506 5.79612 19.932 6.55629 19.4115C6.63249 19.3587 6.7105 19.3078 6.7867 19.255C7.51784 19.752 8.24898 20.251 8.98012 20.75C9.08716 20.8224 9.1942 20.8967 9.30306 20.9691C9.35567 21.0043 9.43368 21.0043 9.4863 20.9691C10.2483 20.4506 11.0103 19.932 11.7705 19.4115C11.8467 19.3587 11.9247 19.3078 12.0009 19.255C12.732 19.754 13.4631 20.251 14.1943 20.75C14.3013 20.8224 14.4084 20.8967 14.5154 20.9691C14.568 21.0043 14.646 21.0043 14.6986 20.9691C15.4606 20.4506 16.2208 19.932 16.9828 19.4115C17.059 19.3587 17.137 19.3078 17.2132 19.255C17.9443 19.752 18.6755 20.251 19.4066 20.75C19.5137 20.8224 19.6207 20.8967 19.7278 20.9691C19.8003 21.018 19.8711 21.0043 19.9219 20.9593C19.9672 20.93 19.9999 20.8752 19.9999 20.8008V4.66302C20.0035 4.27947 19.9164 3.91357 19.6933 3.60635L19.6932 3.6066ZM16.3349 13.6254H7.67001C7.46681 13.6254 7.31623 13.4434 7.30714 13.2302C7.29807 13.0188 7.47949 12.8368 7.67001 12.8368C7.67545 12.8368 7.67908 12.8388 7.68452 12.8388C8.03468 12.829 8.38481 12.8408 8.73497 12.8408H16.3367C16.5399 12.8408 16.6904 13.0208 16.6995 13.2321C16.7068 13.4454 16.5254 13.6254 16.3349 13.6254L16.3349 13.6254ZM16.3349 8.69438H16.3204C15.9703 8.71395 15.6201 8.69438 15.27 8.69438H7.6683C7.4651 8.69438 7.31452 8.51631 7.30543 8.303C7.29636 8.09167 7.47779 7.91162 7.6683 7.91162H7.68281C8.03297 7.90184 8.3831 7.91162 8.73326 7.91162H16.3349C16.5381 7.91162 16.6887 8.09165 16.6978 8.303C16.7069 8.51435 16.5255 8.69438 16.3349 8.69438Z" fill="#718096"/>
</svg>
